<svg xmlns="http://www.w3.org/2000/svg" xmlns:xlink="http://www.w3.org/1999/xlink" contentStyleType="text/css" data-diagram-type="CLASS" height="812px" preserveAspectRatio="none" style="width:585px;height:812px;background:#FFFFFF;" version="1.1" viewBox="0 0 585 812" width="585px" zoomAndPan="magnify"><defs/><g><!--class User--><g class="entity" data-entity="User" data-source-line="1" data-uid="ent0002" id="entity_User"><rect fill="#F1F1F1" height="48" rx="2.5" ry="2.5" style="stroke:#181818;stroke-width:0.5;" width="63.9102" x="139" y="7"/><ellipse cx="154" cy="23" fill="#ADD1B2" rx="11" ry="11" style="stroke:#181818;stroke-width:1;"/><path d="M156.9688,28.6406 Q156.3906,28.9375 155.75,29.0781 Q155.1094,29.2344 154.4063,29.2344 Q151.9063,29.2344 150.5781,27.5938 Q149.2656,25.9375 149.2656,22.8125 Q149.2656,19.6875 150.5781,18.0313 Q151.9063,16.375 154.4063,16.375 Q155.1094,16.375 155.75,16.5313 Q156.4063,16.6875 156.9688,16.9844 L156.9688,19.7031 Q156.3438,19.125 155.75,18.8594 Q155.1563,18.5781 154.5313,18.5781 Q153.1875,18.5781 152.5,19.6563 Q151.8125,20.7188 151.8125,22.8125 Q151.8125,24.9063 152.5,25.9844 Q153.1875,27.0469 154.5313,27.0469 Q155.1563,27.0469 155.75,26.7813 Q156.3438,26.5 156.9688,25.9219 L156.9688,28.6406 Z " fill="#000000"/><text fill="#000000" font-family="sans-serif" font-size="14" lengthAdjust="spacing" textLength="31.9102" x="168" y="27.8467">User</text><line style="stroke:#181818;stroke-width:0.5;" x1="140" x2="201.9102" y1="39" y2="39"/><line style="stroke:#181818;stroke-width:0.5;" x1="140" x2="201.9102" y1="47" y2="47"/></g><!--class Role--><g class="entity" data-entity="Role" data-source-line="2" data-uid="ent0003" id="entity_Role"><rect fill="#F1F1F1" height="48" rx="2.5" ry="2.5" style="stroke:#181818;stroke-width:0.5;" width="62.7959" x="139.5" y="132"/><ellipse cx="154.5" cy="148" fill="#ADD1B2" rx="11" ry="11" style="stroke:#181818;stroke-width:1;"/><path d="M157.4688,153.6406 Q156.8906,153.9375 156.25,154.0781 Q155.6094,154.2344 154.9063,154.2344 Q152.4063,154.2344 151.0781,152.5938 Q149.7656,150.9375 149.7656,147.8125 Q149.7656,144.6875 151.0781,143.0313 Q152.4063,141.375 154.9063,141.375 Q155.6094,141.375 156.25,141.5313 Q156.9063,141.6875 157.4688,141.9844 L157.4688,144.7031 Q156.8438,144.125 156.25,143.8594 Q155.6563,143.5781 155.0313,143.5781 Q153.6875,143.5781 153,144.6563 Q152.3125,145.7188 152.3125,147.8125 Q152.3125,149.9063 153,150.9844 Q153.6875,152.0469 155.0313,152.0469 Q155.6563,152.0469 156.25,151.7813 Q156.8438,151.5 157.4688,150.9219 L157.4688,153.6406 Z " fill="#000000"/><text fill="#000000" font-family="sans-serif" font-size="14" lengthAdjust="spacing" textLength="30.7959" x="168.5" y="152.8467">Role</text><line style="stroke:#181818;stroke-width:0.5;" x1="140.5" x2="201.2959" y1="164" y2="164"/><line style="stroke:#181818;stroke-width:0.5;" x1="140.5" x2="201.2959" y1="172" y2="172"/></g><!--class Permission--><g class="entity" data-entity="Permission" data-source-line="3" data-uid="ent0004" id="entity_Permission"><rect fill="#F1F1F1" height="48" rx="2.5" ry="2.5" style="stroke:#181818;stroke-width:0.5;" width="108.2549" x="117" y="257"/><ellipse cx="132" cy="273" fill="#ADD1B2" rx="11" ry="11" style="stroke:#181818;stroke-width:1;"/><path d="M134.9688,278.6406 Q134.3906,278.9375 133.75,279.0781 Q133.1094,279.2344 132.4063,279.2344 Q129.9063,279.2344 128.5781,277.5938 Q127.2656,275.9375 127.2656,272.8125 Q127.2656,269.6875 128.5781,268.0313 Q129.9063,266.375 132.4063,266.375 Q133.1094,266.375 133.75,266.5313 Q134.4063,266.6875 134.9688,266.9844 L134.9688,269.7031 Q134.3438,269.125 133.75,268.8594 Q133.1563,268.5781 132.5313,268.5781 Q131.1875,268.5781 130.5,269.6563 Q129.8125,270.7188 129.8125,272.8125 Q129.8125,274.9063 130.5,275.9844 Q131.1875,277.0469 132.5313,277.0469 Q133.1563,277.0469 133.75,276.7813 Q134.3438,276.5 134.9688,275.9219 L134.9688,278.6406 Z " fill="#000000"/><text fill="#000000" font-family="sans-serif" font-size="14" lengthAdjust="spacing" textLength="76.2549" x="146" y="277.8467">Permission</text><line style="stroke:#181818;stroke-width:0.5;" x1="118" x2="224.2549" y1="289" y2="289"/><line style="stroke:#181818;stroke-width:0.5;" x1="118" x2="224.2549" y1="297" y2="297"/></g><!--class View--><g class="entity" data-entity="View" data-source-line="4" data-uid="ent0005" id="entity_View"><rect fill="#F1F1F1" height="48" rx="2.5" ry="2.5" style="stroke:#181818;stroke-width:0.5;" width="65.5303" x="138" y="382"/><ellipse cx="153" cy="398" fill="#ADD1B2" rx="11" ry="11" style="stroke:#181818;stroke-width:1;"/><path d="M155.9688,403.6406 Q155.3906,403.9375 154.75,404.0781 Q154.1094,404.2344 153.4063,404.2344 Q150.9063,404.2344 149.5781,402.5938 Q148.2656,400.9375 148.2656,397.8125 Q148.2656,394.6875 149.5781,393.0313 Q150.9063,391.375 153.4063,391.375 Q154.1094,391.375 154.75,391.5313 Q155.4063,391.6875 155.9688,391.9844 L155.9688,394.7031 Q155.3438,394.125 154.75,393.8594 Q154.1563,393.5781 153.5313,393.5781 Q152.1875,393.5781 151.5,394.6563 Q150.8125,395.7188 150.8125,397.8125 Q150.8125,399.9063 151.5,400.9844 Q152.1875,402.0469 153.5313,402.0469 Q154.1563,402.0469 154.75,401.7813 Q155.3438,401.5 155.9688,400.9219 L155.9688,403.6406 Z " fill="#000000"/><text fill="#000000" font-family="sans-serif" font-size="14" lengthAdjust="spacing" textLength="33.5303" x="167" y="402.8467">View</text><line style="stroke:#181818;stroke-width:0.5;" x1="139" x2="202.5303" y1="414" y2="414"/><line style="stroke:#181818;stroke-width:0.5;" x1="139" x2="202.5303" y1="422" y2="422"/></g><!--class Table--><g class="entity" data-entity="Table" data-source-line="5" data-uid="ent0006" id="entity_Table"><rect fill="#F1F1F1" height="48" rx="2.5" ry="2.5" style="stroke:#181818;stroke-width:0.5;" width="70.5205" x="194.5" y="507"/><ellipse cx="209.5" cy="523" fill="#ADD1B2" rx="11" ry="11" style="stroke:#181818;stroke-width:1;"/><path d="M212.4688,528.6406 Q211.8906,528.9375 211.25,529.0781 Q210.6094,529.2344 209.9063,529.2344 Q207.4063,529.2344 206.0781,527.5938 Q204.7656,525.9375 204.7656,522.8125 Q204.7656,519.6875 206.0781,518.0313 Q207.4063,516.375 209.9063,516.375 Q210.6094,516.375 211.25,516.5313 Q211.9063,516.6875 212.4688,516.9844 L212.4688,519.7031 Q211.8438,519.125 211.25,518.8594 Q210.6563,518.5781 210.0313,518.5781 Q208.6875,518.5781 208,519.6563 Q207.3125,520.7188 207.3125,522.8125 Q207.3125,524.9063 208,525.9844 Q208.6875,527.0469 210.0313,527.0469 Q210.6563,527.0469 211.25,526.7813 Q211.8438,526.5 212.4688,525.9219 L212.4688,528.6406 Z " fill="#000000"/><text fill="#000000" font-family="sans-serif" font-size="14" lengthAdjust="spacing" textLength="38.5205" x="223.5" y="527.8467">Table</text><line style="stroke:#181818;stroke-width:0.5;" x1="195.5" x2="264.0205" y1="539" y2="539"/><line style="stroke:#181818;stroke-width:0.5;" x1="195.5" x2="264.0205" y1="547" y2="547"/></g><!--class Schema--><g class="entity" data-entity="Schema" data-source-line="6" data-uid="ent0007" id="entity_Schema"><rect fill="#F1F1F1" height="48" rx="2.5" ry="2.5" style="stroke:#181818;stroke-width:0.5;" width="88.2871" x="7" y="632"/><ellipse cx="22" cy="648" fill="#ADD1B2" rx="11" ry="11" style="stroke:#181818;stroke-width:1;"/><path d="M24.9688,653.6406 Q24.3906,653.9375 23.75,654.0781 Q23.1094,654.2344 22.4063,654.2344 Q19.9063,654.2344 18.5781,652.5938 Q17.2656,650.9375 17.2656,647.8125 Q17.2656,644.6875 18.5781,643.0313 Q19.9063,641.375 22.4063,641.375 Q23.1094,641.375 23.75,641.5313 Q24.4063,641.6875 24.9688,641.9844 L24.9688,644.7031 Q24.3438,644.125 23.75,643.8594 Q23.1563,643.5781 22.5313,643.5781 Q21.1875,643.5781 20.5,644.6563 Q19.8125,645.7188 19.8125,647.8125 Q19.8125,649.9063 20.5,650.9844 Q21.1875,652.0469 22.5313,652.0469 Q23.1563,652.0469 23.75,651.7813 Q24.3438,651.5 24.9688,650.9219 L24.9688,653.6406 Z " fill="#000000"/><text fill="#000000" font-family="sans-serif" font-size="14" lengthAdjust="spacing" textLength="56.2871" x="36" y="652.8467">Schema</text><line style="stroke:#181818;stroke-width:0.5;" x1="8" x2="94.2871" y1="664" y2="664"/><line style="stroke:#181818;stroke-width:0.5;" x1="8" x2="94.2871" y1="672" y2="672"/></g><!--class Database--><g class="entity" data-entity="Database" data-source-line="7" data-uid="ent0008" id="entity_Database"><rect fill="#F1F1F1" height="48" rx="2.5" ry="2.5" style="stroke:#181818;stroke-width:0.5;" width="98.8008" x="239.5" y="382"/><ellipse cx="254.5" cy="398" fill="#ADD1B2" rx="11" ry="11" style="stroke:#181818;stroke-width:1;"/><path d="M257.4688,403.6406 Q256.8906,403.9375 256.25,404.0781 Q255.6094,404.2344 254.9063,404.2344 Q252.4063,404.2344 251.0781,402.5938 Q249.7656,400.9375 249.7656,397.8125 Q249.7656,394.6875 251.0781,393.0313 Q252.4063,391.375 254.9063,391.375 Q255.6094,391.375 256.25,391.5313 Q256.9063,391.6875 257.4688,391.9844 L257.4688,394.7031 Q256.8438,394.125 256.25,393.8594 Q255.6563,393.5781 255.0313,393.5781 Q253.6875,393.5781 253,394.6563 Q252.3125,395.7188 252.3125,397.8125 Q252.3125,399.9063 253,400.9844 Q253.6875,402.0469 255.0313,402.0469 Q255.6563,402.0469 256.25,401.7813 Q256.8438,401.5 257.4688,400.9219 L257.4688,403.6406 Z " fill="#000000"/><text fill="#000000" font-family="sans-serif" font-size="14" lengthAdjust="spacing" textLength="66.8008" x="268.5" y="402.8467">Database</text><line style="stroke:#181818;stroke-width:0.5;" x1="240.5" x2="337.3008" y1="414" y2="414"/><line style="stroke:#181818;stroke-width:0.5;" x1="240.5" x2="337.3008" y1="422" y2="422"/></g><!--class Trigger--><g class="entity" data-entity="Trigger" data-source-line="8" data-uid="ent0009" id="entity_Trigger"><rect fill="#F1F1F1" height="48" rx="2.5" ry="2.5" style="stroke:#181818;stroke-width:0.5;" width="82.3398" x="130" y="632"/><ellipse cx="145" cy="648" fill="#ADD1B2" rx="11" ry="11" style="stroke:#181818;stroke-width:1;"/><path d="M147.9688,653.6406 Q147.3906,653.9375 146.75,654.0781 Q146.1094,654.2344 145.4063,654.2344 Q142.9063,654.2344 141.5781,652.5938 Q140.2656,650.9375 140.2656,647.8125 Q140.2656,644.6875 141.5781,643.0313 Q142.9063,641.375 145.4063,641.375 Q146.1094,641.375 146.75,641.5313 Q147.4063,641.6875 147.9688,641.9844 L147.9688,644.7031 Q147.3438,644.125 146.75,643.8594 Q146.1563,643.5781 145.5313,643.5781 Q144.1875,643.5781 143.5,644.6563 Q142.8125,645.7188 142.8125,647.8125 Q142.8125,649.9063 143.5,650.9844 Q144.1875,652.0469 145.5313,652.0469 Q146.1563,652.0469 146.75,651.7813 Q147.3438,651.5 147.9688,650.9219 L147.9688,653.6406 Z " fill="#000000"/><text fill="#000000" font-family="sans-serif" font-size="14" lengthAdjust="spacing" textLength="50.3398" x="159" y="652.8467">Trigger</text><line style="stroke:#181818;stroke-width:0.5;" x1="131" x2="211.3398" y1="664" y2="664"/><line style="stroke:#181818;stroke-width:0.5;" x1="131" x2="211.3398" y1="672" y2="672"/></g><!--class Attribute--><g class="entity" data-entity="Attribute" data-source-line="9" data-uid="ent0010" id="entity_Attribute"><rect fill="#F1F1F1" height="48" rx="2.5" ry="2.5" style="stroke:#181818;stroke-width:0.5;" width="94.0635" x="247" y="632"/><ellipse cx="262" cy="648" fill="#ADD1B2" rx="11" ry="11" style="stroke:#181818;stroke-width:1;"/><path d="M264.9688,653.6406 Q264.3906,653.9375 263.75,654.0781 Q263.1094,654.2344 262.4063,654.2344 Q259.9063,654.2344 258.5781,652.5938 Q257.2656,650.9375 257.2656,647.8125 Q257.2656,644.6875 258.5781,643.0313 Q259.9063,641.375 262.4063,641.375 Q263.1094,641.375 263.75,641.5313 Q264.4063,641.6875 264.9688,641.9844 L264.9688,644.7031 Q264.3438,644.125 263.75,643.8594 Q263.1563,643.5781 262.5313,643.5781 Q261.1875,643.5781 260.5,644.6563 Q259.8125,645.7188 259.8125,647.8125 Q259.8125,649.9063 260.5,650.9844 Q261.1875,652.0469 262.5313,652.0469 Q263.1563,652.0469 263.75,651.7813 Q264.3438,651.5 264.9688,650.9219 L264.9688,653.6406 Z " fill="#000000"/><text fill="#000000" font-family="sans-serif" font-size="14" lengthAdjust="spacing" textLength="62.0635" x="276" y="652.8467">Attribute</text><line style="stroke:#181818;stroke-width:0.5;" x1="248" x2="340.0635" y1="664" y2="664"/><line style="stroke:#181818;stroke-width:0.5;" x1="248" x2="340.0635" y1="672" y2="672"/></g><!--class Constraint--><g class="entity" data-entity="Constraint" data-source-line="10" data-uid="ent0011" id="entity_Constraint"><rect fill="#F1F1F1" height="48" rx="2.5" ry="2.5" style="stroke:#181818;stroke-width:0.5;" width="104.584" x="231.5" y="757"/><ellipse cx="246.5" cy="773" fill="#ADD1B2" rx="11" ry="11" style="stroke:#181818;stroke-width:1;"/><path d="M249.4688,778.6406 Q248.8906,778.9375 248.25,779.0781 Q247.6094,779.2344 246.9063,779.2344 Q244.4063,779.2344 243.0781,777.5938 Q241.7656,775.9375 241.7656,772.8125 Q241.7656,769.6875 243.0781,768.0313 Q244.4063,766.375 246.9063,766.375 Q247.6094,766.375 248.25,766.5313 Q248.9063,766.6875 249.4688,766.9844 L249.4688,769.7031 Q248.8438,769.125 248.25,768.8594 Q247.6563,768.5781 247.0313,768.5781 Q245.6875,768.5781 245,769.6563 Q244.3125,770.7188 244.3125,772.8125 Q244.3125,774.9063 245,775.9844 Q245.6875,777.0469 247.0313,777.0469 Q247.6563,777.0469 248.25,776.7813 Q248.8438,776.5 249.4688,775.9219 L249.4688,778.6406 Z " fill="#000000"/><text fill="#000000" font-family="sans-serif" font-size="14" lengthAdjust="spacing" textLength="72.584" x="260.5" y="777.8467">Constraint</text><line style="stroke:#181818;stroke-width:0.5;" x1="232.5" x2="335.084" y1="789" y2="789"/><line style="stroke:#181818;stroke-width:0.5;" x1="232.5" x2="335.084" y1="797" y2="797"/></g><!--class Key--><g class="entity" data-entity="Key" data-source-line="11" data-uid="ent0012" id="entity_Key"><rect fill="#F1F1F1" height="48" rx="2.5" ry="2.5" style="stroke:#181818;stroke-width:0.5;" width="58.0791" x="385" y="632"/><ellipse cx="400" cy="648" fill="#ADD1B2" rx="11" ry="11" style="stroke:#181818;stroke-width:1;"/><path d="M402.9688,653.6406 Q402.3906,653.9375 401.75,654.0781 Q401.1094,654.2344 400.4063,654.2344 Q397.9063,654.2344 396.5781,652.5938 Q395.2656,650.9375 395.2656,647.8125 Q395.2656,644.6875 396.5781,643.0313 Q397.9063,641.375 400.4063,641.375 Q401.1094,641.375 401.75,641.5313 Q402.4063,641.6875 402.9688,641.9844 L402.9688,644.7031 Q402.3438,644.125 401.75,643.8594 Q401.1563,643.5781 400.5313,643.5781 Q399.1875,643.5781 398.5,644.6563 Q397.8125,645.7188 397.8125,647.8125 Q397.8125,649.9063 398.5,650.9844 Q399.1875,652.0469 400.5313,652.0469 Q401.1563,652.0469 401.75,651.7813 Q402.3438,651.5 402.9688,650.9219 L402.9688,653.6406 Z " fill="#000000"/><text fill="#000000" font-family="sans-serif" font-size="14" lengthAdjust="spacing" textLength="26.0791" x="414" y="652.8467">Key</text><line style="stroke:#181818;stroke-width:0.5;" x1="386" x2="442.0791" y1="664" y2="664"/><line style="stroke:#181818;stroke-width:0.5;" x1="386" x2="442.0791" y1="672" y2="672"/></g><!--class Foreign--><g class="entity" data-entity="Foreign" data-source-line="12" data-uid="ent0013" id="entity_Foreign"><rect fill="#F1F1F1" height="48" rx="2.5" ry="2.5" style="stroke:#181818;stroke-width:0.5;" width="84.6367" x="371.5" y="757"/><ellipse cx="386.5" cy="773" fill="#ADD1B2" rx="11" ry="11" style="stroke:#181818;stroke-width:1;"/><path d="M389.4688,778.6406 Q388.8906,778.9375 388.25,779.0781 Q387.6094,779.2344 386.9063,779.2344 Q384.4063,779.2344 383.0781,777.5938 Q381.7656,775.9375 381.7656,772.8125 Q381.7656,769.6875 383.0781,768.0313 Q384.4063,766.375 386.9063,766.375 Q387.6094,766.375 388.25,766.5313 Q388.9063,766.6875 389.4688,766.9844 L389.4688,769.7031 Q388.8438,769.125 388.25,768.8594 Q387.6563,768.5781 387.0313,768.5781 Q385.6875,768.5781 385,769.6563 Q384.3125,770.7188 384.3125,772.8125 Q384.3125,774.9063 385,775.9844 Q385.6875,777.0469 387.0313,777.0469 Q387.6563,777.0469 388.25,776.7813 Q388.8438,776.5 389.4688,775.9219 L389.4688,778.6406 Z " fill="#000000"/><text fill="#000000" font-family="sans-serif" font-size="14" lengthAdjust="spacing" textLength="52.6367" x="400.5" y="777.8467">Foreign</text><line style="stroke:#181818;stroke-width:0.5;" x1="372.5" x2="455.1367" y1="789" y2="789"/><line style="stroke:#181818;stroke-width:0.5;" x1="372.5" x2="455.1367" y1="797" y2="797"/></g><!--class Primary--><g class="entity" data-entity="Primary" data-source-line="13" data-uid="ent0014" id="entity_Primary"><rect fill="#F1F1F1" height="48" rx="2.5" ry="2.5" style="stroke:#181818;stroke-width:0.5;" width="86.3457" x="492" y="757"/><ellipse cx="507" cy="773" fill="#ADD1B2" rx="11" ry="11" style="stroke:#181818;stroke-width:1;"/><path d="M509.9688,778.6406 Q509.3906,778.9375 508.75,779.0781 Q508.1094,779.2344 507.4063,779.2344 Q504.9063,779.2344 503.5781,777.5938 Q502.2656,775.9375 502.2656,772.8125 Q502.2656,769.6875 503.5781,768.0313 Q504.9063,766.375 507.4063,766.375 Q508.1094,766.375 508.75,766.5313 Q509.4063,766.6875 509.9688,766.9844 L509.9688,769.7031 Q509.3438,769.125 508.75,768.8594 Q508.1563,768.5781 507.5313,768.5781 Q506.1875,768.5781 505.5,769.6563 Q504.8125,770.7188 504.8125,772.8125 Q504.8125,774.9063 505.5,775.9844 Q506.1875,777.0469 507.5313,777.0469 Q508.1563,777.0469 508.75,776.7813 Q509.3438,776.5 509.9688,775.9219 L509.9688,778.6406 Z " fill="#000000"/><text fill="#000000" font-family="sans-serif" font-size="14" lengthAdjust="spacing" textLength="54.3457" x="521" y="777.8467">Primary</text><line style="stroke:#181818;stroke-width:0.5;" x1="493" x2="577.3457" y1="789" y2="789"/><line style="stroke:#181818;stroke-width:0.5;" x1="493" x2="577.3457" y1="797" y2="797"/></g><!--link User to Role--><g class="link" data-entity-1="User" data-entity-2="Role" data-source-line="15" data-uid="lnk15" id="link_User_Role"><path codeLine="15" d="M171,55.14 C171,77.13 171,104.01 171,125.97" fill="none" id="User-to-Role" style="stroke:#181818;stroke-width:1;"/><polygon fill="#181818" points="171,131.97,175,122.97,171,126.97,167,122.97,171,131.97" style="stroke:#181818;stroke-width:1;"/><text fill="#000000" font-family="sans-serif" font-size="13" lengthAdjust="spacing" textLength="35.0771" x="172" y="98.0669">has a</text></g><!--link Role to Permission--><g class="link" data-entity-1="Role" data-entity-2="Permission" data-source-line="16" data-uid="lnk16" id="link_Role_Permission"><path codeLine="16" d="M171,180.14 C171,202.13 171,229.01 171,250.97" fill="none" id="Role-to-Permission" style="stroke:#181818;stroke-width:1;"/><polygon fill="#181818" points="171,256.97,175,247.97,171,251.97,167,247.97,171,256.97" style="stroke:#181818;stroke-width:1;"/><text fill="#000000" font-family="sans-serif" font-size="13" lengthAdjust="spacing" textLength="22.9785" x="172" y="223.0669">has</text></g><!--link Permission to View--><g class="link" data-entity-1="Permission" data-entity-2="View" data-source-line="17" data-uid="lnk17" id="link_Permission_View"><path codeLine="17" d="M171,305.14 C171,327.13 171,354.01 171,375.97" fill="none" id="Permission-to-View" style="stroke:#181818;stroke-width:1;"/><polygon fill="#181818" points="171,381.97,175,372.97,171,376.97,167,372.97,171,381.97" style="stroke:#181818;stroke-width:1;"/><text fill="#000000" font-family="sans-serif" font-size="13" lengthAdjust="spacing" textLength="41.0884" x="172" y="348.0669">over a</text></g><!--reverse link View to Table--><g class="link" data-entity-1="View" data-entity-2="Table" data-source-line="18" data-uid="lnk18" id="link_View_Table"><path codeLine="18" d="M184.6953,435.5496 C195.2453,457.5396 208.42,485.01 218.95,506.97" fill="none" id="View-backto-Table" style="stroke:#181818;stroke-width:1;"/><polygon fill="#181818" points="182.1,430.14,182.3866,439.9847,184.2628,434.648,189.5994,436.5242,182.1,430.14" style="stroke:#181818;stroke-width:1;"/><text fill="#000000" font-family="sans-serif" font-size="13" lengthAdjust="spacing" textLength="35.0771" x="206" y="473.0669">has a</text></g><!--reverse link Database to Table--><g class="link" data-entity-1="Database" data-entity-2="Table" data-source-line="19" data-uid="lnk19" id="link_Database_Table"><path codeLine="19" d="M275.3047,435.5496 C264.7547,457.5396 251.58,485.01 241.05,506.97" fill="none" id="Database-backto-Table" style="stroke:#181818;stroke-width:1;"/><polygon fill="#181818" points="277.9,430.14,270.4006,436.5242,275.7372,434.648,277.6134,439.9847,277.9,430.14" style="stroke:#181818;stroke-width:1;"/><text fill="#000000" font-family="sans-serif" font-size="13" lengthAdjust="spacing" textLength="88.188" x="264" y="473.0669">depends on a</text></g><!--link Table to Schema--><g class="link" data-entity-1="Table" data-entity-2="Schema" data-source-line="20" data-uid="lnk20" id="link_Table_Schema"><path codeLine="20" d="M194.24,542.48 C168.57,551.15 134.04,565.26 108,585 C91.01,597.88 79.4106,611.9005 69.0506,626.8305" fill="none" id="Table-to-Schema" style="stroke:#181818;stroke-width:1;"/><polygon fill="#181818" points="65.63,631.76,74.0472,626.6462,68.4805,627.6521,67.4746,622.0854,65.63,631.76" style="stroke:#181818;stroke-width:1;"/><text fill="#000000" font-family="sans-serif" font-size="13" lengthAdjust="spacing" textLength="51.3589" x="109" y="598.0669">needs a</text></g><!--link Table to Trigger--><g class="link" data-entity-1="Table" data-entity-2="Trigger" data-source-line="21" data-uid="lnk21" id="link_Table_Trigger"><path codeLine="21" d="M196.41,555.17 C187.12,563.43 178.18,573.55 173,585 C166.38,599.62 165.5408,611.7925 166.7708,625.9525" fill="none" id="Table-to-Trigger" style="stroke:#181818;stroke-width:1;"/><polygon fill="#181818" points="167.29,631.93,170.4961,622.6176,166.8573,626.9488,162.5262,623.3099,167.29,631.93" style="stroke:#181818;stroke-width:1;"/><text fill="#000000" font-family="sans-serif" font-size="13" lengthAdjust="spacing" textLength="71.2334" x="174" y="598.0669">could have</text></g><!--link Table to Attribute--><g class="link" data-entity-1="Table" data-entity-2="Attribute" data-source-line="22" data-uid="lnk22" id="link_Table_Attribute"><path codeLine="22" d="M242.04,555.14 C253.48,577.13 267.8198,604.6878 279.2498,626.6478" fill="none" id="Table-to-Attribute" style="stroke:#181818;stroke-width:1;"/><polygon fill="#181818" points="282.02,631.97,281.4129,622.1399,279.7115,627.5348,274.3166,625.8334,282.02,631.97" style="stroke:#181818;stroke-width:1;"/><text fill="#000000" font-family="sans-serif" font-size="13" lengthAdjust="spacing" textLength="22.9785" x="266" y="598.0669">has</text></g><!--link Table to Key--><g class="link" data-entity-1="Table" data-entity-2="Key" data-source-line="23" data-uid="lnk23" id="link_Table_Key"><path codeLine="23" d="M264.61,555.14 C299.38,578.38 347.3724,610.4547 380.0024,632.2747" fill="none" id="Table-to-Key" style="stroke:#181818;stroke-width:1;"/><polygon fill="#181818" points="384.99,635.61,379.7321,627.2821,380.8337,632.8306,375.2851,633.9322,384.99,635.61" style="stroke:#181818;stroke-width:1;"/><text fill="#000000" font-family="sans-serif" font-size="13" lengthAdjust="spacing" textLength="22.9785" x="334" y="598.0669">has</text></g><!--link Attribute to Constraint--><g class="link" data-entity-1="Attribute" data-entity-2="Constraint" data-source-line="24" data-uid="lnk24" id="link_Attribute_Constraint"><path codeLine="24" d="M292.12,680.14 C290.33,702.13 288.1475,729.0298 286.3575,750.9898" fill="none" id="Attribute-to-Constraint" style="stroke:#181818;stroke-width:1;"/><polygon fill="#181818" points="285.87,756.97,290.588,748.3247,286.2762,751.9865,282.6144,747.6748,285.87,756.97" style="stroke:#181818;stroke-width:1;"/><text fill="#000000" font-family="sans-serif" font-size="13" lengthAdjust="spacing" textLength="83.332" x="290" y="723.0669">could have a</text></g><!--reverse link Key to Primary--><g class="link" data-entity-1="Key" data-entity-2="Primary" data-source-line="25" data-uid="lnk25" id="link_Key_Primary"><path codeLine="25" d="M444.946,684.2379 C455.016,693.3179 462.01,699.93 472,710 C486.97,725.09 502.98,742.9 515.12,756.78" fill="none" id="Key-backto-Primary" style="stroke:#181818;stroke-width:1;"/><polygon fill="#181818" points="440.49,680.22,444.4954,689.2176,444.2034,683.5683,449.8527,683.2762,440.49,680.22" style="stroke:#181818;stroke-width:1;"/><text fill="#000000" font-family="sans-serif" font-size="13" lengthAdjust="spacing" textLength="48.915" x="489" y="723.0669">inherits</text></g><!--reverse link Key to Foreign--><g class="link" data-entity-1="Key" data-entity-2="Foreign" data-source-line="26" data-uid="lnk26" id="link_Key_Foreign"><path codeLine="26" d="M414,686.14 C414,708.13 414,735.01 414,756.97" fill="none" id="Key-backto-Foreign" style="stroke:#181818;stroke-width:1;"/><polygon fill="#181818" points="414,680.14,410,689.14,414,685.14,418,689.14,414,680.14" style="stroke:#181818;stroke-width:1;"/><text fill="#000000" font-family="sans-serif" font-size="13" lengthAdjust="spacing" textLength="48.915" x="415" y="723.0669">inherits</text></g><!--SRC=[LP0nRiCm34LtdO8Ny0M4ea3HeakNe4swqpPX4x2bGbGIvFQHPKfoD_8_ulEJmu8YS14APiZbjrz8onE5bKNOEnL-cUvQdh6lSp_3J2jgyu4HUvJ2pe6dgPg_nHYulyP2txsJ691TLE6B7bfz-a0ybSsdm2k6Xp5RKkYwrvmJBCmeW2OtczeYPsHQd_5sW0L_InvejWPUkcw_fLYL_4SoqX-vKI2veCbQTjlljk28Hlb7z6eBWxykOtA-qO7MB-mP6qZNxrATo7Bxqj4mBKppEQP-nmAxcG97gKI_sCWJ]--></g></svg>