<svg xmlns="http://www.w3.org/2000/svg" xmlns:xlink="http://www.w3.org/1999/xlink" contentStyleType="text/css" data-diagram-type="CLASS" height="710px" preserveAspectRatio="none" style="width:463px;height:710px;background:#FFFFFF;" version="1.1" viewBox="0 0 463 710" width="463px" zoomAndPan="magnify"><defs/><g><!--class User--><g class="entity" data-entity="User" data-source-line="1" data-uid="ent0002" id="entity_User"><rect fill="#F1F1F1" height="48" rx="2.5" ry="2.5" style="stroke:#181818;stroke-width:0.5;" width="63.9102" x="139" y="7"/><ellipse cx="154" cy="23" fill="#ADD1B2" rx="11" ry="11" style="stroke:#181818;stroke-width:1;"/><path d="M156.9688,28.6406 Q156.3906,28.9375 155.75,29.0781 Q155.1094,29.2344 154.4063,29.2344 Q151.9063,29.2344 150.5781,27.5938 Q149.2656,25.9375 149.2656,22.8125 Q149.2656,19.6875 150.5781,18.0313 Q151.9063,16.375 154.4063,16.375 Q155.1094,16.375 155.75,16.5313 Q156.4063,16.6875 156.9688,16.9844 L156.9688,19.7031 Q156.3438,19.125 155.75,18.8594 Q155.1563,18.5781 154.5313,18.5781 Q153.1875,18.5781 152.5,19.6563 Q151.8125,20.7188 151.8125,22.8125 Q151.8125,24.9063 152.5,25.9844 Q153.1875,27.0469 154.5313,27.0469 Q155.1563,27.0469 155.75,26.7813 Q156.3438,26.5 156.9688,25.9219 L156.9688,28.6406 Z " fill="#000000"/><text fill="#000000" font-family="sans-serif" font-size="14" lengthAdjust="spacing" textLength="31.9102" x="168" y="27.8467">User</text><line style="stroke:#181818;stroke-width:0.5;" x1="140" x2="201.9102" y1="39" y2="39"/><line style="stroke:#181818;stroke-width:0.5;" x1="140" x2="201.9102" y1="47" y2="47"/></g><!--class Role--><g class="entity" data-entity="Role" data-source-line="2" data-uid="ent0003" id="entity_Role"><rect fill="#F1F1F1" height="48" rx="2.5" ry="2.5" style="stroke:#181818;stroke-width:0.5;" width="62.7959" x="139.5" y="115"/><ellipse cx="154.5" cy="131" fill="#ADD1B2" rx="11" ry="11" style="stroke:#181818;stroke-width:1;"/><path d="M157.4688,136.6406 Q156.8906,136.9375 156.25,137.0781 Q155.6094,137.2344 154.9063,137.2344 Q152.4063,137.2344 151.0781,135.5938 Q149.7656,133.9375 149.7656,130.8125 Q149.7656,127.6875 151.0781,126.0313 Q152.4063,124.375 154.9063,124.375 Q155.6094,124.375 156.25,124.5313 Q156.9063,124.6875 157.4688,124.9844 L157.4688,127.7031 Q156.8438,127.125 156.25,126.8594 Q155.6563,126.5781 155.0313,126.5781 Q153.6875,126.5781 153,127.6563 Q152.3125,128.7188 152.3125,130.8125 Q152.3125,132.9063 153,133.9844 Q153.6875,135.0469 155.0313,135.0469 Q155.6563,135.0469 156.25,134.7813 Q156.8438,134.5 157.4688,133.9219 L157.4688,136.6406 Z " fill="#000000"/><text fill="#000000" font-family="sans-serif" font-size="14" lengthAdjust="spacing" textLength="30.7959" x="168.5" y="135.8467">Role</text><line style="stroke:#181818;stroke-width:0.5;" x1="140.5" x2="201.2959" y1="147" y2="147"/><line style="stroke:#181818;stroke-width:0.5;" x1="140.5" x2="201.2959" y1="155" y2="155"/></g><!--class Permission--><g class="entity" data-entity="Permission" data-source-line="3" data-uid="ent0004" id="entity_Permission"><rect fill="#F1F1F1" height="48" rx="2.5" ry="2.5" style="stroke:#181818;stroke-width:0.5;" width="108.2549" x="117" y="223"/><ellipse cx="132" cy="239" fill="#ADD1B2" rx="11" ry="11" style="stroke:#181818;stroke-width:1;"/><path d="M134.9688,244.6406 Q134.3906,244.9375 133.75,245.0781 Q133.1094,245.2344 132.4063,245.2344 Q129.9063,245.2344 128.5781,243.5938 Q127.2656,241.9375 127.2656,238.8125 Q127.2656,235.6875 128.5781,234.0313 Q129.9063,232.375 132.4063,232.375 Q133.1094,232.375 133.75,232.5313 Q134.4063,232.6875 134.9688,232.9844 L134.9688,235.7031 Q134.3438,235.125 133.75,234.8594 Q133.1563,234.5781 132.5313,234.5781 Q131.1875,234.5781 130.5,235.6563 Q129.8125,236.7188 129.8125,238.8125 Q129.8125,240.9063 130.5,241.9844 Q131.1875,243.0469 132.5313,243.0469 Q133.1563,243.0469 133.75,242.7813 Q134.3438,242.5 134.9688,241.9219 L134.9688,244.6406 Z " fill="#000000"/><text fill="#000000" font-family="sans-serif" font-size="14" lengthAdjust="spacing" textLength="76.2549" x="146" y="243.8467">Permission</text><line style="stroke:#181818;stroke-width:0.5;" x1="118" x2="224.2549" y1="255" y2="255"/><line style="stroke:#181818;stroke-width:0.5;" x1="118" x2="224.2549" y1="263" y2="263"/></g><!--class View--><g class="entity" data-entity="View" data-source-line="4" data-uid="ent0005" id="entity_View"><rect fill="#F1F1F1" height="48" rx="2.5" ry="2.5" style="stroke:#181818;stroke-width:0.5;" width="65.5303" x="138" y="331"/><ellipse cx="153" cy="347" fill="#ADD1B2" rx="11" ry="11" style="stroke:#181818;stroke-width:1;"/><path d="M155.9688,352.6406 Q155.3906,352.9375 154.75,353.0781 Q154.1094,353.2344 153.4063,353.2344 Q150.9063,353.2344 149.5781,351.5938 Q148.2656,349.9375 148.2656,346.8125 Q148.2656,343.6875 149.5781,342.0313 Q150.9063,340.375 153.4063,340.375 Q154.1094,340.375 154.75,340.5313 Q155.4063,340.6875 155.9688,340.9844 L155.9688,343.7031 Q155.3438,343.125 154.75,342.8594 Q154.1563,342.5781 153.5313,342.5781 Q152.1875,342.5781 151.5,343.6563 Q150.8125,344.7188 150.8125,346.8125 Q150.8125,348.9063 151.5,349.9844 Q152.1875,351.0469 153.5313,351.0469 Q154.1563,351.0469 154.75,350.7813 Q155.3438,350.5 155.9688,349.9219 L155.9688,352.6406 Z " fill="#000000"/><text fill="#000000" font-family="sans-serif" font-size="14" lengthAdjust="spacing" textLength="33.5303" x="167" y="351.8467">View</text><line style="stroke:#181818;stroke-width:0.5;" x1="139" x2="202.5303" y1="363" y2="363"/><line style="stroke:#181818;stroke-width:0.5;" x1="139" x2="202.5303" y1="371" y2="371"/></g><!--class Table--><g class="entity" data-entity="Table" data-source-line="5" data-uid="ent0006" id="entity_Table"><rect fill="#F1F1F1" height="48" rx="2.5" ry="2.5" style="stroke:#181818;stroke-width:0.5;" width="70.5205" x="135.5" y="439"/><ellipse cx="150.5" cy="455" fill="#ADD1B2" rx="11" ry="11" style="stroke:#181818;stroke-width:1;"/><path d="M153.4688,460.6406 Q152.8906,460.9375 152.25,461.0781 Q151.6094,461.2344 150.9063,461.2344 Q148.4063,461.2344 147.0781,459.5938 Q145.7656,457.9375 145.7656,454.8125 Q145.7656,451.6875 147.0781,450.0313 Q148.4063,448.375 150.9063,448.375 Q151.6094,448.375 152.25,448.5313 Q152.9063,448.6875 153.4688,448.9844 L153.4688,451.7031 Q152.8438,451.125 152.25,450.8594 Q151.6563,450.5781 151.0313,450.5781 Q149.6875,450.5781 149,451.6563 Q148.3125,452.7188 148.3125,454.8125 Q148.3125,456.9063 149,457.9844 Q149.6875,459.0469 151.0313,459.0469 Q151.6563,459.0469 152.25,458.7813 Q152.8438,458.5 153.4688,457.9219 L153.4688,460.6406 Z " fill="#000000"/><text fill="#000000" font-family="sans-serif" font-size="14" lengthAdjust="spacing" textLength="38.5205" x="164.5" y="459.8467">Table</text><line style="stroke:#181818;stroke-width:0.5;" x1="136.5" x2="205.0205" y1="471" y2="471"/><line style="stroke:#181818;stroke-width:0.5;" x1="136.5" x2="205.0205" y1="479" y2="479"/></g><!--class Schema--><g class="entity" data-entity="Schema" data-source-line="6" data-uid="ent0007" id="entity_Schema"><rect fill="#F1F1F1" height="48" rx="2.5" ry="2.5" style="stroke:#181818;stroke-width:0.5;" width="88.2871" x="12" y="439"/><ellipse cx="27" cy="455" fill="#ADD1B2" rx="11" ry="11" style="stroke:#181818;stroke-width:1;"/><path d="M29.9688,460.6406 Q29.3906,460.9375 28.75,461.0781 Q28.1094,461.2344 27.4063,461.2344 Q24.9063,461.2344 23.5781,459.5938 Q22.2656,457.9375 22.2656,454.8125 Q22.2656,451.6875 23.5781,450.0313 Q24.9063,448.375 27.4063,448.375 Q28.1094,448.375 28.75,448.5313 Q29.4063,448.6875 29.9688,448.9844 L29.9688,451.7031 Q29.3438,451.125 28.75,450.8594 Q28.1563,450.5781 27.5313,450.5781 Q26.1875,450.5781 25.5,451.6563 Q24.8125,452.7188 24.8125,454.8125 Q24.8125,456.9063 25.5,457.9844 Q26.1875,459.0469 27.5313,459.0469 Q28.1563,459.0469 28.75,458.7813 Q29.3438,458.5 29.9688,457.9219 L29.9688,460.6406 Z " fill="#000000"/><text fill="#000000" font-family="sans-serif" font-size="14" lengthAdjust="spacing" textLength="56.2871" x="41" y="459.8467">Schema</text><line style="stroke:#181818;stroke-width:0.5;" x1="13" x2="99.2871" y1="471" y2="471"/><line style="stroke:#181818;stroke-width:0.5;" x1="13" x2="99.2871" y1="479" y2="479"/></g><!--class Database--><g class="entity" data-entity="Database" data-source-line="7" data-uid="ent0008" id="entity_Database"><rect fill="#F1F1F1" height="48" rx="2.5" ry="2.5" style="stroke:#181818;stroke-width:0.5;" width="98.8008" x="241.5" y="439"/><ellipse cx="256.5" cy="455" fill="#ADD1B2" rx="11" ry="11" style="stroke:#181818;stroke-width:1;"/><path d="M259.4688,460.6406 Q258.8906,460.9375 258.25,461.0781 Q257.6094,461.2344 256.9063,461.2344 Q254.4063,461.2344 253.0781,459.5938 Q251.7656,457.9375 251.7656,454.8125 Q251.7656,451.6875 253.0781,450.0313 Q254.4063,448.375 256.9063,448.375 Q257.6094,448.375 258.25,448.5313 Q258.9063,448.6875 259.4688,448.9844 L259.4688,451.7031 Q258.8438,451.125 258.25,450.8594 Q257.6563,450.5781 257.0313,450.5781 Q255.6875,450.5781 255,451.6563 Q254.3125,452.7188 254.3125,454.8125 Q254.3125,456.9063 255,457.9844 Q255.6875,459.0469 257.0313,459.0469 Q257.6563,459.0469 258.25,458.7813 Q258.8438,458.5 259.4688,457.9219 L259.4688,460.6406 Z " fill="#000000"/><text fill="#000000" font-family="sans-serif" font-size="14" lengthAdjust="spacing" textLength="66.8008" x="270.5" y="459.8467">Database</text><line style="stroke:#181818;stroke-width:0.5;" x1="242.5" x2="339.3008" y1="471" y2="471"/><line style="stroke:#181818;stroke-width:0.5;" x1="242.5" x2="339.3008" y1="479" y2="479"/></g><!--class Trigger--><g class="entity" data-entity="Trigger" data-source-line="8" data-uid="ent0009" id="entity_Trigger"><rect fill="#F1F1F1" height="48" rx="2.5" ry="2.5" style="stroke:#181818;stroke-width:0.5;" width="82.3398" x="7" y="547"/><ellipse cx="22" cy="563" fill="#ADD1B2" rx="11" ry="11" style="stroke:#181818;stroke-width:1;"/><path d="M24.9688,568.6406 Q24.3906,568.9375 23.75,569.0781 Q23.1094,569.2344 22.4063,569.2344 Q19.9063,569.2344 18.5781,567.5938 Q17.2656,565.9375 17.2656,562.8125 Q17.2656,559.6875 18.5781,558.0313 Q19.9063,556.375 22.4063,556.375 Q23.1094,556.375 23.75,556.5313 Q24.4063,556.6875 24.9688,556.9844 L24.9688,559.7031 Q24.3438,559.125 23.75,558.8594 Q23.1563,558.5781 22.5313,558.5781 Q21.1875,558.5781 20.5,559.6563 Q19.8125,560.7188 19.8125,562.8125 Q19.8125,564.9063 20.5,565.9844 Q21.1875,567.0469 22.5313,567.0469 Q23.1563,567.0469 23.75,566.7813 Q24.3438,566.5 24.9688,565.9219 L24.9688,568.6406 Z " fill="#000000"/><text fill="#000000" font-family="sans-serif" font-size="14" lengthAdjust="spacing" textLength="50.3398" x="36" y="567.8467">Trigger</text><line style="stroke:#181818;stroke-width:0.5;" x1="8" x2="88.3398" y1="579" y2="579"/><line style="stroke:#181818;stroke-width:0.5;" x1="8" x2="88.3398" y1="587" y2="587"/></g><!--class Attribute--><g class="entity" data-entity="Attribute" data-source-line="9" data-uid="ent0010" id="entity_Attribute"><rect fill="#F1F1F1" height="48" rx="2.5" ry="2.5" style="stroke:#181818;stroke-width:0.5;" width="94.0635" x="124" y="547"/><ellipse cx="139" cy="563" fill="#ADD1B2" rx="11" ry="11" style="stroke:#181818;stroke-width:1;"/><path d="M141.9688,568.6406 Q141.3906,568.9375 140.75,569.0781 Q140.1094,569.2344 139.4063,569.2344 Q136.9063,569.2344 135.5781,567.5938 Q134.2656,565.9375 134.2656,562.8125 Q134.2656,559.6875 135.5781,558.0313 Q136.9063,556.375 139.4063,556.375 Q140.1094,556.375 140.75,556.5313 Q141.4063,556.6875 141.9688,556.9844 L141.9688,559.7031 Q141.3438,559.125 140.75,558.8594 Q140.1563,558.5781 139.5313,558.5781 Q138.1875,558.5781 137.5,559.6563 Q136.8125,560.7188 136.8125,562.8125 Q136.8125,564.9063 137.5,565.9844 Q138.1875,567.0469 139.5313,567.0469 Q140.1563,567.0469 140.75,566.7813 Q141.3438,566.5 141.9688,565.9219 L141.9688,568.6406 Z " fill="#000000"/><text fill="#000000" font-family="sans-serif" font-size="14" lengthAdjust="spacing" textLength="62.0635" x="153" y="567.8467">Attribute</text><line style="stroke:#181818;stroke-width:0.5;" x1="125" x2="217.0635" y1="579" y2="579"/><line style="stroke:#181818;stroke-width:0.5;" x1="125" x2="217.0635" y1="587" y2="587"/></g><!--class Constraint--><g class="entity" data-entity="Constraint" data-source-line="10" data-uid="ent0011" id="entity_Constraint"><rect fill="#F1F1F1" height="48" rx="2.5" ry="2.5" style="stroke:#181818;stroke-width:0.5;" width="104.584" x="109.5" y="655"/><ellipse cx="124.5" cy="671" fill="#ADD1B2" rx="11" ry="11" style="stroke:#181818;stroke-width:1;"/><path d="M127.4688,676.6406 Q126.8906,676.9375 126.25,677.0781 Q125.6094,677.2344 124.9063,677.2344 Q122.4063,677.2344 121.0781,675.5938 Q119.7656,673.9375 119.7656,670.8125 Q119.7656,667.6875 121.0781,666.0313 Q122.4063,664.375 124.9063,664.375 Q125.6094,664.375 126.25,664.5313 Q126.9063,664.6875 127.4688,664.9844 L127.4688,667.7031 Q126.8438,667.125 126.25,666.8594 Q125.6563,666.5781 125.0313,666.5781 Q123.6875,666.5781 123,667.6563 Q122.3125,668.7188 122.3125,670.8125 Q122.3125,672.9063 123,673.9844 Q123.6875,675.0469 125.0313,675.0469 Q125.6563,675.0469 126.25,674.7813 Q126.8438,674.5 127.4688,673.9219 L127.4688,676.6406 Z " fill="#000000"/><text fill="#000000" font-family="sans-serif" font-size="14" lengthAdjust="spacing" textLength="72.584" x="138.5" y="675.8467">Constraint</text><line style="stroke:#181818;stroke-width:0.5;" x1="110.5" x2="213.084" y1="687" y2="687"/><line style="stroke:#181818;stroke-width:0.5;" x1="110.5" x2="213.084" y1="695" y2="695"/></g><!--class Key--><g class="entity" data-entity="Key" data-source-line="11" data-uid="ent0012" id="entity_Key"><rect fill="#F1F1F1" height="48" rx="2.5" ry="2.5" style="stroke:#181818;stroke-width:0.5;" width="58.0791" x="263" y="547"/><ellipse cx="278" cy="563" fill="#ADD1B2" rx="11" ry="11" style="stroke:#181818;stroke-width:1;"/><path d="M280.9688,568.6406 Q280.3906,568.9375 279.75,569.0781 Q279.1094,569.2344 278.4063,569.2344 Q275.9063,569.2344 274.5781,567.5938 Q273.2656,565.9375 273.2656,562.8125 Q273.2656,559.6875 274.5781,558.0313 Q275.9063,556.375 278.4063,556.375 Q279.1094,556.375 279.75,556.5313 Q280.4063,556.6875 280.9688,556.9844 L280.9688,559.7031 Q280.3438,559.125 279.75,558.8594 Q279.1563,558.5781 278.5313,558.5781 Q277.1875,558.5781 276.5,559.6563 Q275.8125,560.7188 275.8125,562.8125 Q275.8125,564.9063 276.5,565.9844 Q277.1875,567.0469 278.5313,567.0469 Q279.1563,567.0469 279.75,566.7813 Q280.3438,566.5 280.9688,565.9219 L280.9688,568.6406 Z " fill="#000000"/><text fill="#000000" font-family="sans-serif" font-size="14" lengthAdjust="spacing" textLength="26.0791" x="292" y="567.8467">Key</text><line style="stroke:#181818;stroke-width:0.5;" x1="264" x2="320.0791" y1="579" y2="579"/><line style="stroke:#181818;stroke-width:0.5;" x1="264" x2="320.0791" y1="587" y2="587"/></g><!--class Foreign--><g class="entity" data-entity="Foreign" data-source-line="12" data-uid="ent0013" id="entity_Foreign"><rect fill="#F1F1F1" height="48" rx="2.5" ry="2.5" style="stroke:#181818;stroke-width:0.5;" width="84.6367" x="249.5" y="655"/><ellipse cx="264.5" cy="671" fill="#ADD1B2" rx="11" ry="11" style="stroke:#181818;stroke-width:1;"/><path d="M267.4688,676.6406 Q266.8906,676.9375 266.25,677.0781 Q265.6094,677.2344 264.9063,677.2344 Q262.4063,677.2344 261.0781,675.5938 Q259.7656,673.9375 259.7656,670.8125 Q259.7656,667.6875 261.0781,666.0313 Q262.4063,664.375 264.9063,664.375 Q265.6094,664.375 266.25,664.5313 Q266.9063,664.6875 267.4688,664.9844 L267.4688,667.7031 Q266.8438,667.125 266.25,666.8594 Q265.6563,666.5781 265.0313,666.5781 Q263.6875,666.5781 263,667.6563 Q262.3125,668.7188 262.3125,670.8125 Q262.3125,672.9063 263,673.9844 Q263.6875,675.0469 265.0313,675.0469 Q265.6563,675.0469 266.25,674.7813 Q266.8438,674.5 267.4688,673.9219 L267.4688,676.6406 Z " fill="#000000"/><text fill="#000000" font-family="sans-serif" font-size="14" lengthAdjust="spacing" textLength="52.6367" x="278.5" y="675.8467">Foreign</text><line style="stroke:#181818;stroke-width:0.5;" x1="250.5" x2="333.1367" y1="687" y2="687"/><line style="stroke:#181818;stroke-width:0.5;" x1="250.5" x2="333.1367" y1="695" y2="695"/></g><!--class Primary--><g class="entity" data-entity="Primary" data-source-line="13" data-uid="ent0014" id="entity_Primary"><rect fill="#F1F1F1" height="48" rx="2.5" ry="2.5" style="stroke:#181818;stroke-width:0.5;" width="86.3457" x="370" y="655"/><ellipse cx="385" cy="671" fill="#ADD1B2" rx="11" ry="11" style="stroke:#181818;stroke-width:1;"/><path d="M387.9688,676.6406 Q387.3906,676.9375 386.75,677.0781 Q386.1094,677.2344 385.4063,677.2344 Q382.9063,677.2344 381.5781,675.5938 Q380.2656,673.9375 380.2656,670.8125 Q380.2656,667.6875 381.5781,666.0313 Q382.9063,664.375 385.4063,664.375 Q386.1094,664.375 386.75,664.5313 Q387.4063,664.6875 387.9688,664.9844 L387.9688,667.7031 Q387.3438,667.125 386.75,666.8594 Q386.1563,666.5781 385.5313,666.5781 Q384.1875,666.5781 383.5,667.6563 Q382.8125,668.7188 382.8125,670.8125 Q382.8125,672.9063 383.5,673.9844 Q384.1875,675.0469 385.5313,675.0469 Q386.1563,675.0469 386.75,674.7813 Q387.3438,674.5 387.9688,673.9219 L387.9688,676.6406 Z " fill="#000000"/><text fill="#000000" font-family="sans-serif" font-size="14" lengthAdjust="spacing" textLength="54.3457" x="399" y="675.8467">Primary</text><line style="stroke:#181818;stroke-width:0.5;" x1="371" x2="455.3457" y1="687" y2="687"/><line style="stroke:#181818;stroke-width:0.5;" x1="371" x2="455.3457" y1="695" y2="695"/></g><!--link User to Role--><g class="link" data-entity-1="User" data-entity-2="Role" data-source-line="15" data-uid="lnk15" id="link_User_Role"><path codeLine="15" d="M171,55 C171,72.66 171,96.94 171,114.68" fill="none" id="User-Role" style="stroke:#181818;stroke-width:1;"/></g><!--link Role to Permission--><g class="link" data-entity-1="Role" data-entity-2="Permission" data-source-line="16" data-uid="lnk16" id="link_Role_Permission"><path codeLine="16" d="M171,163 C171,180.66 171,204.94 171,222.68" fill="none" id="Role-Permission" style="stroke:#181818;stroke-width:1;"/></g><!--link Permission to View--><g class="link" data-entity-1="Permission" data-entity-2="View" data-source-line="17" data-uid="lnk17" id="link_Permission_View"><path codeLine="17" d="M171,271 C171,288.66 171,312.94 171,330.68" fill="none" id="Permission-View" style="stroke:#181818;stroke-width:1;"/></g><!--reverse link View to Table--><g class="link" data-entity-1="View" data-entity-2="Table" data-source-line="18" data-uid="lnk18" id="link_View_Table"><path codeLine="18" d="M171,391 C171,408.66 171,420.94 171,438.68" fill="none" id="View-backto-Table" style="stroke:#181818;stroke-width:1;"/><polygon fill="#181818" points="171,379,167,385,171,391,175,385,171,379" style="stroke:#181818;stroke-width:1;"/></g><!--link Schema to Table--><g class="link" data-entity-1="Schema" data-entity-2="Table" data-source-line="19" data-uid="lnk20" id="link_Schema_Table"><path codeLine="19" d="M100.02,463 C111.76,463 123.5,463 135.23,463" fill="none" id="Schema-Table" style="stroke:#181818;stroke-width:1;"/></g><!--link Table to Database--><g class="link" data-entity-1="Table" data-entity-2="Database" data-source-line="20" data-uid="lnk21" id="link_Table_Database"><path codeLine="20" d="M206.62,463 C218.16,463 229.7,463 241.23,463" fill="none" id="Table-Database" style="stroke:#181818;stroke-width:1;"/></g><!--reverse link Table to Trigger--><g class="link" data-entity-1="Table" data-entity-2="Trigger" data-source-line="21" data-uid="lnk22" id="link_Table_Trigger"><path codeLine="21" d="M135.2202,494.8343 C114.7302,512.4943 95.64,528.94 75.06,546.68" fill="none" id="Table-backto-Trigger" style="stroke:#181818;stroke-width:1;"/><polygon fill="none" points="144.31,487,137.1537,487.8872,135.2202,494.8343,142.3766,493.9471,144.31,487" style="stroke:#181818;stroke-width:1;"/></g><!--reverse link Table to Attribute--><g class="link" data-entity-1="Table" data-entity-2="Attribute" data-source-line="22" data-uid="lnk23" id="link_Table_Attribute"><path codeLine="22" d="M171,499 C171,516.66 171,528.94 171,546.68" fill="none" id="Table-backto-Attribute" style="stroke:#181818;stroke-width:1;"/><polygon fill="#181818" points="171,487,167,493,171,499,175,493,171,487" style="stroke:#181818;stroke-width:1;"/></g><!--reverse link Table to Key--><g class="link" data-entity-1="Table" data-entity-2="Key" data-source-line="23" data-uid="lnk24" id="link_Table_Key"><path codeLine="23" d="M206.2845,494.9093 C226.4345,512.5693 245.13,528.94 265.38,546.68" fill="none" id="Table-backto-Key" style="stroke:#181818;stroke-width:1;"/><polygon fill="#181818" points="197.26,487,199.1358,493.9629,206.2845,494.9093,204.4087,487.9465,197.26,487" style="stroke:#181818;stroke-width:1;"/></g><!--reverse link Attribute to Constraint--><g class="link" data-entity-1="Attribute" data-entity-2="Constraint" data-source-line="24" data-uid="lnk25" id="link_Attribute_Constraint"><path codeLine="24" d="M168.0344,606.9569 C166.5344,624.6169 165.49,636.94 163.98,654.68" fill="none" id="Attribute-backto-Constraint" style="stroke:#181818;stroke-width:1;"/><polygon fill="none" points="169.05,595,164.5566,600.6399,168.0344,606.9569,172.5279,601.317,169.05,595" style="stroke:#181818;stroke-width:1;"/></g><!--reverse link Key to Foreign--><g class="link" data-entity-1="Key" data-entity-2="Foreign" data-source-line="25" data-uid="lnk26" id="link_Key_Foreign"><path codeLine="25" d="M292,613 C292,630.66 292,636.94 292,654.68" fill="none" id="Key-backto-Foreign" style="stroke:#181818;stroke-width:1;"/><polygon fill="none" points="292,595,286,613,298,613,292,595" style="stroke:#181818;stroke-width:1;"/></g><!--reverse link Key to Primary--><g class="link" data-entity-1="Key" data-entity-2="Primary" data-source-line="26" data-uid="lnk27" id="link_Key_Primary"><path codeLine="26" d="M331.7968,606.864 C351.9468,624.524 366.13,636.94 386.38,654.68" fill="none" id="Key-backto-Primary" style="stroke:#181818;stroke-width:1;"/><polygon fill="none" points="318.26,595,327.8421,611.3763,335.7515,602.3518,318.26,595" style="stroke:#181818;stroke-width:1;"/></g><!--SRC=[JO_12i8m38RlUugUXRw15r6yU1awlMSZRe5jXRGY0n_UfakxNSAVBqtw_zq8tfkdHwww9EzkH9KryaJUaviLl0Y_AXjeoxj7D-04sbmWG0i-pngclY_7Jo4mjP-GfsSt-y10Sr1mmqNLrJ5Idt-kcIRWfQh4gR5sjIb5cftHJSeW6PPY3h5RFQTgx8ZlOBDrPT7h4669i68dgnfZ9N9iYx8nSLzusji5Z4Dp_4MManMWuVu0]--></g></svg>