<svg xmlns="http://www.w3.org/2000/svg" xmlns:xlink="http://www.w3.org/1999/xlink" contentStyleType="text/css" data-diagram-type="CLASS" height="710px" preserveAspectRatio="none" style="width:594px;height:710px;background:#FFFFFF;" version="1.1" viewBox="0 0 594 710" width="594px" zoomAndPan="magnify"><defs/><g><!--class User--><g class="entity" data-entity="User" data-source-line="1" data-uid="ent0002" id="entity_User"><rect fill="#F1F1F1" height="48" rx="2.5" ry="2.5" style="stroke:#181818;stroke-width:0.5;" width="63.9102" x="143" y="7"/><ellipse cx="158" cy="23" fill="#ADD1B2" rx="11" ry="11" style="stroke:#181818;stroke-width:1;"/><path d="M160.9688,28.6406 Q160.3906,28.9375 159.75,29.0781 Q159.1094,29.2344 158.4063,29.2344 Q155.9063,29.2344 154.5781,27.5938 Q153.2656,25.9375 153.2656,22.8125 Q153.2656,19.6875 154.5781,18.0313 Q155.9063,16.375 158.4063,16.375 Q159.1094,16.375 159.75,16.5313 Q160.4063,16.6875 160.9688,16.9844 L160.9688,19.7031 Q160.3438,19.125 159.75,18.8594 Q159.1563,18.5781 158.5313,18.5781 Q157.1875,18.5781 156.5,19.6563 Q155.8125,20.7188 155.8125,22.8125 Q155.8125,24.9063 156.5,25.9844 Q157.1875,27.0469 158.5313,27.0469 Q159.1563,27.0469 159.75,26.7813 Q160.3438,26.5 160.9688,25.9219 L160.9688,28.6406 Z " fill="#000000"/><text fill="#000000" font-family="sans-serif" font-size="14" lengthAdjust="spacing" textLength="31.9102" x="172" y="27.8467">User</text><line style="stroke:#181818;stroke-width:0.5;" x1="144" x2="205.9102" y1="39" y2="39"/><line style="stroke:#181818;stroke-width:0.5;" x1="144" x2="205.9102" y1="47" y2="47"/></g><!--class Role--><g class="entity" data-entity="Role" data-source-line="2" data-uid="ent0003" id="entity_Role"><rect fill="#F1F1F1" height="48" rx="2.5" ry="2.5" style="stroke:#181818;stroke-width:0.5;" width="62.7959" x="143.5" y="115"/><ellipse cx="158.5" cy="131" fill="#ADD1B2" rx="11" ry="11" style="stroke:#181818;stroke-width:1;"/><path d="M161.4688,136.6406 Q160.8906,136.9375 160.25,137.0781 Q159.6094,137.2344 158.9063,137.2344 Q156.4063,137.2344 155.0781,135.5938 Q153.7656,133.9375 153.7656,130.8125 Q153.7656,127.6875 155.0781,126.0313 Q156.4063,124.375 158.9063,124.375 Q159.6094,124.375 160.25,124.5313 Q160.9063,124.6875 161.4688,124.9844 L161.4688,127.7031 Q160.8438,127.125 160.25,126.8594 Q159.6563,126.5781 159.0313,126.5781 Q157.6875,126.5781 157,127.6563 Q156.3125,128.7188 156.3125,130.8125 Q156.3125,132.9063 157,133.9844 Q157.6875,135.0469 159.0313,135.0469 Q159.6563,135.0469 160.25,134.7813 Q160.8438,134.5 161.4688,133.9219 L161.4688,136.6406 Z " fill="#000000"/><text fill="#000000" font-family="sans-serif" font-size="14" lengthAdjust="spacing" textLength="30.7959" x="172.5" y="135.8467">Role</text><line style="stroke:#181818;stroke-width:0.5;" x1="144.5" x2="205.2959" y1="147" y2="147"/><line style="stroke:#181818;stroke-width:0.5;" x1="144.5" x2="205.2959" y1="155" y2="155"/></g><!--class Permission--><g class="entity" data-entity="Permission" data-source-line="3" data-uid="ent0004" id="entity_Permission"><rect fill="#F1F1F1" height="48" rx="2.5" ry="2.5" style="stroke:#181818;stroke-width:0.5;" width="108.2549" x="121" y="223"/><ellipse cx="136" cy="239" fill="#ADD1B2" rx="11" ry="11" style="stroke:#181818;stroke-width:1;"/><path d="M138.9688,244.6406 Q138.3906,244.9375 137.75,245.0781 Q137.1094,245.2344 136.4063,245.2344 Q133.9063,245.2344 132.5781,243.5938 Q131.2656,241.9375 131.2656,238.8125 Q131.2656,235.6875 132.5781,234.0313 Q133.9063,232.375 136.4063,232.375 Q137.1094,232.375 137.75,232.5313 Q138.4063,232.6875 138.9688,232.9844 L138.9688,235.7031 Q138.3438,235.125 137.75,234.8594 Q137.1563,234.5781 136.5313,234.5781 Q135.1875,234.5781 134.5,235.6563 Q133.8125,236.7188 133.8125,238.8125 Q133.8125,240.9063 134.5,241.9844 Q135.1875,243.0469 136.5313,243.0469 Q137.1563,243.0469 137.75,242.7813 Q138.3438,242.5 138.9688,241.9219 L138.9688,244.6406 Z " fill="#000000"/><text fill="#000000" font-family="sans-serif" font-size="14" lengthAdjust="spacing" textLength="76.2549" x="150" y="243.8467">Permission</text><line style="stroke:#181818;stroke-width:0.5;" x1="122" x2="228.2549" y1="255" y2="255"/><line style="stroke:#181818;stroke-width:0.5;" x1="122" x2="228.2549" y1="263" y2="263"/></g><!--class View--><g class="entity" data-entity="View" data-source-line="4" data-uid="ent0005" id="entity_View"><rect fill="#F1F1F1" height="48" rx="2.5" ry="2.5" style="stroke:#181818;stroke-width:0.5;" width="65.5303" x="142" y="331"/><ellipse cx="157" cy="347" fill="#ADD1B2" rx="11" ry="11" style="stroke:#181818;stroke-width:1;"/><path d="M159.9688,352.6406 Q159.3906,352.9375 158.75,353.0781 Q158.1094,353.2344 157.4063,353.2344 Q154.9063,353.2344 153.5781,351.5938 Q152.2656,349.9375 152.2656,346.8125 Q152.2656,343.6875 153.5781,342.0313 Q154.9063,340.375 157.4063,340.375 Q158.1094,340.375 158.75,340.5313 Q159.4063,340.6875 159.9688,340.9844 L159.9688,343.7031 Q159.3438,343.125 158.75,342.8594 Q158.1563,342.5781 157.5313,342.5781 Q156.1875,342.5781 155.5,343.6563 Q154.8125,344.7188 154.8125,346.8125 Q154.8125,348.9063 155.5,349.9844 Q156.1875,351.0469 157.5313,351.0469 Q158.1563,351.0469 158.75,350.7813 Q159.3438,350.5 159.9688,349.9219 L159.9688,352.6406 Z " fill="#000000"/><text fill="#000000" font-family="sans-serif" font-size="14" lengthAdjust="spacing" textLength="33.5303" x="171" y="351.8467">View</text><line style="stroke:#181818;stroke-width:0.5;" x1="143" x2="206.5303" y1="363" y2="363"/><line style="stroke:#181818;stroke-width:0.5;" x1="143" x2="206.5303" y1="371" y2="371"/></g><!--class Table--><g class="entity" data-entity="Table" data-source-line="5" data-uid="ent0006" id="entity_Table"><rect fill="#F1F1F1" height="48" rx="2.5" ry="2.5" style="stroke:#181818;stroke-width:0.5;" width="70.5205" x="198.5" y="439"/><ellipse cx="213.5" cy="455" fill="#ADD1B2" rx="11" ry="11" style="stroke:#181818;stroke-width:1;"/><path d="M216.4688,460.6406 Q215.8906,460.9375 215.25,461.0781 Q214.6094,461.2344 213.9063,461.2344 Q211.4063,461.2344 210.0781,459.5938 Q208.7656,457.9375 208.7656,454.8125 Q208.7656,451.6875 210.0781,450.0313 Q211.4063,448.375 213.9063,448.375 Q214.6094,448.375 215.25,448.5313 Q215.9063,448.6875 216.4688,448.9844 L216.4688,451.7031 Q215.8438,451.125 215.25,450.8594 Q214.6563,450.5781 214.0313,450.5781 Q212.6875,450.5781 212,451.6563 Q211.3125,452.7188 211.3125,454.8125 Q211.3125,456.9063 212,457.9844 Q212.6875,459.0469 214.0313,459.0469 Q214.6563,459.0469 215.25,458.7813 Q215.8438,458.5 216.4688,457.9219 L216.4688,460.6406 Z " fill="#000000"/><text fill="#000000" font-family="sans-serif" font-size="14" lengthAdjust="spacing" textLength="38.5205" x="227.5" y="459.8467">Table</text><line style="stroke:#181818;stroke-width:0.5;" x1="199.5" x2="268.0205" y1="471" y2="471"/><line style="stroke:#181818;stroke-width:0.5;" x1="199.5" x2="268.0205" y1="479" y2="479"/></g><!--class Schema--><g class="entity" data-entity="Schema" data-source-line="6" data-uid="ent0007" id="entity_Schema"><rect fill="#F1F1F1" height="48" rx="2.5" ry="2.5" style="stroke:#181818;stroke-width:0.5;" width="88.2871" x="7" y="547"/><ellipse cx="22" cy="563" fill="#ADD1B2" rx="11" ry="11" style="stroke:#181818;stroke-width:1;"/><path d="M24.9688,568.6406 Q24.3906,568.9375 23.75,569.0781 Q23.1094,569.2344 22.4063,569.2344 Q19.9063,569.2344 18.5781,567.5938 Q17.2656,565.9375 17.2656,562.8125 Q17.2656,559.6875 18.5781,558.0313 Q19.9063,556.375 22.4063,556.375 Q23.1094,556.375 23.75,556.5313 Q24.4063,556.6875 24.9688,556.9844 L24.9688,559.7031 Q24.3438,559.125 23.75,558.8594 Q23.1563,558.5781 22.5313,558.5781 Q21.1875,558.5781 20.5,559.6563 Q19.8125,560.7188 19.8125,562.8125 Q19.8125,564.9063 20.5,565.9844 Q21.1875,567.0469 22.5313,567.0469 Q23.1563,567.0469 23.75,566.7813 Q24.3438,566.5 24.9688,565.9219 L24.9688,568.6406 Z " fill="#000000"/><text fill="#000000" font-family="sans-serif" font-size="14" lengthAdjust="spacing" textLength="56.2871" x="36" y="567.8467">Schema</text><line style="stroke:#181818;stroke-width:0.5;" x1="8" x2="94.2871" y1="579" y2="579"/><line style="stroke:#181818;stroke-width:0.5;" x1="8" x2="94.2871" y1="587" y2="587"/></g><!--class Database--><g class="entity" data-entity="Database" data-source-line="7" data-uid="ent0008" id="entity_Database"><rect fill="#F1F1F1" height="48" rx="2.5" ry="2.5" style="stroke:#181818;stroke-width:0.5;" width="98.8008" x="243.5" y="331"/><ellipse cx="258.5" cy="347" fill="#ADD1B2" rx="11" ry="11" style="stroke:#181818;stroke-width:1;"/><path d="M261.4688,352.6406 Q260.8906,352.9375 260.25,353.0781 Q259.6094,353.2344 258.9063,353.2344 Q256.4063,353.2344 255.0781,351.5938 Q253.7656,349.9375 253.7656,346.8125 Q253.7656,343.6875 255.0781,342.0313 Q256.4063,340.375 258.9063,340.375 Q259.6094,340.375 260.25,340.5313 Q260.9063,340.6875 261.4688,340.9844 L261.4688,343.7031 Q260.8438,343.125 260.25,342.8594 Q259.6563,342.5781 259.0313,342.5781 Q257.6875,342.5781 257,343.6563 Q256.3125,344.7188 256.3125,346.8125 Q256.3125,348.9063 257,349.9844 Q257.6875,351.0469 259.0313,351.0469 Q259.6563,351.0469 260.25,350.7813 Q260.8438,350.5 261.4688,349.9219 L261.4688,352.6406 Z " fill="#000000"/><text fill="#000000" font-family="sans-serif" font-size="14" lengthAdjust="spacing" textLength="66.8008" x="272.5" y="351.8467">Database</text><line style="stroke:#181818;stroke-width:0.5;" x1="244.5" x2="341.3008" y1="363" y2="363"/><line style="stroke:#181818;stroke-width:0.5;" x1="244.5" x2="341.3008" y1="371" y2="371"/></g><!--class Trigger--><g class="entity" data-entity="Trigger" data-source-line="8" data-uid="ent0009" id="entity_Trigger"><rect fill="#F1F1F1" height="48" rx="2.5" ry="2.5" style="stroke:#181818;stroke-width:0.5;" width="82.3398" x="130" y="547"/><ellipse cx="145" cy="563" fill="#ADD1B2" rx="11" ry="11" style="stroke:#181818;stroke-width:1;"/><path d="M147.9688,568.6406 Q147.3906,568.9375 146.75,569.0781 Q146.1094,569.2344 145.4063,569.2344 Q142.9063,569.2344 141.5781,567.5938 Q140.2656,565.9375 140.2656,562.8125 Q140.2656,559.6875 141.5781,558.0313 Q142.9063,556.375 145.4063,556.375 Q146.1094,556.375 146.75,556.5313 Q147.4063,556.6875 147.9688,556.9844 L147.9688,559.7031 Q147.3438,559.125 146.75,558.8594 Q146.1563,558.5781 145.5313,558.5781 Q144.1875,558.5781 143.5,559.6563 Q142.8125,560.7188 142.8125,562.8125 Q142.8125,564.9063 143.5,565.9844 Q144.1875,567.0469 145.5313,567.0469 Q146.1563,567.0469 146.75,566.7813 Q147.3438,566.5 147.9688,565.9219 L147.9688,568.6406 Z " fill="#000000"/><text fill="#000000" font-family="sans-serif" font-size="14" lengthAdjust="spacing" textLength="50.3398" x="159" y="567.8467">Trigger</text><line style="stroke:#181818;stroke-width:0.5;" x1="131" x2="211.3398" y1="579" y2="579"/><line style="stroke:#181818;stroke-width:0.5;" x1="131" x2="211.3398" y1="587" y2="587"/></g><!--class Attributes--><g class="entity" data-entity="Attributes" data-source-line="9" data-uid="ent0010" id="entity_Attributes"><rect fill="#F1F1F1" height="48" rx="2.5" ry="2.5" style="stroke:#181818;stroke-width:0.5;" width="101.3574" x="247.5" y="547"/><ellipse cx="262.5" cy="563" fill="#ADD1B2" rx="11" ry="11" style="stroke:#181818;stroke-width:1;"/><path d="M265.4688,568.6406 Q264.8906,568.9375 264.25,569.0781 Q263.6094,569.2344 262.9063,569.2344 Q260.4063,569.2344 259.0781,567.5938 Q257.7656,565.9375 257.7656,562.8125 Q257.7656,559.6875 259.0781,558.0313 Q260.4063,556.375 262.9063,556.375 Q263.6094,556.375 264.25,556.5313 Q264.9063,556.6875 265.4688,556.9844 L265.4688,559.7031 Q264.8438,559.125 264.25,558.8594 Q263.6563,558.5781 263.0313,558.5781 Q261.6875,558.5781 261,559.6563 Q260.3125,560.7188 260.3125,562.8125 Q260.3125,564.9063 261,565.9844 Q261.6875,567.0469 263.0313,567.0469 Q263.6563,567.0469 264.25,566.7813 Q264.8438,566.5 265.4688,565.9219 L265.4688,568.6406 Z " fill="#000000"/><text fill="#000000" font-family="sans-serif" font-size="14" lengthAdjust="spacing" textLength="69.3574" x="276.5" y="567.8467">Attributes</text><line style="stroke:#181818;stroke-width:0.5;" x1="248.5" x2="347.8574" y1="579" y2="579"/><line style="stroke:#181818;stroke-width:0.5;" x1="248.5" x2="347.8574" y1="587" y2="587"/></g><!--class Constraints--><g class="entity" data-entity="Constraints" data-source-line="10" data-uid="ent0011" id="entity_Constraints"><rect fill="#F1F1F1" height="48" rx="2.5" ry="2.5" style="stroke:#181818;stroke-width:0.5;" width="111.8779" x="233" y="655"/><ellipse cx="248" cy="671" fill="#ADD1B2" rx="11" ry="11" style="stroke:#181818;stroke-width:1;"/><path d="M250.9688,676.6406 Q250.3906,676.9375 249.75,677.0781 Q249.1094,677.2344 248.4063,677.2344 Q245.9063,677.2344 244.5781,675.5938 Q243.2656,673.9375 243.2656,670.8125 Q243.2656,667.6875 244.5781,666.0313 Q245.9063,664.375 248.4063,664.375 Q249.1094,664.375 249.75,664.5313 Q250.4063,664.6875 250.9688,664.9844 L250.9688,667.7031 Q250.3438,667.125 249.75,666.8594 Q249.1563,666.5781 248.5313,666.5781 Q247.1875,666.5781 246.5,667.6563 Q245.8125,668.7188 245.8125,670.8125 Q245.8125,672.9063 246.5,673.9844 Q247.1875,675.0469 248.5313,675.0469 Q249.1563,675.0469 249.75,674.7813 Q250.3438,674.5 250.9688,673.9219 L250.9688,676.6406 Z " fill="#000000"/><text fill="#000000" font-family="sans-serif" font-size="14" lengthAdjust="spacing" textLength="79.8779" x="262" y="675.8467">Constraints</text><line style="stroke:#181818;stroke-width:0.5;" x1="234" x2="343.8779" y1="687" y2="687"/><line style="stroke:#181818;stroke-width:0.5;" x1="234" x2="343.8779" y1="695" y2="695"/></g><!--class Key--><g class="entity" data-entity="Key" data-source-line="11" data-uid="ent0012" id="entity_Key"><rect fill="#F1F1F1" height="48" rx="2.5" ry="2.5" style="stroke:#181818;stroke-width:0.5;" width="58.0791" x="394" y="547"/><ellipse cx="409" cy="563" fill="#ADD1B2" rx="11" ry="11" style="stroke:#181818;stroke-width:1;"/><path d="M411.9688,568.6406 Q411.3906,568.9375 410.75,569.0781 Q410.1094,569.2344 409.4063,569.2344 Q406.9063,569.2344 405.5781,567.5938 Q404.2656,565.9375 404.2656,562.8125 Q404.2656,559.6875 405.5781,558.0313 Q406.9063,556.375 409.4063,556.375 Q410.1094,556.375 410.75,556.5313 Q411.4063,556.6875 411.9688,556.9844 L411.9688,559.7031 Q411.3438,559.125 410.75,558.8594 Q410.1563,558.5781 409.5313,558.5781 Q408.1875,558.5781 407.5,559.6563 Q406.8125,560.7188 406.8125,562.8125 Q406.8125,564.9063 407.5,565.9844 Q408.1875,567.0469 409.5313,567.0469 Q410.1563,567.0469 410.75,566.7813 Q411.3438,566.5 411.9688,565.9219 L411.9688,568.6406 Z " fill="#000000"/><text fill="#000000" font-family="sans-serif" font-size="14" lengthAdjust="spacing" textLength="26.0791" x="423" y="567.8467">Key</text><line style="stroke:#181818;stroke-width:0.5;" x1="395" x2="451.0791" y1="579" y2="579"/><line style="stroke:#181818;stroke-width:0.5;" x1="395" x2="451.0791" y1="587" y2="587"/></g><!--class Foreign--><g class="entity" data-entity="Foreign" data-source-line="12" data-uid="ent0013" id="entity_Foreign"><rect fill="#F1F1F1" height="48" rx="2.5" ry="2.5" style="stroke:#181818;stroke-width:0.5;" width="84.6367" x="380.5" y="655"/><ellipse cx="395.5" cy="671" fill="#ADD1B2" rx="11" ry="11" style="stroke:#181818;stroke-width:1;"/><path d="M398.4688,676.6406 Q397.8906,676.9375 397.25,677.0781 Q396.6094,677.2344 395.9063,677.2344 Q393.4063,677.2344 392.0781,675.5938 Q390.7656,673.9375 390.7656,670.8125 Q390.7656,667.6875 392.0781,666.0313 Q393.4063,664.375 395.9063,664.375 Q396.6094,664.375 397.25,664.5313 Q397.9063,664.6875 398.4688,664.9844 L398.4688,667.7031 Q397.8438,667.125 397.25,666.8594 Q396.6563,666.5781 396.0313,666.5781 Q394.6875,666.5781 394,667.6563 Q393.3125,668.7188 393.3125,670.8125 Q393.3125,672.9063 394,673.9844 Q394.6875,675.0469 396.0313,675.0469 Q396.6563,675.0469 397.25,674.7813 Q397.8438,674.5 398.4688,673.9219 L398.4688,676.6406 Z " fill="#000000"/><text fill="#000000" font-family="sans-serif" font-size="14" lengthAdjust="spacing" textLength="52.6367" x="409.5" y="675.8467">Foreign</text><line style="stroke:#181818;stroke-width:0.5;" x1="381.5" x2="464.1367" y1="687" y2="687"/><line style="stroke:#181818;stroke-width:0.5;" x1="381.5" x2="464.1367" y1="695" y2="695"/></g><!--class Primary--><g class="entity" data-entity="Primary" data-source-line="13" data-uid="ent0014" id="entity_Primary"><rect fill="#F1F1F1" height="48" rx="2.5" ry="2.5" style="stroke:#181818;stroke-width:0.5;" width="86.3457" x="501" y="655"/><ellipse cx="516" cy="671" fill="#ADD1B2" rx="11" ry="11" style="stroke:#181818;stroke-width:1;"/><path d="M518.9688,676.6406 Q518.3906,676.9375 517.75,677.0781 Q517.1094,677.2344 516.4063,677.2344 Q513.9063,677.2344 512.5781,675.5938 Q511.2656,673.9375 511.2656,670.8125 Q511.2656,667.6875 512.5781,666.0313 Q513.9063,664.375 516.4063,664.375 Q517.1094,664.375 517.75,664.5313 Q518.4063,664.6875 518.9688,664.9844 L518.9688,667.7031 Q518.3438,667.125 517.75,666.8594 Q517.1563,666.5781 516.5313,666.5781 Q515.1875,666.5781 514.5,667.6563 Q513.8125,668.7188 513.8125,670.8125 Q513.8125,672.9063 514.5,673.9844 Q515.1875,675.0469 516.5313,675.0469 Q517.1563,675.0469 517.75,674.7813 Q518.3438,674.5 518.9688,673.9219 L518.9688,676.6406 Z " fill="#000000"/><text fill="#000000" font-family="sans-serif" font-size="14" lengthAdjust="spacing" textLength="54.3457" x="530" y="675.8467">Primary</text><line style="stroke:#181818;stroke-width:0.5;" x1="502" x2="586.3457" y1="687" y2="687"/><line style="stroke:#181818;stroke-width:0.5;" x1="502" x2="586.3457" y1="695" y2="695"/></g><!--link User to Role--><g class="link" data-entity-1="User" data-entity-2="Role" data-source-line="15" data-uid="lnk15" id="link_User_Role"><path codeLine="15" d="M175,55 C175,72.66 175,96.94 175,114.68" fill="none" id="User-Role" style="stroke:#181818;stroke-width:1;"/></g><!--link Role to Permission--><g class="link" data-entity-1="Role" data-entity-2="Permission" data-source-line="16" data-uid="lnk16" id="link_Role_Permission"><path codeLine="16" d="M175,163 C175,180.66 175,204.94 175,222.68" fill="none" id="Role-Permission" style="stroke:#181818;stroke-width:1;"/></g><!--link Permission to View--><g class="link" data-entity-1="Permission" data-entity-2="View" data-source-line="17" data-uid="lnk17" id="link_Permission_View"><path codeLine="17" d="M175,271 C175,288.66 175,312.94 175,330.68" fill="none" id="Permission-View" style="stroke:#181818;stroke-width:1;"/></g><!--link View to Table--><g class="link" data-entity-1="View" data-entity-2="Table" data-source-line="18" data-uid="lnk18" id="link_View_Table"><path codeLine="18" d="M187.8,379 C197.63,396.66 211.15,420.94 221.02,438.68" fill="none" id="View-Table" style="stroke:#181818;stroke-width:1;"/></g><!--link Database to Table--><g class="link" data-entity-1="Database" data-entity-2="Table" data-source-line="19" data-uid="lnk19" id="link_Database_Table"><path codeLine="19" d="M280.2,379 C270.37,396.66 256.85,420.94 246.98,438.68" fill="none" id="Database-Table" style="stroke:#181818;stroke-width:1;"/></g><!--link Table to Schema--><g class="link" data-entity-1="Table" data-entity-2="Schema" data-source-line="20" data-uid="lnk20" id="link_Table_Schema"><path codeLine="20" d="M198.28,484.69 C167.39,502.58 122.78,528.42 90.76,546.97" fill="none" id="Table-Schema" style="stroke:#181818;stroke-width:1;"/></g><!--link Table to Trigger--><g class="link" data-entity-1="Table" data-entity-2="Trigger" data-source-line="21" data-uid="lnk21" id="link_Table_Trigger"><path codeLine="21" d="M220.33,487 C209.84,504.66 195.4,528.94 184.86,546.68" fill="none" id="Table-Trigger" style="stroke:#181818;stroke-width:1;"/></g><!--link Table to Attributes--><g class="link" data-entity-1="Table" data-entity-2="Attributes" data-source-line="22" data-uid="lnk22" id="link_Table_Attributes"><path codeLine="22" d="M247.89,487 C258.55,504.66 273.21,528.94 283.92,546.68" fill="none" id="Table-Attributes" style="stroke:#181818;stroke-width:1;"/></g><!--link Table to Key--><g class="link" data-entity-1="Table" data-entity-2="Key" data-source-line="23" data-uid="lnk23" id="link_Table_Key"><path codeLine="23" d="M269.55,483.94 C305.48,504.09 360.34,534.86 393.81,553.63" fill="none" id="Table-Key" style="stroke:#181818;stroke-width:1;"/></g><!--link Attributes to Constraints--><g class="link" data-entity-1="Attributes" data-entity-2="Constraints" data-source-line="24" data-uid="lnk24" id="link_Attributes_Constraints"><path codeLine="24" d="M296.05,595 C294.55,612.66 292.49,636.94 290.98,654.68" fill="none" id="Attributes-Constraints" style="stroke:#181818;stroke-width:1;"/></g><!--link Key to Primary--><g class="link" data-entity-1="Key" data-entity-2="Primary" data-source-line="25" data-uid="lnk25" id="link_Key_Primary"><path codeLine="25" d="M449.26,595 C469.41,612.66 497.13,636.94 517.38,654.68" fill="none" id="Key-Primary" style="stroke:#181818;stroke-width:1;"/></g><!--link Key to Foreign--><g class="link" data-entity-1="Key" data-entity-2="Foreign" data-source-line="26" data-uid="lnk26" id="link_Key_Foreign"><path codeLine="26" d="M423,595 C423,612.66 423,636.94 423,654.68" fill="none" id="Key-Foreign" style="stroke:#181818;stroke-width:1;"/></g><!--SRC=[JOyn3i8m34NtdA8Nw24GY8MbWiBkH5Qnr3QI7OHwUt3gf5ci_v-hvZdC8D8z1Tc57EznHei3ya8Y55S3ByAlnH5y_UuHthY0bGiay21bDp9DK_tvAIKc_qae1ivnbSH0QohaXfkbQsIagRmzC2t0ctFgslNzBgf3IwDwH5raPHrQTkbYU90yjTebjHVx2fe3AbFZWojfh_fliw3fMxNRVW00]--></g></svg>