<svg xmlns="http://www.w3.org/2000/svg" xmlns:xlink="http://www.w3.org/1999/xlink" contentStyleType="text/css" data-diagram-type="CLASS" height="812px" preserveAspectRatio="none" style="width:510px;height:812px;background:#FFFFFF;" version="1.1" viewBox="0 0 510 812" width="510px" zoomAndPan="magnify"><defs/><g><!--class User--><g class="entity" data-entity="User" data-source-line="1" data-uid="ent0002" id="entity_User"><rect fill="#F1F1F1" height="48" rx="2.5" ry="2.5" style="stroke:#181818;stroke-width:0.5;" width="63.9102" x="186" y="7"/><ellipse cx="201" cy="23" fill="#ADD1B2" rx="11" ry="11" style="stroke:#181818;stroke-width:1;"/><path d="M203.9688,28.6406 Q203.3906,28.9375 202.75,29.0781 Q202.1094,29.2344 201.4063,29.2344 Q198.9063,29.2344 197.5781,27.5938 Q196.2656,25.9375 196.2656,22.8125 Q196.2656,19.6875 197.5781,18.0313 Q198.9063,16.375 201.4063,16.375 Q202.1094,16.375 202.75,16.5313 Q203.4063,16.6875 203.9688,16.9844 L203.9688,19.7031 Q203.3438,19.125 202.75,18.8594 Q202.1563,18.5781 201.5313,18.5781 Q200.1875,18.5781 199.5,19.6563 Q198.8125,20.7188 198.8125,22.8125 Q198.8125,24.9063 199.5,25.9844 Q200.1875,27.0469 201.5313,27.0469 Q202.1563,27.0469 202.75,26.7813 Q203.3438,26.5 203.9688,25.9219 L203.9688,28.6406 Z " fill="#000000"/><text fill="#000000" font-family="sans-serif" font-size="14" lengthAdjust="spacing" textLength="31.9102" x="215" y="27.8467">User</text><line style="stroke:#181818;stroke-width:0.5;" x1="187" x2="248.9102" y1="39" y2="39"/><line style="stroke:#181818;stroke-width:0.5;" x1="187" x2="248.9102" y1="47" y2="47"/></g><!--class Role--><g class="entity" data-entity="Role" data-source-line="2" data-uid="ent0003" id="entity_Role"><rect fill="#F1F1F1" height="48" rx="2.5" ry="2.5" style="stroke:#181818;stroke-width:0.5;" width="62.7959" x="186.5" y="132"/><ellipse cx="201.5" cy="148" fill="#ADD1B2" rx="11" ry="11" style="stroke:#181818;stroke-width:1;"/><path d="M204.4688,153.6406 Q203.8906,153.9375 203.25,154.0781 Q202.6094,154.2344 201.9063,154.2344 Q199.4063,154.2344 198.0781,152.5938 Q196.7656,150.9375 196.7656,147.8125 Q196.7656,144.6875 198.0781,143.0313 Q199.4063,141.375 201.9063,141.375 Q202.6094,141.375 203.25,141.5313 Q203.9063,141.6875 204.4688,141.9844 L204.4688,144.7031 Q203.8438,144.125 203.25,143.8594 Q202.6563,143.5781 202.0313,143.5781 Q200.6875,143.5781 200,144.6563 Q199.3125,145.7188 199.3125,147.8125 Q199.3125,149.9063 200,150.9844 Q200.6875,152.0469 202.0313,152.0469 Q202.6563,152.0469 203.25,151.7813 Q203.8438,151.5 204.4688,150.9219 L204.4688,153.6406 Z " fill="#000000"/><text fill="#000000" font-family="sans-serif" font-size="14" lengthAdjust="spacing" textLength="30.7959" x="215.5" y="152.8467">Role</text><line style="stroke:#181818;stroke-width:0.5;" x1="187.5" x2="248.2959" y1="164" y2="164"/><line style="stroke:#181818;stroke-width:0.5;" x1="187.5" x2="248.2959" y1="172" y2="172"/></g><!--class Permission--><g class="entity" data-entity="Permission" data-source-line="3" data-uid="ent0004" id="entity_Permission"><rect fill="#F1F1F1" height="48" rx="2.5" ry="2.5" style="stroke:#181818;stroke-width:0.5;" width="108.2549" x="164" y="257"/><ellipse cx="179" cy="273" fill="#ADD1B2" rx="11" ry="11" style="stroke:#181818;stroke-width:1;"/><path d="M181.9688,278.6406 Q181.3906,278.9375 180.75,279.0781 Q180.1094,279.2344 179.4063,279.2344 Q176.9063,279.2344 175.5781,277.5938 Q174.2656,275.9375 174.2656,272.8125 Q174.2656,269.6875 175.5781,268.0313 Q176.9063,266.375 179.4063,266.375 Q180.1094,266.375 180.75,266.5313 Q181.4063,266.6875 181.9688,266.9844 L181.9688,269.7031 Q181.3438,269.125 180.75,268.8594 Q180.1563,268.5781 179.5313,268.5781 Q178.1875,268.5781 177.5,269.6563 Q176.8125,270.7188 176.8125,272.8125 Q176.8125,274.9063 177.5,275.9844 Q178.1875,277.0469 179.5313,277.0469 Q180.1563,277.0469 180.75,276.7813 Q181.3438,276.5 181.9688,275.9219 L181.9688,278.6406 Z " fill="#000000"/><text fill="#000000" font-family="sans-serif" font-size="14" lengthAdjust="spacing" textLength="76.2549" x="193" y="277.8467">Permission</text><line style="stroke:#181818;stroke-width:0.5;" x1="165" x2="271.2549" y1="289" y2="289"/><line style="stroke:#181818;stroke-width:0.5;" x1="165" x2="271.2549" y1="297" y2="297"/></g><!--class View--><g class="entity" data-entity="View" data-source-line="4" data-uid="ent0005" id="entity_View"><rect fill="#F1F1F1" height="48" rx="2.5" ry="2.5" style="stroke:#181818;stroke-width:0.5;" width="65.5303" x="185" y="382"/><ellipse cx="200" cy="398" fill="#ADD1B2" rx="11" ry="11" style="stroke:#181818;stroke-width:1;"/><path d="M202.9688,403.6406 Q202.3906,403.9375 201.75,404.0781 Q201.1094,404.2344 200.4063,404.2344 Q197.9063,404.2344 196.5781,402.5938 Q195.2656,400.9375 195.2656,397.8125 Q195.2656,394.6875 196.5781,393.0313 Q197.9063,391.375 200.4063,391.375 Q201.1094,391.375 201.75,391.5313 Q202.4063,391.6875 202.9688,391.9844 L202.9688,394.7031 Q202.3438,394.125 201.75,393.8594 Q201.1563,393.5781 200.5313,393.5781 Q199.1875,393.5781 198.5,394.6563 Q197.8125,395.7188 197.8125,397.8125 Q197.8125,399.9063 198.5,400.9844 Q199.1875,402.0469 200.5313,402.0469 Q201.1563,402.0469 201.75,401.7813 Q202.3438,401.5 202.9688,400.9219 L202.9688,403.6406 Z " fill="#000000"/><text fill="#000000" font-family="sans-serif" font-size="14" lengthAdjust="spacing" textLength="33.5303" x="214" y="402.8467">View</text><line style="stroke:#181818;stroke-width:0.5;" x1="186" x2="249.5303" y1="414" y2="414"/><line style="stroke:#181818;stroke-width:0.5;" x1="186" x2="249.5303" y1="422" y2="422"/></g><!--class Table--><g class="entity" data-entity="Table" data-source-line="5" data-uid="ent0006" id="entity_Table"><rect fill="#F1F1F1" height="48" rx="2.5" ry="2.5" style="stroke:#181818;stroke-width:0.5;" width="70.5205" x="182.5" y="507"/><ellipse cx="197.5" cy="523" fill="#ADD1B2" rx="11" ry="11" style="stroke:#181818;stroke-width:1;"/><path d="M200.4688,528.6406 Q199.8906,528.9375 199.25,529.0781 Q198.6094,529.2344 197.9063,529.2344 Q195.4063,529.2344 194.0781,527.5938 Q192.7656,525.9375 192.7656,522.8125 Q192.7656,519.6875 194.0781,518.0313 Q195.4063,516.375 197.9063,516.375 Q198.6094,516.375 199.25,516.5313 Q199.9063,516.6875 200.4688,516.9844 L200.4688,519.7031 Q199.8438,519.125 199.25,518.8594 Q198.6563,518.5781 198.0313,518.5781 Q196.6875,518.5781 196,519.6563 Q195.3125,520.7188 195.3125,522.8125 Q195.3125,524.9063 196,525.9844 Q196.6875,527.0469 198.0313,527.0469 Q198.6563,527.0469 199.25,526.7813 Q199.8438,526.5 200.4688,525.9219 L200.4688,528.6406 Z " fill="#000000"/><text fill="#000000" font-family="sans-serif" font-size="14" lengthAdjust="spacing" textLength="38.5205" x="211.5" y="527.8467">Table</text><line style="stroke:#181818;stroke-width:0.5;" x1="183.5" x2="252.0205" y1="539" y2="539"/><line style="stroke:#181818;stroke-width:0.5;" x1="183.5" x2="252.0205" y1="547" y2="547"/></g><!--class Schema--><g class="entity" data-entity="Schema" data-source-line="6" data-uid="ent0007" id="entity_Schema"><rect fill="#F1F1F1" height="48" rx="2.5" ry="2.5" style="stroke:#181818;stroke-width:0.5;" width="88.2871" x="7" y="507"/><ellipse cx="22" cy="523" fill="#ADD1B2" rx="11" ry="11" style="stroke:#181818;stroke-width:1;"/><path d="M24.9688,528.6406 Q24.3906,528.9375 23.75,529.0781 Q23.1094,529.2344 22.4063,529.2344 Q19.9063,529.2344 18.5781,527.5938 Q17.2656,525.9375 17.2656,522.8125 Q17.2656,519.6875 18.5781,518.0313 Q19.9063,516.375 22.4063,516.375 Q23.1094,516.375 23.75,516.5313 Q24.4063,516.6875 24.9688,516.9844 L24.9688,519.7031 Q24.3438,519.125 23.75,518.8594 Q23.1563,518.5781 22.5313,518.5781 Q21.1875,518.5781 20.5,519.6563 Q19.8125,520.7188 19.8125,522.8125 Q19.8125,524.9063 20.5,525.9844 Q21.1875,527.0469 22.5313,527.0469 Q23.1563,527.0469 23.75,526.7813 Q24.3438,526.5 24.9688,525.9219 L24.9688,528.6406 Z " fill="#000000"/><text fill="#000000" font-family="sans-serif" font-size="14" lengthAdjust="spacing" textLength="56.2871" x="36" y="527.8467">Schema</text><line style="stroke:#181818;stroke-width:0.5;" x1="8" x2="94.2871" y1="539" y2="539"/><line style="stroke:#181818;stroke-width:0.5;" x1="8" x2="94.2871" y1="547" y2="547"/></g><!--class Database--><g class="entity" data-entity="Database" data-source-line="7" data-uid="ent0008" id="entity_Database"><rect fill="#F1F1F1" height="48" rx="2.5" ry="2.5" style="stroke:#181818;stroke-width:0.5;" width="98.8008" x="378.5" y="507"/><ellipse cx="393.5" cy="523" fill="#ADD1B2" rx="11" ry="11" style="stroke:#181818;stroke-width:1;"/><path d="M396.4688,528.6406 Q395.8906,528.9375 395.25,529.0781 Q394.6094,529.2344 393.9063,529.2344 Q391.4063,529.2344 390.0781,527.5938 Q388.7656,525.9375 388.7656,522.8125 Q388.7656,519.6875 390.0781,518.0313 Q391.4063,516.375 393.9063,516.375 Q394.6094,516.375 395.25,516.5313 Q395.9063,516.6875 396.4688,516.9844 L396.4688,519.7031 Q395.8438,519.125 395.25,518.8594 Q394.6563,518.5781 394.0313,518.5781 Q392.6875,518.5781 392,519.6563 Q391.3125,520.7188 391.3125,522.8125 Q391.3125,524.9063 392,525.9844 Q392.6875,527.0469 394.0313,527.0469 Q394.6563,527.0469 395.25,526.7813 Q395.8438,526.5 396.4688,525.9219 L396.4688,528.6406 Z " fill="#000000"/><text fill="#000000" font-family="sans-serif" font-size="14" lengthAdjust="spacing" textLength="66.8008" x="407.5" y="527.8467">Database</text><line style="stroke:#181818;stroke-width:0.5;" x1="379.5" x2="476.3008" y1="539" y2="539"/><line style="stroke:#181818;stroke-width:0.5;" x1="379.5" x2="476.3008" y1="547" y2="547"/></g><!--class Trigger--><g class="entity" data-entity="Trigger" data-source-line="8" data-uid="ent0009" id="entity_Trigger"><rect fill="#F1F1F1" height="48" rx="2.5" ry="2.5" style="stroke:#181818;stroke-width:0.5;" width="82.3398" x="54" y="632"/><ellipse cx="69" cy="648" fill="#ADD1B2" rx="11" ry="11" style="stroke:#181818;stroke-width:1;"/><path d="M71.9688,653.6406 Q71.3906,653.9375 70.75,654.0781 Q70.1094,654.2344 69.4063,654.2344 Q66.9063,654.2344 65.5781,652.5938 Q64.2656,650.9375 64.2656,647.8125 Q64.2656,644.6875 65.5781,643.0313 Q66.9063,641.375 69.4063,641.375 Q70.1094,641.375 70.75,641.5313 Q71.4063,641.6875 71.9688,641.9844 L71.9688,644.7031 Q71.3438,644.125 70.75,643.8594 Q70.1563,643.5781 69.5313,643.5781 Q68.1875,643.5781 67.5,644.6563 Q66.8125,645.7188 66.8125,647.8125 Q66.8125,649.9063 67.5,650.9844 Q68.1875,652.0469 69.5313,652.0469 Q70.1563,652.0469 70.75,651.7813 Q71.3438,651.5 71.9688,650.9219 L71.9688,653.6406 Z " fill="#000000"/><text fill="#000000" font-family="sans-serif" font-size="14" lengthAdjust="spacing" textLength="50.3398" x="83" y="652.8467">Trigger</text><line style="stroke:#181818;stroke-width:0.5;" x1="55" x2="135.3398" y1="664" y2="664"/><line style="stroke:#181818;stroke-width:0.5;" x1="55" x2="135.3398" y1="672" y2="672"/></g><!--class Attribute--><g class="entity" data-entity="Attribute" data-source-line="9" data-uid="ent0010" id="entity_Attribute"><rect fill="#F1F1F1" height="48" rx="2.5" ry="2.5" style="stroke:#181818;stroke-width:0.5;" width="94.0635" x="171" y="632"/><ellipse cx="186" cy="648" fill="#ADD1B2" rx="11" ry="11" style="stroke:#181818;stroke-width:1;"/><path d="M188.9688,653.6406 Q188.3906,653.9375 187.75,654.0781 Q187.1094,654.2344 186.4063,654.2344 Q183.9063,654.2344 182.5781,652.5938 Q181.2656,650.9375 181.2656,647.8125 Q181.2656,644.6875 182.5781,643.0313 Q183.9063,641.375 186.4063,641.375 Q187.1094,641.375 187.75,641.5313 Q188.4063,641.6875 188.9688,641.9844 L188.9688,644.7031 Q188.3438,644.125 187.75,643.8594 Q187.1563,643.5781 186.5313,643.5781 Q185.1875,643.5781 184.5,644.6563 Q183.8125,645.7188 183.8125,647.8125 Q183.8125,649.9063 184.5,650.9844 Q185.1875,652.0469 186.5313,652.0469 Q187.1563,652.0469 187.75,651.7813 Q188.3438,651.5 188.9688,650.9219 L188.9688,653.6406 Z " fill="#000000"/><text fill="#000000" font-family="sans-serif" font-size="14" lengthAdjust="spacing" textLength="62.0635" x="200" y="652.8467">Attribute</text><line style="stroke:#181818;stroke-width:0.5;" x1="172" x2="264.0635" y1="664" y2="664"/><line style="stroke:#181818;stroke-width:0.5;" x1="172" x2="264.0635" y1="672" y2="672"/></g><!--class Constraint--><g class="entity" data-entity="Constraint" data-source-line="10" data-uid="ent0011" id="entity_Constraint"><rect fill="#F1F1F1" height="48" rx="2.5" ry="2.5" style="stroke:#181818;stroke-width:0.5;" width="104.584" x="156.5" y="757"/><ellipse cx="171.5" cy="773" fill="#ADD1B2" rx="11" ry="11" style="stroke:#181818;stroke-width:1;"/><path d="M174.4688,778.6406 Q173.8906,778.9375 173.25,779.0781 Q172.6094,779.2344 171.9063,779.2344 Q169.4063,779.2344 168.0781,777.5938 Q166.7656,775.9375 166.7656,772.8125 Q166.7656,769.6875 168.0781,768.0313 Q169.4063,766.375 171.9063,766.375 Q172.6094,766.375 173.25,766.5313 Q173.9063,766.6875 174.4688,766.9844 L174.4688,769.7031 Q173.8438,769.125 173.25,768.8594 Q172.6563,768.5781 172.0313,768.5781 Q170.6875,768.5781 170,769.6563 Q169.3125,770.7188 169.3125,772.8125 Q169.3125,774.9063 170,775.9844 Q170.6875,777.0469 172.0313,777.0469 Q172.6563,777.0469 173.25,776.7813 Q173.8438,776.5 174.4688,775.9219 L174.4688,778.6406 Z " fill="#000000"/><text fill="#000000" font-family="sans-serif" font-size="14" lengthAdjust="spacing" textLength="72.584" x="185.5" y="777.8467">Constraint</text><line style="stroke:#181818;stroke-width:0.5;" x1="157.5" x2="260.084" y1="789" y2="789"/><line style="stroke:#181818;stroke-width:0.5;" x1="157.5" x2="260.084" y1="797" y2="797"/></g><!--class Key--><g class="entity" data-entity="Key" data-source-line="11" data-uid="ent0012" id="entity_Key"><rect fill="#F1F1F1" height="48" rx="2.5" ry="2.5" style="stroke:#181818;stroke-width:0.5;" width="58.0791" x="310" y="632"/><ellipse cx="325" cy="648" fill="#ADD1B2" rx="11" ry="11" style="stroke:#181818;stroke-width:1;"/><path d="M327.9688,653.6406 Q327.3906,653.9375 326.75,654.0781 Q326.1094,654.2344 325.4063,654.2344 Q322.9063,654.2344 321.5781,652.5938 Q320.2656,650.9375 320.2656,647.8125 Q320.2656,644.6875 321.5781,643.0313 Q322.9063,641.375 325.4063,641.375 Q326.1094,641.375 326.75,641.5313 Q327.4063,641.6875 327.9688,641.9844 L327.9688,644.7031 Q327.3438,644.125 326.75,643.8594 Q326.1563,643.5781 325.5313,643.5781 Q324.1875,643.5781 323.5,644.6563 Q322.8125,645.7188 322.8125,647.8125 Q322.8125,649.9063 323.5,650.9844 Q324.1875,652.0469 325.5313,652.0469 Q326.1563,652.0469 326.75,651.7813 Q327.3438,651.5 327.9688,650.9219 L327.9688,653.6406 Z " fill="#000000"/><text fill="#000000" font-family="sans-serif" font-size="14" lengthAdjust="spacing" textLength="26.0791" x="339" y="652.8467">Key</text><line style="stroke:#181818;stroke-width:0.5;" x1="311" x2="367.0791" y1="664" y2="664"/><line style="stroke:#181818;stroke-width:0.5;" x1="311" x2="367.0791" y1="672" y2="672"/></g><!--class Foreign--><g class="entity" data-entity="Foreign" data-source-line="12" data-uid="ent0013" id="entity_Foreign"><rect fill="#F1F1F1" height="48" rx="2.5" ry="2.5" style="stroke:#181818;stroke-width:0.5;" width="84.6367" x="296.5" y="757"/><ellipse cx="311.5" cy="773" fill="#ADD1B2" rx="11" ry="11" style="stroke:#181818;stroke-width:1;"/><path d="M314.4688,778.6406 Q313.8906,778.9375 313.25,779.0781 Q312.6094,779.2344 311.9063,779.2344 Q309.4063,779.2344 308.0781,777.5938 Q306.7656,775.9375 306.7656,772.8125 Q306.7656,769.6875 308.0781,768.0313 Q309.4063,766.375 311.9063,766.375 Q312.6094,766.375 313.25,766.5313 Q313.9063,766.6875 314.4688,766.9844 L314.4688,769.7031 Q313.8438,769.125 313.25,768.8594 Q312.6563,768.5781 312.0313,768.5781 Q310.6875,768.5781 310,769.6563 Q309.3125,770.7188 309.3125,772.8125 Q309.3125,774.9063 310,775.9844 Q310.6875,777.0469 312.0313,777.0469 Q312.6563,777.0469 313.25,776.7813 Q313.8438,776.5 314.4688,775.9219 L314.4688,778.6406 Z " fill="#000000"/><text fill="#000000" font-family="sans-serif" font-size="14" lengthAdjust="spacing" textLength="52.6367" x="325.5" y="777.8467">Foreign</text><line style="stroke:#181818;stroke-width:0.5;" x1="297.5" x2="380.1367" y1="789" y2="789"/><line style="stroke:#181818;stroke-width:0.5;" x1="297.5" x2="380.1367" y1="797" y2="797"/></g><!--class Primary--><g class="entity" data-entity="Primary" data-source-line="13" data-uid="ent0014" id="entity_Primary"><rect fill="#F1F1F1" height="48" rx="2.5" ry="2.5" style="stroke:#181818;stroke-width:0.5;" width="86.3457" x="417" y="757"/><ellipse cx="432" cy="773" fill="#ADD1B2" rx="11" ry="11" style="stroke:#181818;stroke-width:1;"/><path d="M434.9688,778.6406 Q434.3906,778.9375 433.75,779.0781 Q433.1094,779.2344 432.4063,779.2344 Q429.9063,779.2344 428.5781,777.5938 Q427.2656,775.9375 427.2656,772.8125 Q427.2656,769.6875 428.5781,768.0313 Q429.9063,766.375 432.4063,766.375 Q433.1094,766.375 433.75,766.5313 Q434.4063,766.6875 434.9688,766.9844 L434.9688,769.7031 Q434.3438,769.125 433.75,768.8594 Q433.1563,768.5781 432.5313,768.5781 Q431.1875,768.5781 430.5,769.6563 Q429.8125,770.7188 429.8125,772.8125 Q429.8125,774.9063 430.5,775.9844 Q431.1875,777.0469 432.5313,777.0469 Q433.1563,777.0469 433.75,776.7813 Q434.3438,776.5 434.9688,775.9219 L434.9688,778.6406 Z " fill="#000000"/><text fill="#000000" font-family="sans-serif" font-size="14" lengthAdjust="spacing" textLength="54.3457" x="446" y="777.8467">Primary</text><line style="stroke:#181818;stroke-width:0.5;" x1="418" x2="502.3457" y1="789" y2="789"/><line style="stroke:#181818;stroke-width:0.5;" x1="418" x2="502.3457" y1="797" y2="797"/></g><!--link User to Role--><g class="link" data-entity-1="User" data-entity-2="Role" data-source-line="15" data-uid="lnk15" id="link_User_Role"><path codeLine="15" d="M218,55.14 C218,77.13 218,104.01 218,125.97" fill="none" id="User-to-Role" style="stroke:#181818;stroke-width:1;"/><polygon fill="#181818" points="218,131.97,222,122.97,218,126.97,214,122.97,218,131.97" style="stroke:#181818;stroke-width:1;"/><text fill="#000000" font-family="sans-serif" font-size="13" lengthAdjust="spacing" textLength="35.0771" x="219" y="98.0669">has a</text></g><!--link Role to Permission--><g class="link" data-entity-1="Role" data-entity-2="Permission" data-source-line="16" data-uid="lnk16" id="link_Role_Permission"><path codeLine="16" d="M218,180.14 C218,202.13 218,229.01 218,250.97" fill="none" id="Role-to-Permission" style="stroke:#181818;stroke-width:1;"/><polygon fill="#181818" points="218,256.97,222,247.97,218,251.97,214,247.97,218,256.97" style="stroke:#181818;stroke-width:1;"/><text fill="#000000" font-family="sans-serif" font-size="13" lengthAdjust="spacing" textLength="22.9785" x="219" y="223.0669">has</text></g><!--link Permission to View--><g class="link" data-entity-1="Permission" data-entity-2="View" data-source-line="17" data-uid="lnk17" id="link_Permission_View"><path codeLine="17" d="M218,305.14 C218,327.13 218,354.01 218,375.97" fill="none" id="Permission-to-View" style="stroke:#181818;stroke-width:1;"/><polygon fill="#181818" points="218,381.97,222,372.97,218,376.97,214,372.97,218,381.97" style="stroke:#181818;stroke-width:1;"/><text fill="#000000" font-family="sans-serif" font-size="13" lengthAdjust="spacing" textLength="41.0884" x="219" y="348.0669">over a</text></g><!--reverse link View to Table--><g class="link" data-entity-1="View" data-entity-2="Table" data-source-line="18" data-uid="lnk18" id="link_View_Table"><path codeLine="18" d="M218,436.14 C218,458.13 218,485.01 218,506.97" fill="none" id="View-backto-Table" style="stroke:#181818;stroke-width:1;"/><polygon fill="#181818" points="218,430.14,214,439.14,218,435.14,222,439.14,218,430.14" style="stroke:#181818;stroke-width:1;"/><text fill="#000000" font-family="sans-serif" font-size="13" lengthAdjust="spacing" textLength="35.0771" x="219" y="473.0669">has a</text></g><!--link Table to Trigger--><g class="link" data-entity-1="Table" data-entity-2="Trigger" data-source-line="19" data-uid="lnk19" id="link_Table_Trigger"><path codeLine="19" d="M182.33,550.57 C167.18,559.59 150.05,571.43 137,585 C123.84,598.69 115.6656,611.8797 108.2756,626.4397" fill="none" id="Table-to-Trigger" style="stroke:#181818;stroke-width:1;"/><polygon fill="#181818" points="105.56,631.79,113.2002,625.5749,107.823,627.3314,106.0665,621.9542,105.56,631.79" style="stroke:#181818;stroke-width:1;"/><text fill="#000000" font-family="sans-serif" font-size="13" lengthAdjust="spacing" textLength="71.2334" x="138" y="598.0669">could have</text></g><!--link Table to Attribute--><g class="link" data-entity-1="Table" data-entity-2="Attribute" data-source-line="20" data-uid="lnk20" id="link_Table_Attribute"><path codeLine="20" d="M218,555.14 C218,577.13 218,604.01 218,625.97" fill="none" id="Table-to-Attribute" style="stroke:#181818;stroke-width:1;"/><polygon fill="#181818" points="218,631.97,222,622.97,218,626.97,214,622.97,218,631.97" style="stroke:#181818;stroke-width:1;"/><text fill="#000000" font-family="sans-serif" font-size="13" lengthAdjust="spacing" textLength="22.9785" x="219" y="598.0669">has</text></g><!--link Table to Key--><g class="link" data-entity-1="Table" data-entity-2="Key" data-source-line="21" data-uid="lnk21" id="link_Table_Key"><path codeLine="21" d="M240.76,555.14 C262.39,577.13 290.5326,605.7324 312.1326,627.6924" fill="none" id="Table-to-Key" style="stroke:#181818;stroke-width:1;"/><polygon fill="#181818" points="316.34,631.97,312.8806,622.7487,312.8338,628.4054,307.1771,628.3586,316.34,631.97" style="stroke:#181818;stroke-width:1;"/><text fill="#000000" font-family="sans-serif" font-size="13" lengthAdjust="spacing" textLength="22.9785" x="287" y="598.0669">has</text></g><!--link Attribute to Constraint--><g class="link" data-entity-1="Attribute" data-entity-2="Constraint" data-source-line="22" data-uid="lnk22" id="link_Attribute_Constraint"><path codeLine="22" d="M216.31,680.14 C214.7,702.13 212.726,729.0259 211.126,750.9859" fill="none" id="Attribute-to-Constraint" style="stroke:#181818;stroke-width:1;"/><polygon fill="#181818" points="210.69,756.97,215.3334,748.2845,211.0533,751.9832,207.3546,747.7031,210.69,756.97" style="stroke:#181818;stroke-width:1;"/><text fill="#000000" font-family="sans-serif" font-size="13" lengthAdjust="spacing" textLength="71.2334" x="216" y="723.0669">could have</text></g><!--link Table to Database--><g class="link" data-entity-1="Table" data-entity-2="Database" data-source-line="23" data-uid="lnk23" id="link_Table_Database"><path codeLine="23" d="M253.62,531 C287.91,531 334.06,531 372.4,531" fill="none" id="Table-to-Database" style="stroke:#181818;stroke-width:1;"/><polygon fill="#181818" points="378.4,531,369.4,527,373.4,531,369.4,535,378.4,531" style="stroke:#181818;stroke-width:1;"/><text fill="#000000" font-family="sans-serif" font-size="13" lengthAdjust="spacing" textLength="88.188" x="272" y="524.0669">depends on a</text></g><!--reverse link Schema to Table--><g class="link" data-entity-1="Schema" data-entity-2="Table" data-source-line="24" data-uid="lnk25" id="link_Schema_Table"><path codeLine="24" d="M101.31,531 C128.56,531 157.01,531 182.47,531" fill="none" id="Schema-backto-Table" style="stroke:#181818;stroke-width:1;"/><polygon fill="#181818" points="95.31,531,104.31,535,100.31,531,104.31,527,95.31,531" style="stroke:#181818;stroke-width:1;"/><text fill="#000000" font-family="sans-serif" font-size="13" lengthAdjust="spacing" textLength="51.3589" x="113.25" y="524.0669">needs a</text></g><!--reverse link Key to Foreign--><g class="link" data-entity-1="Key" data-entity-2="Foreign" data-source-line="25" data-uid="lnk26" id="link_Key_Foreign"><path codeLine="25" d="M339,686.14 C339,708.13 339,735.01 339,756.97" fill="none" id="Key-backto-Foreign" style="stroke:#181818;stroke-width:1;"/><polygon fill="#181818" points="339,680.14,335,689.14,339,685.14,343,689.14,339,680.14" style="stroke:#181818;stroke-width:1;"/><text fill="#000000" font-family="sans-serif" font-size="13" lengthAdjust="spacing" textLength="48.915" x="340" y="723.0669">inherits</text></g><!--reverse link Key to Primary--><g class="link" data-entity-1="Key" data-entity-2="Primary" data-source-line="26" data-uid="lnk27" id="link_Key_Primary"><path codeLine="26" d="M369.946,684.2379 C380.016,693.3179 387.01,699.93 397,710 C411.97,725.09 427.98,742.9 440.12,756.78" fill="none" id="Key-backto-Primary" style="stroke:#181818;stroke-width:1;"/><polygon fill="#181818" points="365.49,680.22,369.4954,689.2176,369.2034,683.5683,374.8527,683.2762,365.49,680.22" style="stroke:#181818;stroke-width:1;"/><text fill="#000000" font-family="sans-serif" font-size="13" lengthAdjust="spacing" textLength="48.915" x="415" y="723.0669">inherits</text></g><!--SRC=[RP0nJiH034NxESLS81T020c1Q6XMi4ll92QnbCmWUtRHtXuxSIOfw6o_B_j_TnE8n8iWXsufF_A4NfwGPnAXd7pmHVZhvHdQglliHfp1crSeq89ixCmq37NvSobCxRLiz2KdAGoKYW_UyUxLMsQaORjyOfg1xo6OqzWqJulF-117a0XXQMowMrvPE0oCMm8b-QPR82pTOzEiQUgsjJEvkrVIvUlKAx_X0TSuVcmdciDdkyRcU-1_T-gviQXiUwAAUlp1r4lK0DNPXD-cMl-kceJOct6xQd7yTqeeZSXKf29_v07z0G00]--></g></svg>