<svg xmlns="http://www.w3.org/2000/svg" xmlns:xlink="http://www.w3.org/1999/xlink" contentStyleType="text/css" data-diagram-type="CLASS" height="562px" preserveAspectRatio="none" style="width:452px;height:562px;background:#FFFFFF;" version="1.1" viewBox="0 0 452 562" width="452px" zoomAndPan="magnify"><defs/><g><!--class User--><g class="entity" data-entity="User" data-source-line="1" data-uid="ent0002" id="entity_User"><rect fill="#F1F1F1" height="48" rx="2.5" ry="2.5" style="stroke:#181818;stroke-width:0.5;" width="63.9102" x="347" y="7"/><ellipse cx="362" cy="23" fill="#ADD1B2" rx="11" ry="11" style="stroke:#181818;stroke-width:1;"/><path d="M364.9688,28.6406 Q364.3906,28.9375 363.75,29.0781 Q363.1094,29.2344 362.4063,29.2344 Q359.9063,29.2344 358.5781,27.5938 Q357.2656,25.9375 357.2656,22.8125 Q357.2656,19.6875 358.5781,18.0313 Q359.9063,16.375 362.4063,16.375 Q363.1094,16.375 363.75,16.5313 Q364.4063,16.6875 364.9688,16.9844 L364.9688,19.7031 Q364.3438,19.125 363.75,18.8594 Q363.1563,18.5781 362.5313,18.5781 Q361.1875,18.5781 360.5,19.6563 Q359.8125,20.7188 359.8125,22.8125 Q359.8125,24.9063 360.5,25.9844 Q361.1875,27.0469 362.5313,27.0469 Q363.1563,27.0469 363.75,26.7813 Q364.3438,26.5 364.9688,25.9219 L364.9688,28.6406 Z " fill="#000000"/><text fill="#000000" font-family="sans-serif" font-size="14" lengthAdjust="spacing" textLength="31.9102" x="376" y="27.8467">User</text><line style="stroke:#181818;stroke-width:0.5;" x1="348" x2="409.9102" y1="39" y2="39"/><line style="stroke:#181818;stroke-width:0.5;" x1="348" x2="409.9102" y1="47" y2="47"/></g><!--class Role--><g class="entity" data-entity="Role" data-source-line="2" data-uid="ent0003" id="entity_Role"><rect fill="#F1F1F1" height="48" rx="2.5" ry="2.5" style="stroke:#181818;stroke-width:0.5;" width="62.7959" x="347.5" y="132"/><ellipse cx="362.5" cy="148" fill="#ADD1B2" rx="11" ry="11" style="stroke:#181818;stroke-width:1;"/><path d="M365.4688,153.6406 Q364.8906,153.9375 364.25,154.0781 Q363.6094,154.2344 362.9063,154.2344 Q360.4063,154.2344 359.0781,152.5938 Q357.7656,150.9375 357.7656,147.8125 Q357.7656,144.6875 359.0781,143.0313 Q360.4063,141.375 362.9063,141.375 Q363.6094,141.375 364.25,141.5313 Q364.9063,141.6875 365.4688,141.9844 L365.4688,144.7031 Q364.8438,144.125 364.25,143.8594 Q363.6563,143.5781 363.0313,143.5781 Q361.6875,143.5781 361,144.6563 Q360.3125,145.7188 360.3125,147.8125 Q360.3125,149.9063 361,150.9844 Q361.6875,152.0469 363.0313,152.0469 Q363.6563,152.0469 364.25,151.7813 Q364.8438,151.5 365.4688,150.9219 L365.4688,153.6406 Z " fill="#000000"/><text fill="#000000" font-family="sans-serif" font-size="14" lengthAdjust="spacing" textLength="30.7959" x="376.5" y="152.8467">Role</text><line style="stroke:#181818;stroke-width:0.5;" x1="348.5" x2="409.2959" y1="164" y2="164"/><line style="stroke:#181818;stroke-width:0.5;" x1="348.5" x2="409.2959" y1="172" y2="172"/></g><!--class Permission--><g class="entity" data-entity="Permission" data-source-line="3" data-uid="ent0004" id="entity_Permission"><rect fill="#F1F1F1" height="48" rx="2.5" ry="2.5" style="stroke:#181818;stroke-width:0.5;" width="108.2549" x="325" y="257"/><ellipse cx="340" cy="273" fill="#ADD1B2" rx="11" ry="11" style="stroke:#181818;stroke-width:1;"/><path d="M342.9688,278.6406 Q342.3906,278.9375 341.75,279.0781 Q341.1094,279.2344 340.4063,279.2344 Q337.9063,279.2344 336.5781,277.5938 Q335.2656,275.9375 335.2656,272.8125 Q335.2656,269.6875 336.5781,268.0313 Q337.9063,266.375 340.4063,266.375 Q341.1094,266.375 341.75,266.5313 Q342.4063,266.6875 342.9688,266.9844 L342.9688,269.7031 Q342.3438,269.125 341.75,268.8594 Q341.1563,268.5781 340.5313,268.5781 Q339.1875,268.5781 338.5,269.6563 Q337.8125,270.7188 337.8125,272.8125 Q337.8125,274.9063 338.5,275.9844 Q339.1875,277.0469 340.5313,277.0469 Q341.1563,277.0469 341.75,276.7813 Q342.3438,276.5 342.9688,275.9219 L342.9688,278.6406 Z " fill="#000000"/><text fill="#000000" font-family="sans-serif" font-size="14" lengthAdjust="spacing" textLength="76.2549" x="354" y="277.8467">Permission</text><line style="stroke:#181818;stroke-width:0.5;" x1="326" x2="432.2549" y1="289" y2="289"/><line style="stroke:#181818;stroke-width:0.5;" x1="326" x2="432.2549" y1="297" y2="297"/></g><!--class View--><g class="entity" data-entity="View" data-source-line="4" data-uid="ent0005" id="entity_View"><rect fill="#F1F1F1" height="48" rx="2.5" ry="2.5" style="stroke:#181818;stroke-width:0.5;" width="65.5303" x="346" y="382"/><ellipse cx="361" cy="398" fill="#ADD1B2" rx="11" ry="11" style="stroke:#181818;stroke-width:1;"/><path d="M363.9688,403.6406 Q363.3906,403.9375 362.75,404.0781 Q362.1094,404.2344 361.4063,404.2344 Q358.9063,404.2344 357.5781,402.5938 Q356.2656,400.9375 356.2656,397.8125 Q356.2656,394.6875 357.5781,393.0313 Q358.9063,391.375 361.4063,391.375 Q362.1094,391.375 362.75,391.5313 Q363.4063,391.6875 363.9688,391.9844 L363.9688,394.7031 Q363.3438,394.125 362.75,393.8594 Q362.1563,393.5781 361.5313,393.5781 Q360.1875,393.5781 359.5,394.6563 Q358.8125,395.7188 358.8125,397.8125 Q358.8125,399.9063 359.5,400.9844 Q360.1875,402.0469 361.5313,402.0469 Q362.1563,402.0469 362.75,401.7813 Q363.3438,401.5 363.9688,400.9219 L363.9688,403.6406 Z " fill="#000000"/><text fill="#000000" font-family="sans-serif" font-size="14" lengthAdjust="spacing" textLength="33.5303" x="375" y="402.8467">View</text><line style="stroke:#181818;stroke-width:0.5;" x1="347" x2="410.5303" y1="414" y2="414"/><line style="stroke:#181818;stroke-width:0.5;" x1="347" x2="410.5303" y1="422" y2="422"/></g><!--class Table--><g class="entity" data-entity="Table" data-source-line="5" data-uid="ent0006" id="entity_Table"><rect fill="#F1F1F1" height="48" rx="2.5" ry="2.5" style="stroke:#181818;stroke-width:0.5;" width="70.5205" x="154.5" y="257"/><ellipse cx="169.5" cy="273" fill="#ADD1B2" rx="11" ry="11" style="stroke:#181818;stroke-width:1;"/><path d="M172.4688,278.6406 Q171.8906,278.9375 171.25,279.0781 Q170.6094,279.2344 169.9063,279.2344 Q167.4063,279.2344 166.0781,277.5938 Q164.7656,275.9375 164.7656,272.8125 Q164.7656,269.6875 166.0781,268.0313 Q167.4063,266.375 169.9063,266.375 Q170.6094,266.375 171.25,266.5313 Q171.9063,266.6875 172.4688,266.9844 L172.4688,269.7031 Q171.8438,269.125 171.25,268.8594 Q170.6563,268.5781 170.0313,268.5781 Q168.6875,268.5781 168,269.6563 Q167.3125,270.7188 167.3125,272.8125 Q167.3125,274.9063 168,275.9844 Q168.6875,277.0469 170.0313,277.0469 Q170.6563,277.0469 171.25,276.7813 Q171.8438,276.5 172.4688,275.9219 L172.4688,278.6406 Z " fill="#000000"/><text fill="#000000" font-family="sans-serif" font-size="14" lengthAdjust="spacing" textLength="38.5205" x="183.5" y="277.8467">Table</text><line style="stroke:#181818;stroke-width:0.5;" x1="155.5" x2="224.0205" y1="289" y2="289"/><line style="stroke:#181818;stroke-width:0.5;" x1="155.5" x2="224.0205" y1="297" y2="297"/></g><!--class Schema--><g class="entity" data-entity="Schema" data-source-line="6" data-uid="ent0007" id="entity_Schema"><rect fill="#F1F1F1" height="48" rx="2.5" ry="2.5" style="stroke:#181818;stroke-width:0.5;" width="88.2871" x="37" y="132"/><ellipse cx="52" cy="148" fill="#ADD1B2" rx="11" ry="11" style="stroke:#181818;stroke-width:1;"/><path d="M54.9688,153.6406 Q54.3906,153.9375 53.75,154.0781 Q53.1094,154.2344 52.4063,154.2344 Q49.9063,154.2344 48.5781,152.5938 Q47.2656,150.9375 47.2656,147.8125 Q47.2656,144.6875 48.5781,143.0313 Q49.9063,141.375 52.4063,141.375 Q53.1094,141.375 53.75,141.5313 Q54.4063,141.6875 54.9688,141.9844 L54.9688,144.7031 Q54.3438,144.125 53.75,143.8594 Q53.1563,143.5781 52.5313,143.5781 Q51.1875,143.5781 50.5,144.6563 Q49.8125,145.7188 49.8125,147.8125 Q49.8125,149.9063 50.5,150.9844 Q51.1875,152.0469 52.5313,152.0469 Q53.1563,152.0469 53.75,151.7813 Q54.3438,151.5 54.9688,150.9219 L54.9688,153.6406 Z " fill="#000000"/><text fill="#000000" font-family="sans-serif" font-size="14" lengthAdjust="spacing" textLength="56.2871" x="66" y="152.8467">Schema</text><line style="stroke:#181818;stroke-width:0.5;" x1="38" x2="124.2871" y1="164" y2="164"/><line style="stroke:#181818;stroke-width:0.5;" x1="38" x2="124.2871" y1="172" y2="172"/></g><!--class Database--><g class="entity" data-entity="Database" data-source-line="7" data-uid="ent0008" id="entity_Database"><rect fill="#F1F1F1" height="48" rx="2.5" ry="2.5" style="stroke:#181818;stroke-width:0.5;" width="98.8008" x="160.5" y="132"/><ellipse cx="175.5" cy="148" fill="#ADD1B2" rx="11" ry="11" style="stroke:#181818;stroke-width:1;"/><path d="M178.4688,153.6406 Q177.8906,153.9375 177.25,154.0781 Q176.6094,154.2344 175.9063,154.2344 Q173.4063,154.2344 172.0781,152.5938 Q170.7656,150.9375 170.7656,147.8125 Q170.7656,144.6875 172.0781,143.0313 Q173.4063,141.375 175.9063,141.375 Q176.6094,141.375 177.25,141.5313 Q177.9063,141.6875 178.4688,141.9844 L178.4688,144.7031 Q177.8438,144.125 177.25,143.8594 Q176.6563,143.5781 176.0313,143.5781 Q174.6875,143.5781 174,144.6563 Q173.3125,145.7188 173.3125,147.8125 Q173.3125,149.9063 174,150.9844 Q174.6875,152.0469 176.0313,152.0469 Q176.6563,152.0469 177.25,151.7813 Q177.8438,151.5 178.4688,150.9219 L178.4688,153.6406 Z " fill="#000000"/><text fill="#000000" font-family="sans-serif" font-size="14" lengthAdjust="spacing" textLength="66.8008" x="189.5" y="152.8467">Database</text><line style="stroke:#181818;stroke-width:0.5;" x1="161.5" x2="258.3008" y1="164" y2="164"/><line style="stroke:#181818;stroke-width:0.5;" x1="161.5" x2="258.3008" y1="172" y2="172"/></g><!--class Trigger--><g class="entity" data-entity="Trigger" data-source-line="8" data-uid="ent0009" id="entity_Trigger"><rect fill="#F1F1F1" height="48" rx="2.5" ry="2.5" style="stroke:#181818;stroke-width:0.5;" width="82.3398" x="7" y="382"/><ellipse cx="22" cy="398" fill="#ADD1B2" rx="11" ry="11" style="stroke:#181818;stroke-width:1;"/><path d="M24.9688,403.6406 Q24.3906,403.9375 23.75,404.0781 Q23.1094,404.2344 22.4063,404.2344 Q19.9063,404.2344 18.5781,402.5938 Q17.2656,400.9375 17.2656,397.8125 Q17.2656,394.6875 18.5781,393.0313 Q19.9063,391.375 22.4063,391.375 Q23.1094,391.375 23.75,391.5313 Q24.4063,391.6875 24.9688,391.9844 L24.9688,394.7031 Q24.3438,394.125 23.75,393.8594 Q23.1563,393.5781 22.5313,393.5781 Q21.1875,393.5781 20.5,394.6563 Q19.8125,395.7188 19.8125,397.8125 Q19.8125,399.9063 20.5,400.9844 Q21.1875,402.0469 22.5313,402.0469 Q23.1563,402.0469 23.75,401.7813 Q24.3438,401.5 24.9688,400.9219 L24.9688,403.6406 Z " fill="#000000"/><text fill="#000000" font-family="sans-serif" font-size="14" lengthAdjust="spacing" textLength="50.3398" x="36" y="402.8467">Trigger</text><line style="stroke:#181818;stroke-width:0.5;" x1="8" x2="88.3398" y1="414" y2="414"/><line style="stroke:#181818;stroke-width:0.5;" x1="8" x2="88.3398" y1="422" y2="422"/></g><!--class Attribute--><g class="entity" data-entity="Attribute" data-source-line="9" data-uid="ent0010" id="entity_Attribute"><rect fill="#F1F1F1" height="48" rx="2.5" ry="2.5" style="stroke:#181818;stroke-width:0.5;" width="94.0635" x="124" y="382"/><ellipse cx="139" cy="398" fill="#ADD1B2" rx="11" ry="11" style="stroke:#181818;stroke-width:1;"/><path d="M141.9688,403.6406 Q141.3906,403.9375 140.75,404.0781 Q140.1094,404.2344 139.4063,404.2344 Q136.9063,404.2344 135.5781,402.5938 Q134.2656,400.9375 134.2656,397.8125 Q134.2656,394.6875 135.5781,393.0313 Q136.9063,391.375 139.4063,391.375 Q140.1094,391.375 140.75,391.5313 Q141.4063,391.6875 141.9688,391.9844 L141.9688,394.7031 Q141.3438,394.125 140.75,393.8594 Q140.1563,393.5781 139.5313,393.5781 Q138.1875,393.5781 137.5,394.6563 Q136.8125,395.7188 136.8125,397.8125 Q136.8125,399.9063 137.5,400.9844 Q138.1875,402.0469 139.5313,402.0469 Q140.1563,402.0469 140.75,401.7813 Q141.3438,401.5 141.9688,400.9219 L141.9688,403.6406 Z " fill="#000000"/><text fill="#000000" font-family="sans-serif" font-size="14" lengthAdjust="spacing" textLength="62.0635" x="153" y="402.8467">Attribute</text><line style="stroke:#181818;stroke-width:0.5;" x1="125" x2="217.0635" y1="414" y2="414"/><line style="stroke:#181818;stroke-width:0.5;" x1="125" x2="217.0635" y1="422" y2="422"/></g><!--class Constraint--><g class="entity" data-entity="Constraint" data-source-line="10" data-uid="ent0011" id="entity_Constraint"><rect fill="#F1F1F1" height="48" rx="2.5" ry="2.5" style="stroke:#181818;stroke-width:0.5;" width="104.584" x="98.5" y="507"/><ellipse cx="113.5" cy="523" fill="#ADD1B2" rx="11" ry="11" style="stroke:#181818;stroke-width:1;"/><path d="M116.4688,528.6406 Q115.8906,528.9375 115.25,529.0781 Q114.6094,529.2344 113.9063,529.2344 Q111.4063,529.2344 110.0781,527.5938 Q108.7656,525.9375 108.7656,522.8125 Q108.7656,519.6875 110.0781,518.0313 Q111.4063,516.375 113.9063,516.375 Q114.6094,516.375 115.25,516.5313 Q115.9063,516.6875 116.4688,516.9844 L116.4688,519.7031 Q115.8438,519.125 115.25,518.8594 Q114.6563,518.5781 114.0313,518.5781 Q112.6875,518.5781 112,519.6563 Q111.3125,520.7188 111.3125,522.8125 Q111.3125,524.9063 112,525.9844 Q112.6875,527.0469 114.0313,527.0469 Q114.6563,527.0469 115.25,526.7813 Q115.8438,526.5 116.4688,525.9219 L116.4688,528.6406 Z " fill="#000000"/><text fill="#000000" font-family="sans-serif" font-size="14" lengthAdjust="spacing" textLength="72.584" x="127.5" y="527.8467">Constraint</text><line style="stroke:#181818;stroke-width:0.5;" x1="99.5" x2="202.084" y1="539" y2="539"/><line style="stroke:#181818;stroke-width:0.5;" x1="99.5" x2="202.084" y1="547" y2="547"/></g><!--class Key--><g class="entity" data-entity="Key" data-source-line="11" data-uid="ent0012" id="entity_Key"><rect fill="#F1F1F1" height="48" rx="2.5" ry="2.5" style="stroke:#181818;stroke-width:0.5;" width="58.0791" x="253" y="382"/><ellipse cx="268" cy="398" fill="#ADD1B2" rx="11" ry="11" style="stroke:#181818;stroke-width:1;"/><path d="M270.9688,403.6406 Q270.3906,403.9375 269.75,404.0781 Q269.1094,404.2344 268.4063,404.2344 Q265.9063,404.2344 264.5781,402.5938 Q263.2656,400.9375 263.2656,397.8125 Q263.2656,394.6875 264.5781,393.0313 Q265.9063,391.375 268.4063,391.375 Q269.1094,391.375 269.75,391.5313 Q270.4063,391.6875 270.9688,391.9844 L270.9688,394.7031 Q270.3438,394.125 269.75,393.8594 Q269.1563,393.5781 268.5313,393.5781 Q267.1875,393.5781 266.5,394.6563 Q265.8125,395.7188 265.8125,397.8125 Q265.8125,399.9063 266.5,400.9844 Q267.1875,402.0469 268.5313,402.0469 Q269.1563,402.0469 269.75,401.7813 Q270.3438,401.5 270.9688,400.9219 L270.9688,403.6406 Z " fill="#000000"/><text fill="#000000" font-family="sans-serif" font-size="14" lengthAdjust="spacing" textLength="26.0791" x="282" y="402.8467">Key</text><line style="stroke:#181818;stroke-width:0.5;" x1="254" x2="310.0791" y1="414" y2="414"/><line style="stroke:#181818;stroke-width:0.5;" x1="254" x2="310.0791" y1="422" y2="422"/></g><!--class Foreign--><g class="entity" data-entity="Foreign" data-source-line="12" data-uid="ent0013" id="entity_Foreign"><rect fill="#F1F1F1" height="48" rx="2.5" ry="2.5" style="stroke:#181818;stroke-width:0.5;" width="84.6367" x="360.5" y="507"/><ellipse cx="375.5" cy="523" fill="#ADD1B2" rx="11" ry="11" style="stroke:#181818;stroke-width:1;"/><path d="M378.4688,528.6406 Q377.8906,528.9375 377.25,529.0781 Q376.6094,529.2344 375.9063,529.2344 Q373.4063,529.2344 372.0781,527.5938 Q370.7656,525.9375 370.7656,522.8125 Q370.7656,519.6875 372.0781,518.0313 Q373.4063,516.375 375.9063,516.375 Q376.6094,516.375 377.25,516.5313 Q377.9063,516.6875 378.4688,516.9844 L378.4688,519.7031 Q377.8438,519.125 377.25,518.8594 Q376.6563,518.5781 376.0313,518.5781 Q374.6875,518.5781 374,519.6563 Q373.3125,520.7188 373.3125,522.8125 Q373.3125,524.9063 374,525.9844 Q374.6875,527.0469 376.0313,527.0469 Q376.6563,527.0469 377.25,526.7813 Q377.8438,526.5 378.4688,525.9219 L378.4688,528.6406 Z " fill="#000000"/><text fill="#000000" font-family="sans-serif" font-size="14" lengthAdjust="spacing" textLength="52.6367" x="389.5" y="527.8467">Foreign</text><line style="stroke:#181818;stroke-width:0.5;" x1="361.5" x2="444.1367" y1="539" y2="539"/><line style="stroke:#181818;stroke-width:0.5;" x1="361.5" x2="444.1367" y1="547" y2="547"/></g><!--class Primary--><g class="entity" data-entity="Primary" data-source-line="13" data-uid="ent0014" id="entity_Primary"><rect fill="#F1F1F1" height="48" rx="2.5" ry="2.5" style="stroke:#181818;stroke-width:0.5;" width="86.3457" x="239" y="507"/><ellipse cx="254" cy="523" fill="#ADD1B2" rx="11" ry="11" style="stroke:#181818;stroke-width:1;"/><path d="M256.9688,528.6406 Q256.3906,528.9375 255.75,529.0781 Q255.1094,529.2344 254.4063,529.2344 Q251.9063,529.2344 250.5781,527.5938 Q249.2656,525.9375 249.2656,522.8125 Q249.2656,519.6875 250.5781,518.0313 Q251.9063,516.375 254.4063,516.375 Q255.1094,516.375 255.75,516.5313 Q256.4063,516.6875 256.9688,516.9844 L256.9688,519.7031 Q256.3438,519.125 255.75,518.8594 Q255.1563,518.5781 254.5313,518.5781 Q253.1875,518.5781 252.5,519.6563 Q251.8125,520.7188 251.8125,522.8125 Q251.8125,524.9063 252.5,525.9844 Q253.1875,527.0469 254.5313,527.0469 Q255.1563,527.0469 255.75,526.7813 Q256.3438,526.5 256.9688,525.9219 L256.9688,528.6406 Z " fill="#000000"/><text fill="#000000" font-family="sans-serif" font-size="14" lengthAdjust="spacing" textLength="54.3457" x="268" y="527.8467">Primary</text><line style="stroke:#181818;stroke-width:0.5;" x1="240" x2="324.3457" y1="539" y2="539"/><line style="stroke:#181818;stroke-width:0.5;" x1="240" x2="324.3457" y1="547" y2="547"/></g><!--link User to Role--><g class="link" data-entity-1="User" data-entity-2="Role" data-source-line="15" data-uid="lnk15" id="link_User_Role"><path codeLine="15" d="M379,55.14 C379,77.13 379,104.01 379,125.97" fill="none" id="User-to-Role" style="stroke:#181818;stroke-width:1;"/><polygon fill="#181818" points="379,131.97,383,122.97,379,126.97,375,122.97,379,131.97" style="stroke:#181818;stroke-width:1;"/><text fill="#000000" font-family="sans-serif" font-size="13" lengthAdjust="spacing" textLength="35.0771" x="380" y="98.0669">has a</text><text fill="#000000" font-family="sans-serif" font-size="13" lengthAdjust="spacing" textLength="8.271" x="370.069" y="74.9353">1</text><text fill="#000000" font-family="sans-serif" font-size="13" lengthAdjust="spacing" textLength="6.5" x="372.3215" y="120.9743">*</text></g><!--link Role to Permission--><g class="link" data-entity-1="Role" data-entity-2="Permission" data-source-line="16" data-uid="lnk16" id="link_Role_Permission"><path codeLine="16" d="M379,180.14 C379,202.13 379,229.01 379,250.97" fill="none" id="Role-to-Permission" style="stroke:#181818;stroke-width:1;"/><polygon fill="#181818" points="379,256.97,383,247.97,379,251.97,375,247.97,379,256.97" style="stroke:#181818;stroke-width:1;"/><text fill="#000000" font-family="sans-serif" font-size="13" lengthAdjust="spacing" textLength="22.9785" x="380" y="223.0669">has</text><text fill="#000000" font-family="sans-serif" font-size="13" lengthAdjust="spacing" textLength="8.271" x="370.0829" y="199.9353">1</text><text fill="#000000" font-family="sans-serif" font-size="13" lengthAdjust="spacing" textLength="6.5" x="372.2627" y="245.9743">*</text></g><!--link Permission to View--><g class="link" data-entity-1="Permission" data-entity-2="View" data-source-line="17" data-uid="lnk17" id="link_Permission_View"><path codeLine="17" d="M379,305.14 C379,327.13 379,354.01 379,375.97" fill="none" id="Permission-to-View" style="stroke:#181818;stroke-width:1;"/><polygon fill="#181818" points="379,381.97,383,372.97,379,376.97,375,372.97,379,381.97" style="stroke:#181818;stroke-width:1;"/><text fill="#000000" font-family="sans-serif" font-size="13" lengthAdjust="spacing" textLength="41.0884" x="380" y="348.0669">over a</text><text fill="#000000" font-family="sans-serif" font-size="13" lengthAdjust="spacing" textLength="8.271" x="370.027" y="324.9353">1</text><text fill="#000000" font-family="sans-serif" font-size="13" lengthAdjust="spacing" textLength="6.5" x="372.3555" y="370.9743">*</text></g><!--reverse link Table to View--><g class="link" data-entity-1="Table" data-entity-2="View" data-source-line="19" data-uid="lnk18" id="link_Table_View"><path codeLine="19" d="M235.6088,311.6837 C270.1488,334.1537 312.12,361.47 345.83,383.41" fill="none" id="Table-backto-View" style="stroke:#181818;stroke-width:1;"/><polygon fill="#181818" points="225.55,305.14,228.3981,311.7648,235.6088,311.6837,232.7606,305.0589,225.55,305.14" style="stroke:#181818;stroke-width:1;"/><text fill="#000000" font-family="sans-serif" font-size="13" lengthAdjust="spacing" textLength="35.0771" x="296" y="348.0669">has a</text><text fill="#000000" font-family="sans-serif" font-size="13" lengthAdjust="spacing" textLength="8.271" x="225.3318" y="324.9353">1</text><text fill="#000000" font-family="sans-serif" font-size="13" lengthAdjust="spacing" textLength="23.0356" x="319.011" y="371.8681">0..*</text></g><!--reverse link Table to Trigger--><g class="link" data-entity-1="Table" data-entity-2="Trigger" data-source-line="20" data-uid="lnk19" id="link_Table_Trigger"><path codeLine="20" d="M143.2655,298.3696 C121.4755,307.0696 105.3,316.19 86,335 C72.53,348.12 62.65,367.06 56.34,381.93" fill="none" id="Table-backto-Trigger" style="stroke:#181818;stroke-width:1;"/><polygon fill="none" points="154.41,293.92,147.3545,292.43,143.2655,298.3696,150.3209,299.8597,154.41,293.92" style="stroke:#181818;stroke-width:1;"/><text fill="#000000" font-family="sans-serif" font-size="13" lengthAdjust="spacing" textLength="71.2334" x="87" y="348.0669">could have</text><text fill="#000000" font-family="sans-serif" font-size="13" lengthAdjust="spacing" textLength="23.0356" x="123.3607" y="291.9299">0..*</text><text fill="#000000" font-family="sans-serif" font-size="13" lengthAdjust="spacing" textLength="23.0356" x="32.4913" y="370.9241">0..*</text></g><!--reverse link Table to Attribute--><g class="link" data-entity-1="Table" data-entity-2="Attribute" data-source-line="21" data-uid="lnk20" id="link_Table_Attribute"><path codeLine="21" d="M173.9253,316.2135 C170.0653,325.2935 170.93,324.89 169,335 C166.06,350.41 166.59,368.06 167.84,381.78" fill="none" id="Table-backto-Attribute" style="stroke:#181818;stroke-width:1;"/><polygon fill="#181818" points="178.62,305.17,172.5915,309.1269,173.9253,316.2135,179.9538,312.2567,178.62,305.17" style="stroke:#181818;stroke-width:1;"/><text fill="#000000" font-family="sans-serif" font-size="13" lengthAdjust="spacing" textLength="22.9785" x="170" y="348.0669">has</text><text fill="#000000" font-family="sans-serif" font-size="13" lengthAdjust="spacing" textLength="8.271" x="166.9626" y="324.9726">1</text><text fill="#000000" font-family="sans-serif" font-size="13" lengthAdjust="spacing" textLength="23.0356" x="141.2632" y="371.1313">1..*</text></g><!--reverse link Table to Key--><g class="link" data-entity-1="Table" data-entity-2="Key" data-source-line="22" data-uid="lnk21" id="link_Table_Key"><path codeLine="22" d="M209.2174,315.3736 C217.5074,329.3636 222.64,337.01 234,352 C241.72,362.19 251,372.76 259.33,381.75" fill="none" id="Table-backto-Key" style="stroke:#181818;stroke-width:1;"/><polygon fill="#181818" points="203.1,305.05,202.7175,312.251,209.2174,315.3736,209.5999,308.1727,203.1,305.05" style="stroke:#181818;stroke-width:1;"/><text fill="#000000" font-family="sans-serif" font-size="13" lengthAdjust="spacing" textLength="22.9785" x="235" y="348.0669">has</text><text fill="#000000" font-family="sans-serif" font-size="13" lengthAdjust="spacing" textLength="8.271" x="197.528" y="325.2186">1</text><text fill="#000000" font-family="sans-serif" font-size="13" lengthAdjust="spacing" textLength="23.0356" x="227.9958" y="371.094">0..*</text></g><!--link Attribute to Constraint--><g class="link" data-entity-1="Attribute" data-entity-2="Constraint" data-source-line="23" data-uid="lnk22" id="link_Attribute_Constraint"><path codeLine="23" d="M167.24,430.14 C163.66,452.13 159.2854,479.0882 155.7054,501.0482" fill="none" id="Attribute-to-Constraint" style="stroke:#181818;stroke-width:1;"/><polygon fill="#181818" points="154.74,506.97,160.136,498.7309,155.5445,502.0351,152.2402,497.4437,154.74,506.97" style="stroke:#181818;stroke-width:1;"/><text fill="#000000" font-family="sans-serif" font-size="13" lengthAdjust="spacing" textLength="71.2334" x="163" y="473.0669">could have</text><text fill="#000000" font-family="sans-serif" font-size="13" lengthAdjust="spacing" textLength="23.0356" x="140.517" y="449.9353">0..*</text><text fill="#000000" font-family="sans-serif" font-size="13" lengthAdjust="spacing" textLength="6.5" x="149.047" y="495.9743">*</text></g><!--reverse link Database to Table--><g class="link" data-entity-1="Database" data-entity-2="Table" data-source-line="24" data-uid="lnk24" id="link_Database_Table"><path codeLine="24" d="M205.2759,186.062 C201.6959,208.052 197.32,235.01 193.74,256.97" fill="none" id="Database-backto-Table" style="stroke:#181818;stroke-width:1;stroke-dasharray:7,7;"/><polygon fill="#181818" points="206.24,180.14,200.8458,188.3803,205.4366,185.075,208.7419,189.6658,206.24,180.14" style="stroke:#181818;stroke-width:1;"/><text fill="#000000" font-family="sans-serif" font-size="13" lengthAdjust="spacing" textLength="88.188" x="202" y="223.0669">depends on a</text></g><!--reverse link Schema to Table--><g class="link" data-entity-1="Schema" data-entity-2="Table" data-source-line="25" data-uid="lnk26" id="link_Schema_Table"><path codeLine="25" d="M102.2101,184.9666 C112.9501,198.8566 123.51,211.92 137,227 C146.03,237.08 156.46,247.72 165.68,256.8" fill="none" id="Schema-backto-Table" style="stroke:#181818;stroke-width:1;stroke-dasharray:7,7;"/><polygon fill="#181818" points="98.54,180.22,100.8808,189.7866,101.5985,184.1755,107.2096,184.8931,98.54,180.22" style="stroke:#181818;stroke-width:1;"/><text fill="#000000" font-family="sans-serif" font-size="13" lengthAdjust="spacing" textLength="51.3589" x="138" y="223.0669">needs a</text></g><!--reverse link Key to Foreign--><g class="link" data-entity-1="Key" data-entity-2="Foreign" data-source-line="28" data-uid="lnk27" id="link_Key_Foreign"><path codeLine="28" d="M321.8581,442.2738 C331.9281,451.3538 330.01,449.93 340,460 C354.97,475.09 370.98,492.9 383.12,506.78" fill="none" id="Key-backto-Foreign" style="stroke:#181818;stroke-width:1;"/><polygon fill="none" points="308.49,430.22,317.8401,446.7299,325.876,437.8178,308.49,430.22" style="stroke:#181818;stroke-width:1;"/><text fill="#000000" font-family="sans-serif" font-size="13" lengthAdjust="spacing" textLength="48.915" x="357" y="473.0669">inherits</text></g><!--reverse link Key to Primary--><g class="link" data-entity-1="Key" data-entity-2="Primary" data-source-line="29" data-uid="lnk28" id="link_Key_Primary"><path codeLine="29" d="M282,448.14 C282,470.13 282,485.01 282,506.97" fill="none" id="Key-backto-Primary" style="stroke:#181818;stroke-width:1;"/><polygon fill="none" points="282,430.14,276,448.14,288,448.14,282,430.14" style="stroke:#181818;stroke-width:1;"/><text fill="#000000" font-family="sans-serif" font-size="13" lengthAdjust="spacing" textLength="48.915" x="283" y="473.0669">inherits</text></g><!--SRC=[RP71QiCm38RlVWhXOo5XlPPH61kxz5AsRdSb4OaXiOljj1Jsy7CSEKx6V9Abpxz_INMFpi6N8olg67wOdZWyansKSyfeJdmhkdDumMhXFkkE1kJB6tgiqANQnQgsNSHVlBUg6dsglXhjl4MbFITEzE3etLXIRVhvRDM0zY74v1JaNa9H747kPFGB1-ZG0OfuMLTp2pCZLearDtKM27CBwYX4x2u2kw80-LIMcOa_GJu9dY6JUMuzFAdDs3VXuOtWh_G-eijSM7-hlBKHHhIXPZGhC9OwooF-rqWvNilZihI0D7GbtJW80y8DCsyv49gecOOjn6Jb-ITOusM5ej8TMULThl7gLhLV]--></g></svg>