<svg xmlns="http://www.w3.org/2000/svg" xmlns:xlink="http://www.w3.org/1999/xlink" contentStyleType="text/css" data-diagram-type="CLASS" height="501px" preserveAspectRatio="none" style="width:1251px;height:501px;background:#FFFFFF;" version="1.1" viewBox="0 0 1251 501" width="1251px" zoomAndPan="magnify"><defs/><g><g class="entity" data-entity="employee" data-source-line="1" data-uid="ent0002" id="entity_employee"><rect fill="#F1F1F1" height="36.2969" rx="2.5" ry="2.5" style="stroke:#181818;stroke-width:0.5;" width="128.6318" x="1079" y="7"/><text fill="#000000" font-family="sans-serif" font-size="14" lengthAdjust="spacing" textLength="114.6318" x="1086" y="21.9951">employee : User</text><line style="stroke:#181818;stroke-width:0.5;" x1="1080" x2="1206.6318" y1="27.2969" y2="27.2969"/></g><g class="entity" data-entity="librarian" data-source-line="2" data-uid="ent0003" id="entity_librarian"><rect fill="#F1F1F1" height="36.2969" rx="2.5" ry="2.5" style="stroke:#181818;stroke-width:0.5;" width="147.3076" x="1070" y="120"/><text fill="#000000" font-family="sans-serif" font-size="14" lengthAdjust="spacing" textLength="133.3076" x="1077" y="134.9951">librarianRole : Role</text><line style="stroke:#181818;stroke-width:0.5;" x1="1071" x2="1216.3076" y1="140.2969" y2="140.2969"/></g><g class="entity" data-entity="manageBooks" data-source-line="3" data-uid="ent0004" id="entity_manageBooks"><rect fill="#F1F1F1" height="36.2969" rx="2.5" ry="2.5" style="stroke:#181818;stroke-width:0.5;" width="203.1777" x="1042" y="233"/><text fill="#000000" font-family="sans-serif" font-size="14" lengthAdjust="spacing" textLength="189.1777" x="1049" y="247.9951">manageBooks : Permission</text><line style="stroke:#181818;stroke-width:0.5;" x1="1043" x2="1244.1777" y1="253.2969" y2="253.2969"/></g><g class="entity" data-entity="dbLibrary" data-source-line="5" data-uid="ent0005" id="entity_dbLibrary"><rect fill="#F1F1F1" height="36.2969" rx="2.5" ry="2.5" style="stroke:#181818;stroke-width:0.5;" width="161.1436" x="598" y="120"/><text fill="#000000" font-family="sans-serif" font-size="14" lengthAdjust="spacing" textLength="147.1436" x="605" y="134.9951">dbLibrary : Database</text><line style="stroke:#181818;stroke-width:0.5;" x1="599" x2="758.1436" y1="140.2969" y2="140.2969"/></g><g class="entity" data-entity="schemaBooks" data-source-line="6" data-uid="ent0006" id="entity_schemaBooks"><rect fill="#F1F1F1" height="36.2969" rx="2.5" ry="2.5" style="stroke:#181818;stroke-width:0.5;" width="180.7354" x="382" y="120"/><text fill="#000000" font-family="sans-serif" font-size="14" lengthAdjust="spacing" textLength="166.7354" x="389" y="134.9951">schemaBooks : Schema</text><line style="stroke:#181818;stroke-width:0.5;" x1="383" x2="561.7354" y1="140.2969" y2="140.2969"/></g><g class="entity" data-entity="books" data-source-line="8" data-uid="ent0007" id="entity_books"><rect fill="#F1F1F1" height="36.2969" rx="2.5" ry="2.5" style="stroke:#181818;stroke-width:0.5;" width="107.5566" x="521.5" y="233"/><text fill="#000000" font-family="sans-serif" font-size="14" lengthAdjust="spacing" textLength="93.5566" x="528.5" y="247.9951">books : Table</text><line style="stroke:#181818;stroke-width:0.5;" x1="522.5" x2="628.0566" y1="253.2969" y2="253.2969"/></g><g class="entity" data-entity="viewAvailableBooks" data-source-line="9" data-uid="ent0008" id="entity_viewAvailableBooks"><rect fill="#F1F1F1" height="36.2969" rx="2.5" ry="2.5" style="stroke:#181818;stroke-width:0.5;" width="199.7119" x="1043.5" y="346"/><text fill="#000000" font-family="sans-serif" font-size="14" lengthAdjust="spacing" textLength="185.7119" x="1050.5" y="360.9951">viewAvailableBooks : View</text><line style="stroke:#181818;stroke-width:0.5;" x1="1044.5" x2="1242.2119" y1="366.2969" y2="366.2969"/></g><g class="entity" data-entity="triggerUpdateStock" data-source-line="10" data-uid="ent0009" id="entity_triggerUpdateStock"><rect fill="#F1F1F1" height="36.2969" rx="2.5" ry="2.5" style="stroke:#181818;stroke-width:0.5;" width="214.6826" x="7" y="346"/><text fill="#000000" font-family="sans-serif" font-size="14" lengthAdjust="spacing" textLength="200.6826" x="14" y="360.9951">triggerUpdateStock : Trigger</text><line style="stroke:#181818;stroke-width:0.5;" x1="8" x2="220.6826" y1="366.2969" y2="366.2969"/></g><g class="entity" data-entity="title" data-source-line="11" data-uid="ent0010" id="entity_title"><rect fill="#F1F1F1" height="36.2969" rx="2.5" ry="2.5" style="stroke:#181818;stroke-width:0.5;" width="117.0518" x="257" y="346"/><text fill="#000000" font-family="sans-serif" font-size="14" lengthAdjust="spacing" textLength="103.0518" x="264" y="360.9951">title : Attribute</text><line style="stroke:#181818;stroke-width:0.5;" x1="258" x2="373.0518" y1="366.2969" y2="366.2969"/></g><g class="entity" data-entity="author" data-source-line="12" data-uid="ent0011" id="entity_author"><rect fill="#F1F1F1" height="36.2969" rx="2.5" ry="2.5" style="stroke:#181818;stroke-width:0.5;" width="135.8164" x="409.5" y="346"/><text fill="#000000" font-family="sans-serif" font-size="14" lengthAdjust="spacing" textLength="121.8164" x="416.5" y="360.9951">author : Attribute</text><line style="stroke:#181818;stroke-width:0.5;" x1="410.5" x2="544.3164" y1="366.2969" y2="366.2969"/></g><g class="entity" data-entity="primaryBookId" data-source-line="13" data-uid="ent0012" id="entity_primaryBookId"><rect fill="#F1F1F1" height="36.2969" rx="2.5" ry="2.5" style="stroke:#181818;stroke-width:0.5;" width="184.6113" x="581" y="346"/><text fill="#000000" font-family="sans-serif" font-size="14" lengthAdjust="spacing" textLength="170.6113" x="588" y="360.9951">primaryBookId : Primary</text><line style="stroke:#181818;stroke-width:0.5;" x1="582" x2="764.6113" y1="366.2969" y2="366.2969"/></g><g class="entity" data-entity="foreignCategoryId" data-source-line="14" data-uid="ent0013" id="entity_foreignCategoryId"><rect fill="#F1F1F1" height="36.2969" rx="2.5" ry="2.5" style="stroke:#181818;stroke-width:0.5;" width="206.7324" x="801" y="346"/><text fill="#000000" font-family="sans-serif" font-size="14" lengthAdjust="spacing" textLength="192.7324" x="808" y="360.9951">foreignCategoryId : Foreign</text><line style="stroke:#181818;stroke-width:0.5;" x1="802" x2="1006.7324" y1="366.2969" y2="366.2969"/></g><g class="entity" data-entity="notNullConstraint" data-source-line="15" data-uid="ent0014" id="entity_notNullConstraint"><rect fill="#F1F1F1" height="36.2969" rx="2.5" ry="2.5" style="stroke:#181818;stroke-width:0.5;" width="222.8379" x="204" y="459"/><text fill="#000000" font-family="sans-serif" font-size="14" lengthAdjust="spacing" textLength="208.8379" x="211" y="473.9951">notNullConstraint : Constraint</text><line style="stroke:#181818;stroke-width:0.5;" x1="205" x2="425.8379" y1="479.2969" y2="479.2969"/></g><!--link employee to librarian--><g class="link" data-entity-1="employee" data-entity-2="librarian" data-source-line="17" data-uid="lnk15" id="link_employee_librarian"><path codeLine="17" d="M1143.5,43.34 C1143.5,64.2 1143.5,92.98 1143.5,113.78" fill="none" id="employee-to-librarian" style="stroke:#181818;stroke-width:1;"/><polygon fill="#181818" points="1143.5,119.78,1147.5,110.78,1143.5,114.78,1139.5,110.78,1143.5,119.78" style="stroke:#181818;stroke-width:1;"/><text fill="#000000" font-family="sans-serif" font-size="13" lengthAdjust="spacing" textLength="35.0771" x="1144.5" y="86.0669">has a</text></g><!--link librarian to manageBooks--><g class="link" data-entity-1="librarian" data-entity-2="manageBooks" data-source-line="18" data-uid="lnk16" id="link_librarian_manageBooks"><path codeLine="18" d="M1143.5,156.34 C1143.5,177.2 1143.5,205.98 1143.5,226.78" fill="none" id="librarian-to-manageBooks" style="stroke:#181818;stroke-width:1;"/><polygon fill="#181818" points="1143.5,232.78,1147.5,223.78,1143.5,227.78,1139.5,223.78,1143.5,232.78" style="stroke:#181818;stroke-width:1;"/><text fill="#000000" font-family="sans-serif" font-size="13" lengthAdjust="spacing" textLength="35.0771" x="1144.5" y="199.0669">has a</text></g><!--link manageBooks to viewAvailableBooks--><g class="link" data-entity-1="manageBooks" data-entity-2="viewAvailableBooks" data-source-line="19" data-uid="lnk17" id="link_manageBooks_viewAvailableBooks"><path codeLine="19" d="M1143.5,269.34 C1143.5,290.2 1143.5,318.98 1143.5,339.78" fill="none" id="manageBooks-to-viewAvailableBooks" style="stroke:#181818;stroke-width:1;"/><polygon fill="#181818" points="1143.5,345.78,1147.5,336.78,1143.5,340.78,1139.5,336.78,1143.5,345.78" style="stroke:#181818;stroke-width:1;"/><text fill="#000000" font-family="sans-serif" font-size="13" lengthAdjust="spacing" textLength="41.0884" x="1144.5" y="312.0669">over a</text></g><!--reverse link books to viewAvailableBooks--><g class="link" data-entity-1="books" data-entity-2="viewAvailableBooks" data-source-line="21" data-uid="lnk18" id="link_books_viewAvailableBooks"><path codeLine="21" d="M641.4771,264.8921 C740.0571,284.1621 937.67,322.78 1056.46,345.99" fill="none" id="books-backto-viewAvailableBooks" style="stroke:#181818;stroke-width:1;"/><polygon fill="#181818" points="629.7,262.59,634.8212,267.6668,641.4771,264.8921,636.3559,259.8154,629.7,262.59" style="stroke:#181818;stroke-width:1;"/><text fill="#000000" font-family="sans-serif" font-size="13" lengthAdjust="spacing" textLength="35.0771" x="894.5" y="312.0669">has a</text></g><!--reverse link books to triggerUpdateStock--><g class="link" data-entity-1="books" data-entity-2="triggerUpdateStock" data-source-line="22" data-uid="lnk19" id="link_books_triggerUpdateStock"><path codeLine="22" d="M509.5936,267.8696 C426.1736,287.9596 278.01,323.63 185.48,345.91" fill="none" id="books-backto-triggerUpdateStock" style="stroke:#181818;stroke-width:1;"/><polygon fill="none" points="521.26,265.06,514.4902,262.576,509.5936,267.8696,516.3633,270.3536,521.26,265.06" style="stroke:#181818;stroke-width:1;"/><text fill="#000000" font-family="sans-serif" font-size="13" lengthAdjust="spacing" textLength="35.0771" x="374.5" y="312.0669">has a</text></g><!--reverse link books to title--><g class="link" data-entity-1="books" data-entity-2="title" data-source-line="23" data-uid="lnk20" id="link_books_title"><path codeLine="23" d="M524.4041,273.8126 C475.5541,294.6726 404.48,325.01 355.6,345.88" fill="none" id="books-backto-title" style="stroke:#181818;stroke-width:1;"/><polygon fill="#181818" points="535.44,269.1,528.3512,267.7776,524.4041,273.8126,531.4929,275.1349,535.44,269.1" style="stroke:#181818;stroke-width:1;"/><text fill="#000000" font-family="sans-serif" font-size="13" lengthAdjust="spacing" textLength="35.0771" x="462.5" y="312.0669">has a</text></g><!--reverse link books to author--><g class="link" data-entity-1="books" data-entity-2="author" data-source-line="24" data-uid="lnk21" id="link_books_author"><path codeLine="24" d="M552.2495,278.3372 C533.8395,299.1972 511.07,324.98 492.7,345.78" fill="none" id="books-backto-author" style="stroke:#181818;stroke-width:1;"/><polygon fill="#181818" points="560.19,269.34,553.2207,271.1918,552.2495,278.3372,559.2188,276.4854,560.19,269.34" style="stroke:#181818;stroke-width:1;"/><text fill="#000000" font-family="sans-serif" font-size="13" lengthAdjust="spacing" textLength="35.0771" x="533.5" y="312.0669">has a</text></g><!--reverse link books to primaryBookId--><g class="link" data-entity-1="books" data-entity-2="primaryBookId" data-source-line="25" data-uid="lnk22" id="link_books_primaryBookId"><path codeLine="25" d="M598.7505,278.3372 C617.1605,299.1972 639.93,324.98 658.3,345.78" fill="none" id="books-backto-primaryBookId" style="stroke:#181818;stroke-width:1;"/><polygon fill="#181818" points="590.81,269.34,591.7812,276.4854,598.7505,278.3372,597.7793,271.1918,590.81,269.34" style="stroke:#181818;stroke-width:1;"/><text fill="#000000" font-family="sans-serif" font-size="13" lengthAdjust="spacing" textLength="35.0771" x="630.5" y="312.0669">has a</text></g><!--reverse link books to foreignCategoryId--><g class="link" data-entity-1="books" data-entity-2="foreignCategoryId" data-source-line="26" data-uid="lnk23" id="link_books_foreignCategoryId"><path codeLine="26" d="M637.5602,272.9366 C699.4702,293.8266 792.21,325.11 854.03,345.97" fill="none" id="books-backto-foreignCategoryId" style="stroke:#181818;stroke-width:1;"/><polygon fill="#181818" points="626.19,269.1,630.5962,274.8083,637.5602,272.9366,633.1539,267.2282,626.19,269.1" style="stroke:#181818;stroke-width:1;"/><text fill="#000000" font-family="sans-serif" font-size="13" lengthAdjust="spacing" textLength="35.0771" x="760.5" y="312.0669">has a</text></g><!--link title to notNullConstraint--><g class="link" data-entity-1="title" data-entity-2="notNullConstraint" data-source-line="28" data-uid="lnk24" id="link_title_notNullConstraint"><path codeLine="28" d="M315.5,382.34 C315.5,403.2 315.5,431.98 315.5,452.78" fill="none" id="title-to-notNullConstraint" style="stroke:#181818;stroke-width:1;"/><polygon fill="#181818" points="315.5,458.78,319.5,449.78,315.5,453.78,311.5,449.78,315.5,458.78" style="stroke:#181818;stroke-width:1;"/><text fill="#000000" font-family="sans-serif" font-size="13" lengthAdjust="spacing" textLength="35.0771" x="316.5" y="425.0669">has a</text></g><!--reverse link dbLibrary to books--><g class="link" data-entity-1="dbLibrary" data-entity-2="books" data-source-line="30" data-uid="lnk26" id="link_dbLibrary_books"><path codeLine="30" d="M658.3296,160.7389 C638.9796,181.5989 610.78,211.98 591.48,232.78" fill="none" id="dbLibrary-backto-books" style="stroke:#181818;stroke-width:1;stroke-dasharray:7,7;"/><polygon fill="#181818" points="662.41,156.34,653.3568,160.218,659.0096,160.0057,659.2219,165.6586,662.41,156.34" style="stroke:#181818;stroke-width:1;"/><text fill="#000000" font-family="sans-serif" font-size="13" lengthAdjust="spacing" textLength="88.188" x="633.5" y="199.0669">depends on a</text></g><!--reverse link schemaBooks to books--><g class="link" data-entity-1="schemaBooks" data-entity-2="books" data-source-line="31" data-uid="lnk28" id="link_schemaBooks_books"><path codeLine="31" d="M492.6704,160.7389 C512.0204,181.5989 540.22,211.98 559.52,232.78" fill="none" id="schemaBooks-backto-books" style="stroke:#181818;stroke-width:1;stroke-dasharray:7,7;"/><polygon fill="#181818" points="488.59,156.34,491.7781,165.6586,491.9904,160.0057,497.6432,160.218,488.59,156.34" style="stroke:#181818;stroke-width:1;"/><text fill="#000000" font-family="sans-serif" font-size="13" lengthAdjust="spacing" textLength="51.3589" x="531.5" y="199.0669">needs a</text></g><!--SRC=[RPD1ReCm44NtFWNAiX8vG1UHqbILAbLLrJJTZyEKk04FiWrLRb_R0uO0A-J_tn-FFORaBvvTji6wgUY6c3rc9ujcau7D1arG3rLA6Z0Az2TLWGoVI2OZeJLeAF69w6ez-86cLjOgqX6Vc28b2laMgzmy_mmE95Wkdeo4slC5QnYA7-CgeXDZB2nxxWjatsvKajyf_DjteAhW3qM_lHZPfPk2pgYoH7Dg2d1uT7I-XbrOZDabC6QLYrUuTnwIhUF6efeOQDs5p09YEL6DKRM_dD3QQn7kcjSHlVDIueSCgb8VV5CbcLjClR0MKmi_9JMvzxQg3gIjCw2qyybn4SCBH8Zqjl9yDpuL7xs4quXH2Vxzms5YgWLcTMBKeV6iu74_vFawnXKP8W-j3d4AXKh3jEPwcj3Sc0zbxg-DW1d1UuLZhjrs3t6bRTjiTzdqnocmGLtua-cq7KFtlun6z13y0m00]--></g></svg>