<svg xmlns="http://www.w3.org/2000/svg" xmlns:xlink="http://www.w3.org/1999/xlink" contentStyleType="text/css" data-diagram-type="CLASS" height="501px" preserveAspectRatio="none" style="width:2599px;height:501px;background:#FFFFFF;" version="1.1" viewBox="0 0 2599 501" width="2599px" zoomAndPan="magnify"><defs/><g><g class="entity" data-entity="professor" data-source-line="1" data-uid="ent0002" id="entity_professor"><rect fill="#F1F1F1" height="36.2969" rx="2.5" ry="2.5" style="stroke:#181818;stroke-width:0.5;" width="125.1865" x="53" y="7"/><text fill="#000000" font-family="sans-serif" font-size="14" lengthAdjust="spacing" textLength="111.1865" x="60" y="21.9951">professor : User</text><line style="stroke:#181818;stroke-width:0.5;" x1="54" x2="177.1865" y1="27.2969" y2="27.2969"/></g><g class="entity" data-entity="professorRole" data-source-line="2" data-uid="ent0003" id="entity_professorRole"><rect fill="#F1F1F1" height="36.2969" rx="2.5" ry="2.5" style="stroke:#181818;stroke-width:0.5;" width="154.8682" x="38" y="120"/><text fill="#000000" font-family="sans-serif" font-size="14" lengthAdjust="spacing" textLength="140.8682" x="45" y="134.9951">professorRole : Role</text><line style="stroke:#181818;stroke-width:0.5;" x1="39" x2="191.8682" y1="140.2969" y2="140.2969"/></g><g class="entity" data-entity="manageCourses" data-source-line="3" data-uid="ent0004" id="entity_manageCourses"><rect fill="#F1F1F1" height="36.2969" rx="2.5" ry="2.5" style="stroke:#181818;stroke-width:0.5;" width="217.2119" x="7" y="233"/><text fill="#000000" font-family="sans-serif" font-size="14" lengthAdjust="spacing" textLength="203.2119" x="14" y="247.9951">manageCourses : Permission</text><line style="stroke:#181818;stroke-width:0.5;" x1="8" x2="223.2119" y1="253.2969" y2="253.2969"/></g><g class="entity" data-entity="dbCampus" data-source-line="5" data-uid="ent0005" id="entity_dbCampus"><rect fill="#F1F1F1" height="36.2969" rx="2.5" ry="2.5" style="stroke:#181818;stroke-width:0.5;" width="169.2373" x="1410" y="120"/><text fill="#000000" font-family="sans-serif" font-size="14" lengthAdjust="spacing" textLength="155.2373" x="1417" y="134.9951">dbCampus : Database</text><line style="stroke:#181818;stroke-width:0.5;" x1="1411" x2="1578.2373" y1="140.2969" y2="140.2969"/></g><g class="entity" data-entity="schemaCourses" data-source-line="6" data-uid="ent0006" id="entity_schemaCourses"><rect fill="#F1F1F1" height="36.2969" rx="2.5" ry="2.5" style="stroke:#181818;stroke-width:0.5;" width="194.7695" x="850" y="120"/><text fill="#000000" font-family="sans-serif" font-size="14" lengthAdjust="spacing" textLength="180.7695" x="857" y="134.9951">schemaCourses : Schema</text><line style="stroke:#181818;stroke-width:0.5;" x1="851" x2="1043.7695" y1="140.2969" y2="140.2969"/></g><g class="entity" data-entity="courses" data-source-line="8" data-uid="ent0007" id="entity_courses"><rect fill="#F1F1F1" height="36.2969" rx="2.5" ry="2.5" style="stroke:#181818;stroke-width:0.5;" width="120.2305" x="761.5" y="233"/><text fill="#000000" font-family="sans-serif" font-size="14" lengthAdjust="spacing" textLength="106.2305" x="768.5" y="247.9951">courses : Table</text><line style="stroke:#181818;stroke-width:0.5;" x1="762.5" x2="880.7305" y1="253.2969" y2="253.2969"/></g><g class="entity" data-entity="viewActiveCourses" data-source-line="9" data-uid="ent0008" id="entity_viewActiveCourses"><rect fill="#F1F1F1" height="36.2969" rx="2.5" ry="2.5" style="stroke:#181818;stroke-width:0.5;" width="193.1084" x="19" y="346"/><text fill="#000000" font-family="sans-serif" font-size="14" lengthAdjust="spacing" textLength="179.1084" x="26" y="360.9951">viewActiveCourses : View</text><line style="stroke:#181818;stroke-width:0.5;" x1="20" x2="211.1084" y1="366.2969" y2="366.2969"/></g><g class="entity" data-entity="triggerUpdateEnrollment" data-source-line="10" data-uid="ent0009" id="entity_triggerUpdateEnrollment"><rect fill="#F1F1F1" height="36.2969" rx="2.5" ry="2.5" style="stroke:#181818;stroke-width:0.5;" width="252.3691" x="247.5" y="346"/><text fill="#000000" font-family="sans-serif" font-size="14" lengthAdjust="spacing" textLength="238.3691" x="254.5" y="360.9951">triggerUpdateEnrollment : Trigger</text><line style="stroke:#181818;stroke-width:0.5;" x1="248.5" x2="498.8691" y1="366.2969" y2="366.2969"/></g><g class="entity" data-entity="courseName" data-source-line="11" data-uid="ent0010" id="entity_courseName"><rect fill="#F1F1F1" height="36.2969" rx="2.5" ry="2.5" style="stroke:#181818;stroke-width:0.5;" width="177.7822" x="918.5" y="346"/><text fill="#000000" font-family="sans-serif" font-size="14" lengthAdjust="spacing" textLength="163.7822" x="925.5" y="360.9951">courseName : Attribute</text><line style="stroke:#181818;stroke-width:0.5;" x1="919.5" x2="1095.2822" y1="366.2969" y2="366.2969"/></g><g class="entity" data-entity="credits" data-source-line="12" data-uid="ent0011" id="entity_credits"><rect fill="#F1F1F1" height="36.2969" rx="2.5" ry="2.5" style="stroke:#181818;stroke-width:0.5;" width="137.3066" x="535" y="346"/><text fill="#000000" font-family="sans-serif" font-size="14" lengthAdjust="spacing" textLength="123.3066" x="542" y="360.9951">credits : Attribute</text><line style="stroke:#181818;stroke-width:0.5;" x1="536" x2="671.3066" y1="366.2969" y2="366.2969"/></g><g class="entity" data-entity="primaryCourseId" data-source-line="13" data-uid="ent0012" id="entity_primaryCourseId"><rect fill="#F1F1F1" height="36.2969" rx="2.5" ry="2.5" style="stroke:#181818;stroke-width:0.5;" width="198.6455" x="1193" y="459"/><text fill="#000000" font-family="sans-serif" font-size="14" lengthAdjust="spacing" textLength="184.6455" x="1200" y="473.9951">primaryCourseId : Primary</text><line style="stroke:#181818;stroke-width:0.5;" x1="1194" x2="1390.6455" y1="479.2969" y2="479.2969"/></g><g class="entity" data-entity="foreignDeptId" data-source-line="14" data-uid="ent0013" id="entity_foreignDeptId"><rect fill="#F1F1F1" height="36.2969" rx="2.5" ry="2.5" style="stroke:#181818;stroke-width:0.5;" width="176.5518" x="707" y="346"/><text fill="#000000" font-family="sans-serif" font-size="14" lengthAdjust="spacing" textLength="162.5518" x="714" y="360.9951">foreignDeptId : Foreign</text><line style="stroke:#181818;stroke-width:0.5;" x1="708" x2="882.5518" y1="366.2969" y2="366.2969"/></g><g class="entity" data-entity="notNullConstraintCourse" data-source-line="15" data-uid="ent0014" id="entity_notNullConstraintCourse"><rect fill="#F1F1F1" height="36.2969" rx="2.5" ry="2.5" style="stroke:#181818;stroke-width:0.5;" width="271.7148" x="871.5" y="459"/><text fill="#000000" font-family="sans-serif" font-size="14" lengthAdjust="spacing" textLength="257.7148" x="878.5" y="473.9951">notNullConstraintCourse : Constraint</text><line style="stroke:#181818;stroke-width:0.5;" x1="872.5" x2="1142.2148" y1="479.2969" y2="479.2969"/></g><g class="entity" data-entity="students" data-source-line="17" data-uid="ent0015" id="entity_students"><rect fill="#F1F1F1" height="36.2969" rx="2.5" ry="2.5" style="stroke:#181818;stroke-width:0.5;" width="126.9502" x="1627" y="233"/><text fill="#000000" font-family="sans-serif" font-size="14" lengthAdjust="spacing" textLength="112.9502" x="1634" y="247.9951">students : Table</text><line style="stroke:#181818;stroke-width:0.5;" x1="1628" x2="1752.9502" y1="253.2969" y2="253.2969"/></g><g class="entity" data-entity="viewEnrolledStudents" data-source-line="18" data-uid="ent0016" id="entity_viewEnrolledStudents"><rect fill="#F1F1F1" height="36.2969" rx="2.5" ry="2.5" style="stroke:#181818;stroke-width:0.5;" width="213.1104" x="1706" y="346"/><text fill="#000000" font-family="sans-serif" font-size="14" lengthAdjust="spacing" textLength="199.1104" x="1713" y="360.9951">viewEnrolledStudents : View</text><line style="stroke:#181818;stroke-width:0.5;" x1="1707" x2="1918.1104" y1="366.2969" y2="366.2969"/></g><g class="entity" data-entity="triggerUpdateGrades" data-source-line="19" data-uid="ent0017" id="entity_triggerUpdateGrades"><rect fill="#F1F1F1" height="36.2969" rx="2.5" ry="2.5" style="stroke:#181818;stroke-width:0.5;" width="225.9141" x="1954.5" y="346"/><text fill="#000000" font-family="sans-serif" font-size="14" lengthAdjust="spacing" textLength="211.9141" x="1961.5" y="360.9951">triggerUpdateGrades : Trigger</text><line style="stroke:#181818;stroke-width:0.5;" x1="1955.5" x2="2179.4141" y1="366.2969" y2="366.2969"/></g><g class="entity" data-entity="studentName" data-source-line="20" data-uid="ent0018" id="entity_studentName"><rect fill="#F1F1F1" height="36.2969" rx="2.5" ry="2.5" style="stroke:#181818;stroke-width:0.5;" width="184.502" x="2216" y="346"/><text fill="#000000" font-family="sans-serif" font-size="14" lengthAdjust="spacing" textLength="170.502" x="2223" y="360.9951">studentName : Attribute</text><line style="stroke:#181818;stroke-width:0.5;" x1="2217" x2="2399.502" y1="366.2969" y2="366.2969"/></g><g class="entity" data-entity="studentID" data-source-line="21" data-uid="ent0019" id="entity_studentID"><rect fill="#F1F1F1" height="36.2969" rx="2.5" ry="2.5" style="stroke:#181818;stroke-width:0.5;" width="158.1084" x="2435.5" y="346"/><text fill="#000000" font-family="sans-serif" font-size="14" lengthAdjust="spacing" textLength="144.1084" x="2442.5" y="360.9951">studentID : Attribute</text><line style="stroke:#181818;stroke-width:0.5;" x1="2436.5" x2="2592.6084" y1="366.2969" y2="366.2969"/></g><g class="entity" data-entity="primaryStudentId" data-source-line="22" data-uid="ent0020" id="entity_primaryStudentId"><rect fill="#F1F1F1" height="36.2969" rx="2.5" ry="2.5" style="stroke:#181818;stroke-width:0.5;" width="204.8799" x="1466" y="346"/><text fill="#000000" font-family="sans-serif" font-size="14" lengthAdjust="spacing" textLength="190.8799" x="1473" y="360.9951">primaryStudentId : Primary</text><line style="stroke:#181818;stroke-width:0.5;" x1="1467" x2="1669.8799" y1="366.2969" y2="366.2969"/></g><g class="entity" data-entity="foreignCourseId" data-source-line="23" data-uid="ent0021" id="entity_foreignCourseId"><rect fill="#F1F1F1" height="36.2969" rx="2.5" ry="2.5" style="stroke:#181818;stroke-width:0.5;" width="191.6592" x="1238.5" y="346"/><text fill="#000000" font-family="sans-serif" font-size="14" lengthAdjust="spacing" textLength="177.6592" x="1245.5" y="360.9951">foreignCourseId : Foreign</text><line style="stroke:#181818;stroke-width:0.5;" x1="1239.5" x2="1429.1592" y1="366.2969" y2="366.2969"/></g><g class="entity" data-entity="notNullConstraintStudent" data-source-line="24" data-uid="ent0022" id="entity_notNullConstraintStudent"><rect fill="#F1F1F1" height="36.2969" rx="2.5" ry="2.5" style="stroke:#181818;stroke-width:0.5;" width="277.9492" x="2169.5" y="459"/><text fill="#000000" font-family="sans-serif" font-size="14" lengthAdjust="spacing" textLength="263.9492" x="2176.5" y="473.9951">notNullConstraintStudent : Constraint</text><line style="stroke:#181818;stroke-width:0.5;" x1="2170.5" x2="2446.4492" y1="479.2969" y2="479.2969"/></g><!--link professor to professorRole--><g class="link" data-entity-1="professor" data-entity-2="professorRole" data-source-line="26" data-uid="lnk23" id="link_professor_professorRole"><path codeLine="26" d="M115.5,43.34 C115.5,64.2 115.5,92.98 115.5,113.78" fill="none" id="professor-to-professorRole" style="stroke:#181818;stroke-width:1;"/><polygon fill="#181818" points="115.5,119.78,119.5,110.78,115.5,114.78,111.5,110.78,115.5,119.78" style="stroke:#181818;stroke-width:1;"/><text fill="#000000" font-family="sans-serif" font-size="13" lengthAdjust="spacing" textLength="35.0771" x="116.5" y="86.0669">has a</text></g><!--link professorRole to manageCourses--><g class="link" data-entity-1="professorRole" data-entity-2="manageCourses" data-source-line="27" data-uid="lnk24" id="link_professorRole_manageCourses"><path codeLine="27" d="M115.5,156.34 C115.5,177.2 115.5,205.98 115.5,226.78" fill="none" id="professorRole-to-manageCourses" style="stroke:#181818;stroke-width:1;"/><polygon fill="#181818" points="115.5,232.78,119.5,223.78,115.5,227.78,111.5,223.78,115.5,232.78" style="stroke:#181818;stroke-width:1;"/><text fill="#000000" font-family="sans-serif" font-size="13" lengthAdjust="spacing" textLength="35.0771" x="116.5" y="199.0669">has a</text></g><!--link manageCourses to viewActiveCourses--><g class="link" data-entity-1="manageCourses" data-entity-2="viewActiveCourses" data-source-line="28" data-uid="lnk25" id="link_manageCourses_viewActiveCourses"><path codeLine="28" d="M115.5,269.34 C115.5,290.2 115.5,318.98 115.5,339.78" fill="none" id="manageCourses-to-viewActiveCourses" style="stroke:#181818;stroke-width:1;"/><polygon fill="#181818" points="115.5,345.78,119.5,336.78,115.5,340.78,111.5,336.78,115.5,345.78" style="stroke:#181818;stroke-width:1;"/><text fill="#000000" font-family="sans-serif" font-size="13" lengthAdjust="spacing" textLength="41.0884" x="116.5" y="312.0669">over a</text></g><!--reverse link courses to viewActiveCourses--><g class="link" data-entity-1="courses" data-entity-2="viewActiveCourses" data-source-line="30" data-uid="lnk26" id="link_courses_viewActiveCourses"><path codeLine="30" d="M749.4556,263.3237 C627.0756,282.5637 360.18,324.53 212.11,347.81" fill="none" id="courses-backto-viewActiveCourses" style="stroke:#181818;stroke-width:1;"/><polygon fill="#181818" points="761.31,261.46,754.7616,258.4404,749.4556,263.3237,756.004,266.3433,761.31,261.46" style="stroke:#181818;stroke-width:1;"/><text fill="#000000" font-family="sans-serif" font-size="13" lengthAdjust="spacing" textLength="35.0771" x="512.5" y="312.0669">has a</text></g><!--reverse link courses to triggerUpdateEnrollment--><g class="link" data-entity-1="courses" data-entity-2="triggerUpdateEnrollment" data-source-line="31" data-uid="lnk27" id="link_courses_triggerUpdateEnrollment"><path codeLine="31" d="M749.432,269.8553 C666.432,290.4153 529.21,324.42 442.12,346" fill="none" id="courses-backto-triggerUpdateEnrollment" style="stroke:#181818;stroke-width:1;"/><polygon fill="none" points="761.08,266.97,754.2942,264.53,749.432,269.8553,756.2178,272.2953,761.08,266.97" style="stroke:#181818;stroke-width:1;"/><text fill="#000000" font-family="sans-serif" font-size="13" lengthAdjust="spacing" textLength="35.0771" x="625.5" y="312.0669">has a</text></g><!--reverse link courses to courseName--><g class="link" data-entity-1="courses" data-entity-2="courseName" data-source-line="32" data-uid="lnk28" id="link_courses_courseName"><path codeLine="32" d="M860.455,275.2488 C895.415,296.1088 943.84,325.01 978.81,345.88" fill="none" id="courses-backto-courseName" style="stroke:#181818;stroke-width:1;"/><polygon fill="#181818" points="850.15,269.1,853.2529,275.6094,860.455,275.2488,857.3521,268.7394,850.15,269.1" style="stroke:#181818;stroke-width:1;"/><text fill="#000000" font-family="sans-serif" font-size="13" lengthAdjust="spacing" textLength="35.0771" x="926.5" y="312.0669">has a</text></g><!--reverse link courses to credits--><g class="link" data-entity-1="courses" data-entity-2="credits" data-source-line="33" data-uid="lnk29" id="link_courses_credits"><path codeLine="33" d="M777.2263,274.5447 C736.2563,295.4047 678.11,325.01 637.12,345.88" fill="none" id="courses-backto-credits" style="stroke:#181818;stroke-width:1;"/><polygon fill="#181818" points="787.92,269.1,780.7582,268.2578,777.2263,274.5447,784.3881,275.3869,787.92,269.1" style="stroke:#181818;stroke-width:1;"/><text fill="#000000" font-family="sans-serif" font-size="13" lengthAdjust="spacing" textLength="35.0771" x="726.5" y="312.0669">has a</text></g><!--reverse link courses to primaryCourseId--><g class="link" data-entity-1="courses" data-entity-2="primaryCourseId" data-source-line="34" data-uid="lnk30" id="link_courses_primaryCourseId"><path codeLine="34" d="M887.479,272.6545 C915.699,281.5145 939.25,288.97 970.5,299 C1034.6,319.57 1054.57,315.32 1114.5,346 C1177.52,378.26 1242.41,431.78 1273.56,458.99" fill="none" id="courses-backto-primaryCourseId" style="stroke:#181818;stroke-width:1;"/><polygon fill="#181818" points="876.03,269.06,880.5563,274.6736,887.479,272.6545,882.9527,267.0409,876.03,269.06" style="stroke:#181818;stroke-width:1;"/><text fill="#000000" font-family="sans-serif" font-size="13" lengthAdjust="spacing" textLength="35.0771" x="1172.5" y="368.5669">has a</text></g><!--reverse link courses to foreignDeptId--><g class="link" data-entity-1="courses" data-entity-2="foreignDeptId" data-source-line="35" data-uid="lnk31" id="link_courses_foreignDeptId"><path codeLine="35" d="M814.7012,281.0233 C809.8112,301.8833 804.41,324.98 799.53,345.78" fill="none" id="courses-backto-foreignDeptId" style="stroke:#181818;stroke-width:1;"/><polygon fill="#181818" points="817.44,269.34,812.1762,274.2687,814.7012,281.0233,819.965,276.0946,817.44,269.34" style="stroke:#181818;stroke-width:1;"/><text fill="#000000" font-family="sans-serif" font-size="13" lengthAdjust="spacing" textLength="35.0771" x="810.5" y="312.0669">has a</text></g><!--link courseName to notNullConstraintCourse--><g class="link" data-entity-1="courseName" data-entity-2="notNullConstraintCourse" data-source-line="36" data-uid="lnk32" id="link_courseName_notNullConstraintCourse"><path codeLine="36" d="M1007.5,382.34 C1007.5,403.2 1007.5,431.98 1007.5,452.78" fill="none" id="courseName-to-notNullConstraintCourse" style="stroke:#181818;stroke-width:1;"/><polygon fill="#181818" points="1007.5,458.78,1011.5,449.78,1007.5,453.78,1003.5,449.78,1007.5,458.78" style="stroke:#181818;stroke-width:1;"/><text fill="#000000" font-family="sans-serif" font-size="13" lengthAdjust="spacing" textLength="35.0771" x="1008.5" y="425.0669">has a</text></g><!--reverse link students to viewEnrolledStudents--><g class="link" data-entity-1="students" data-entity-2="viewEnrolledStudents" data-source-line="38" data-uid="lnk33" id="link_students_viewEnrolledStudents"><path codeLine="38" d="M1718.174,277.1779 C1741.024,297.9779 1770.52,324.81 1793.48,345.7" fill="none" id="students-backto-viewEnrolledStudents" style="stroke:#181818;stroke-width:1;"/><polygon fill="#181818" points="1709.3,269.1,1711.0444,276.0969,1718.174,277.1779,1716.4296,270.1809,1709.3,269.1" style="stroke:#181818;stroke-width:1;"/><text fill="#000000" font-family="sans-serif" font-size="13" lengthAdjust="spacing" textLength="35.0771" x="1759.5" y="312.0669">has a</text></g><!--reverse link students to triggerUpdateGrades--><g class="link" data-entity-1="students" data-entity-2="triggerUpdateGrades" data-source-line="39" data-uid="lnk34" id="link_students_triggerUpdateGrades"><path codeLine="39" d="M1760.0914,272.4893 C1831.0414,293.3793 1938.83,325.11 2009.66,345.97" fill="none" id="students-backto-triggerUpdateGrades" style="stroke:#181818;stroke-width:1;"/><polygon fill="none" points="1748.58,269.1,1753.2059,274.6318,1760.0914,272.4893,1755.4655,266.9575,1748.58,269.1" style="stroke:#181818;stroke-width:1;"/><text fill="#000000" font-family="sans-serif" font-size="13" lengthAdjust="spacing" textLength="35.0771" x="1902.5" y="312.0669">has a</text></g><!--reverse link students to studentName--><g class="link" data-entity-1="students" data-entity-2="studentName" data-source-line="40" data-uid="lnk35" id="link_students_studentName"><path codeLine="40" d="M1765.8311,265.5309 C1875.4811,285.2209 2088.91,323.56 2215.98,346.38" fill="none" id="students-backto-studentName" style="stroke:#181818;stroke-width:1;"/><polygon fill="#181818" points="1754.02,263.41,1759.2186,268.4075,1765.8311,265.5309,1760.6325,260.5334,1754.02,263.41" style="stroke:#181818;stroke-width:1;"/><text fill="#000000" font-family="sans-serif" font-size="13" lengthAdjust="spacing" textLength="35.0771" x="2037.5" y="312.0669">has a</text></g><!--reverse link students to studentID--><g class="link" data-entity-1="students" data-entity-2="studentID" data-source-line="41" data-uid="lnk36" id="link_students_studentID"><path codeLine="41" d="M1766.3856,260.3541 C1893.3156,274.5541 2173.99,307.31 2418.5,346 C2424.02,346.87 2429.71,347.8 2435.43,348.76" fill="none" id="students-backto-studentID" style="stroke:#181818;stroke-width:1;"/><polygon fill="#181818" points="1754.46,259.02,1759.9781,263.6623,1766.3856,260.3541,1760.8675,255.7119,1754.46,259.02" style="stroke:#181818;stroke-width:1;"/><text fill="#000000" font-family="sans-serif" font-size="13" lengthAdjust="spacing" textLength="35.0771" x="2199.5" y="312.0669">has a</text></g><!--reverse link students to primaryStudentId--><g class="link" data-entity-1="students" data-entity-2="primaryStudentId" data-source-line="42" data-uid="lnk37" id="link_students_primaryStudentId"><path codeLine="42" d="M1662.826,277.1779 C1639.976,297.9779 1610.48,324.81 1587.52,345.7" fill="none" id="students-backto-primaryStudentId" style="stroke:#181818;stroke-width:1;"/><polygon fill="#181818" points="1671.7,269.1,1664.5704,270.1809,1662.826,277.1779,1669.9556,276.0969,1671.7,269.1" style="stroke:#181818;stroke-width:1;"/><text fill="#000000" font-family="sans-serif" font-size="13" lengthAdjust="spacing" textLength="35.0771" x="1637.5" y="312.0669">has a</text></g><!--reverse link students to foreignCourseId--><g class="link" data-entity-1="students" data-entity-2="foreignCourseId" data-source-line="43" data-uid="lnk38" id="link_students_foreignCourseId"><path codeLine="43" d="M1624.2039,272.6719 C1557.2039,293.5619 1456.01,325.11 1389.11,345.97" fill="none" id="students-backto-foreignCourseId" style="stroke:#181818;stroke-width:1;"/><polygon fill="#181818" points="1635.66,269.1,1628.7413,267.0673,1624.2039,272.6719,1631.1226,274.7046,1635.66,269.1" style="stroke:#181818;stroke-width:1;"/><text fill="#000000" font-family="sans-serif" font-size="13" lengthAdjust="spacing" textLength="35.0771" x="1534.5" y="312.0669">has a</text></g><!--link studentName to notNullConstraintStudent--><g class="link" data-entity-1="studentName" data-entity-2="notNullConstraintStudent" data-source-line="44" data-uid="lnk39" id="link_studentName_notNullConstraintStudent"><path codeLine="44" d="M2308.5,382.34 C2308.5,403.2 2308.5,431.98 2308.5,452.78" fill="none" id="studentName-to-notNullConstraintStudent" style="stroke:#181818;stroke-width:1;"/><polygon fill="#181818" points="2308.5,458.78,2312.5,449.78,2308.5,453.78,2304.5,449.78,2308.5,458.78" style="stroke:#181818;stroke-width:1;"/><text fill="#000000" font-family="sans-serif" font-size="13" lengthAdjust="spacing" textLength="35.0771" x="2309.5" y="425.0669">has a</text></g><!--reverse link dbCampus to courses--><g class="link" data-entity-1="dbCampus" data-entity-2="courses" data-source-line="46" data-uid="lnk41" id="link_dbCampus_courses"><path codeLine="46" d="M1404.0238,154.309 C1326.6238,167.379 1214.85,186.16 1112.5,203 C1032.72,216.13 940.57,230.95 881.71,240.38" fill="none" id="dbCampus-backto-courses" style="stroke:#181818;stroke-width:1;stroke-dasharray:7,7;"/><polygon fill="#181818" points="1409.94,153.31,1400.3996,150.8644,1405.0098,154.1425,1401.7317,158.7527,1409.94,153.31" style="stroke:#181818;stroke-width:1;"/><text fill="#000000" font-family="sans-serif" font-size="13" lengthAdjust="spacing" textLength="88.188" x="1207.5" y="199.0669">depends on a</text></g><!--reverse link schemaCourses to courses--><g class="link" data-entity-1="schemaCourses" data-entity-2="courses" data-source-line="47" data-uid="lnk43" id="link_schemaCourses_courses"><path codeLine="47" d="M923.5879,160.0663 C899.9779,180.8663 864.85,211.81 841.14,232.7" fill="none" id="schemaCourses-backto-courses" style="stroke:#181818;stroke-width:1;stroke-dasharray:7,7;"/><polygon fill="#181818" points="928.09,156.1,918.6927,159.048,924.3383,159.4052,923.981,165.0508,928.09,156.1" style="stroke:#181818;stroke-width:1;"/><text fill="#000000" font-family="sans-serif" font-size="13" lengthAdjust="spacing" textLength="51.3589" x="892.5" y="199.0669">needs a</text></g><!--reverse link dbCampus to students--><g class="link" data-entity-1="dbCampus" data-entity-2="students" data-source-line="48" data-uid="lnk45" id="link_dbCampus_students"><path codeLine="48" d="M1529.9208,159.057 C1566.7508,179.917 1623.42,212.01 1660.27,232.88" fill="none" id="dbCampus-backto-students" style="stroke:#181818;stroke-width:1;stroke-dasharray:7,7;"/><polygon fill="#181818" points="1524.7,156.1,1530.5598,164.016,1529.0506,158.5641,1534.5025,157.0549,1524.7,156.1" style="stroke:#181818;stroke-width:1;"/><text fill="#000000" font-family="sans-serif" font-size="13" lengthAdjust="spacing" textLength="88.188" x="1604.5" y="199.0669">depends on a</text></g><!--reverse link schemaCourses to students--><g class="link" data-entity-1="schemaCourses" data-entity-2="students" data-source-line="49" data-uid="lnk47" id="link_schemaCourses_students"><path codeLine="49" d="M973.0669,159.6537 C993.0569,174.9337 1020.03,192.83 1051.5,203 C1157.22,237.16 1487,246.63 1626.82,249.14" fill="none" id="schemaCourses-backto-students" style="stroke:#181818;stroke-width:1;stroke-dasharray:7,7;"/><polygon fill="#181818" points="968.3,156.01,973.0212,164.6535,972.2724,159.0464,977.8795,158.2977,968.3,156.01" style="stroke:#181818;stroke-width:1;"/><text fill="#000000" font-family="sans-serif" font-size="13" lengthAdjust="spacing" textLength="51.3589" x="1052.5" y="199.0669">needs a</text></g><!--link foreignCourseId to primaryCourseId--><g class="link" data-entity-1="foreignCourseId" data-entity-2="primaryCourseId" data-source-line="51" data-uid="lnk48" id="link_foreignCourseId_primaryCourseId"><path codeLine="51" d="M1327.94,382.34 C1320.05,403.2 1309.0133,432.3683 1301.1433,453.1683" fill="none" id="foreignCourseId-to-primaryCourseId" style="stroke:#181818;stroke-width:1;"/><polygon fill="#181818" points="1299.02,458.78,1305.9461,451.7779,1300.7894,454.1035,1298.4638,448.9469,1299.02,458.78" style="stroke:#181818;stroke-width:1;"/><text fill="#000000" font-family="sans-serif" font-size="13" lengthAdjust="spacing" textLength="81.5166" x="1316.5" y="425.0669">references a</text></g><!--SRC=[ZPNDReCm3CVlF0NQSH9zW1qgLMMRUgccTTqz4BVD10bAGgUz_V81WNnDEo7idnt7VnjOymMjB1y6pYuW1EFbKtaMm1zA94fdB5Y8lRCE5AeVFgej3kyHHLVOiv4B40f_0zuJ8GYZ9iXp5ouADtlK3wCEg9543HBsZDdkGD7Ue4TB-fDvDwpdMbAtZlr0pLJwP7FCdS3thfNalYhyKzaC73bTcEJaUWL-7Z2Iy4mvwxeUgDH7MO-9pr11WKVKw-xkfCARKQxhrAw5ve29535gxIlPI8_uZotvWBKIrZ9fvtbTr8Ln85TQmo1Dp8jzDp6UpqLG9ezZr-qP5P8ZGgNDgM8NamdFW8jGGevOzSLNQZPwKjac0Zuj4PvQeJyjs2j7sCv5JYnBX0KcbLhvGlvGv-X37SerLPpJoxb3mLOo9oIBP8wqc1B_GxM9B8hbyr5LspByIjnKB2fyg-R2puFbVAlcKXl9xi0LNCmR_LXLISxcd2ccgFoY-gpEwArZmktsB_R5EnSpuOQj2NEeldr-gInUk5sPUv1O2OiwCkg3c_y0r2dzKSy3PhOJxiGu9wXuU3qetuvbNAT-p1tUZCDcMwx-9XW6e5ZTdgvqi5JuAw40s2lnxsG1bijMX9Uqsn8E2eSBSA2jYaM_]--></g></svg>